{"glyphs":{"0":{"ha":958,"x_min":0,"x_max":0,"o":"m 729 486 b 479 847 729 729 611 847 b 229 486 347 847 229 729 b 479 125 229 243 347 125 b 729 486 611 125 729 243 m 479 -14 b 76 486 257 -14 76 168 b 479 986 76 804 257 986 b 882 486 701 986 882 804 b 479 -14 882 168 701 -14 "},"1":{"ha":514,"x_min":0,"x_max":0,"o":"m 222 743 l 49 743 l 49 840 b 257 972 174 856 224 903 l 375 972 l 375 0 l 222 0 "},"2":{"ha":778,"x_min":0,"x_max":0,"o":"m 701 146 l 701 0 l 49 0 b 549 688 49 438 549 450 b 375 840 549 778 486 840 b 226 774 301 840 256 807 b 188 708 210 754 197 732 l 63 764 b 122 875 75 806 96 843 b 375 986 168 931 246 986 b 701 688 569 986 701 854 b 229 146 701 403 340 361 "},"3":{"ha":785,"x_min":0,"x_max":0,"o":"m 132 236 b 190 181 147 215 167 197 b 368 125 229 153 286 125 b 563 285 494 125 563 194 b 368 438 563 368 494 438 l 264 438 l 264 583 l 368 583 b 528 715 474 583 528 638 b 368 847 528 793 474 847 b 214 799 301 847 251 822 b 160 750 193 783 175 768 l 56 854 b 136 919 79 878 106 900 b 368 986 190 953 267 986 b 681 729 563 986 681 868 b 607 561 681 647 644 594 b 535 514 586 542 561 526 b 625 464 568 501 599 485 b 715 278 669 426 715 368 b 368 -14 715 117 583 -14 b 113 58 251 -14 169 21 b 28 132 79 79 51 104 "},"4":{"ha":819,"x_min":0,"x_max":0,"o":"m 42 361 l 486 972 l 667 972 l 667 333 l 792 333 l 792 194 l 667 194 l 667 0 l 514 0 l 514 194 l 42 194 m 514 333 l 514 785 l 188 333 "},"5":{"ha":819,"x_min":0,"x_max":0,"o":"m 160 236 b 218 181 175 215 194 197 b 396 125 257 153 314 125 b 597 313 522 125 597 201 b 396 500 597 424 522 500 b 261 451 336 500 293 475 b 215 403 243 436 228 421 l 104 417 l 139 972 l 688 972 l 688 826 l 271 826 l 257 590 b 301 614 269 599 285 607 b 424 639 331 626 369 639 b 750 313 613 639 750 501 b 396 -14 750 124 611 -14 b 140 58 279 -14 197 21 b 56 132 107 79 79 104 "},"6":{"ha":819,"x_min":0,"x_max":0,"o":"m 417 972 l 583 972 l 361 632 l 376 635 b 424 639 386 636 403 639 b 757 313 611 639 757 493 b 410 -14 757 132 611 -14 b 63 313 208 -14 63 132 b 97 461 63 368 79 421 b 132 528 107 485 119 507 m 215 313 b 410 125 215 208 299 125 b 604 313 521 125 604 208 b 410 500 604 417 521 500 b 215 313 299 500 215 417 "},"7":{"ha":722,"x_min":0,"x_max":0,"o":"m 514 826 l 42 826 l 42 972 l 681 972 l 681 833 l 278 0 l 111 0 "},"8":{"ha":833,"x_min":0,"x_max":0,"o":"m 222 285 b 417 125 222 194 290 125 b 611 285 543 125 611 194 b 417 444 611 375 543 444 b 222 285 290 444 222 375 m 264 715 b 417 583 264 638 318 583 b 569 715 515 583 569 638 b 417 847 569 793 515 847 b 264 715 318 847 264 793 m 69 278 b 153 467 69 368 110 428 b 236 521 176 489 204 507 b 174 568 213 533 192 549 b 111 729 142 601 111 651 b 417 986 111 868 229 986 b 722 729 604 986 722 868 b 660 568 722 651 692 601 b 597 521 642 549 621 533 b 681 467 629 507 657 489 b 764 278 724 428 764 368 b 417 -14 764 117 632 -14 b 69 278 201 -14 69 117 "},"9":{"ha":819,"x_min":0,"x_max":0,"o":"m 458 340 l 443 336 b 396 333 432 335 417 333 b 63 660 208 333 63 479 b 410 986 63 840 208 986 b 757 660 611 986 757 840 b 722 510 757 604 739 550 b 688 444 713 486 700 464 l 403 0 l 236 0 m 215 660 b 410 472 215 556 299 472 b 604 660 521 472 604 556 b 410 847 604 764 521 847 b 215 660 299 847 215 764 "},"\u0000":{"ha":0,"x_min":0,"x_max":0,"o":""},"\r":{"ha":0,"x_min":0,"x_max":0,"o":""}," ":{"ha":292,"x_min":0,"x_max":0,"o":""},"!":{"ha":431,"x_min":0,"x_max":0,"o":"m 132 972 l 299 972 l 271 264 l 160 264 m 125 76 b 215 167 125 125 167 167 b 306 76 264 167 306 125 b 215 -14 306 28 264 -14 b 125 76 167 -14 125 28 "},"\"":{"ha":528,"x_min":0,"x_max":0,"o":"m 83 972 l 208 972 l 208 660 l 83 660 m 319 972 l 444 972 l 444 660 l 319 660 "},"#":{"ha":1000,"x_min":0,"x_max":0,"o":"m 222 278 l 14 278 l 35 382 l 243 382 l 285 590 l 83 590 l 104 694 l 306 694 l 361 972 l 479 972 l 424 694 l 660 694 l 715 972 l 833 972 l 778 694 l 986 694 l 965 590 l 757 590 l 715 382 l 917 382 l 896 278 l 694 278 l 639 0 l 521 0 l 576 278 l 340 278 l 285 0 l 167 0 m 597 382 l 639 590 l 403 590 l 361 382 "},"$":{"ha":792,"x_min":0,"x_max":0,"o":"m 146 236 b 204 181 161 215 181 197 b 389 125 244 153 306 125 b 583 271 515 125 583 193 b 69 715 583 486 69 354 b 326 979 69 856 175 957 l 326 1118 l 465 1118 l 465 983 b 647 913 544 971 607 940 b 708 861 671 896 692 879 l 604 757 b 553 801 589 774 572 789 b 403 847 519 824 468 847 b 222 715 285 847 222 786 b 736 271 222 500 736 632 b 465 -7 736 124 625 15 l 465 -146 l 326 -146 l 326 -10 b 111 69 228 1 160 38 b 42 132 83 88 60 108 "},"%":{"ha":1097,"x_min":0,"x_max":0,"o":"m 56 771 b 278 986 56 888 153 986 b 500 771 403 986 500 888 b 278 556 500 654 403 556 b 56 771 153 556 56 654 m 167 771 b 278 660 167 708 215 660 b 389 771 340 660 389 708 b 278 882 389 833 340 882 b 167 771 215 882 167 833 m 792 972 l 917 972 l 306 0 l 181 0 m 597 201 b 819 417 597 318 694 417 b 1042 201 944 417 1042 318 b 819 -14 1042 85 944 -14 b 597 201 694 -14 597 85 m 819 90 b 931 201 882 90 931 139 b 819 313 931 264 882 313 b 708 201 757 313 708 264 b 819 90 708 139 757 90 "},"&":{"ha":861,"x_min":0,"x_max":0,"o":"m 611 278 b 639 333 621 294 631 313 b 667 472 654 368 667 417 l 792 472 b 746 260 792 389 768 314 b 701 174 733 228 718 200 b 732 142 711 161 721 151 b 806 111 753 126 778 111 b 835 114 815 111 825 113 l 847 118 l 847 -7 l 835 -11 b 785 -14 825 -12 808 -14 b 663 35 731 -14 692 8 b 618 83 646 49 631 65 b 549 31 599 64 575 46 b 354 -21 503 4 438 -21 b 69 229 181 -21 69 90 b 163 439 69 324 114 393 b 257 507 190 465 222 489 b 188 589 231 533 208 560 b 118 764 153 638 118 701 b 361 986 118 889 215 986 b 597 771 500 986 597 888 b 510 582 597 693 553 631 b 424 507 485 554 456 529 m 333 424 b 271 371 310 408 289 390 b 208 236 239 338 208 292 b 361 104 208 167 271 104 b 489 139 417 104 460 121 b 535 174 506 149 521 161 m 354 590 b 410 649 375 610 393 629 b 465 764 438 682 465 725 b 361 861 465 819 424 861 b 250 764 290 861 250 819 b 301 649 250 725 275 682 b 354 590 317 629 335 610 "},"'":{"ha":292,"x_min":0,"x_max":0,"o":"m 83 972 l 208 972 l 208 660 l 83 660 "},"(":{"ha":451,"x_min":0,"x_max":0,"o":"m 325 -312 b 204 -133 279 -261 239 -201 b 83 347 143 -18 83 146 b 204 828 83 549 143 711 b 325 1007 239 894 279 954 l 431 938 b 326 772 392 889 357 833 b 222 347 272 667 222 521 b 326 -78 222 174 272 28 b 431 -243 357 -139 392 -194 "},")":{"ha":451,"x_min":0,"x_max":0,"o":"m 21 -243 b 125 -78 60 -194 94 -139 b 229 347 176 28 229 174 b 125 772 229 521 176 667 b 21 938 94 833 60 889 l 126 1007 b 247 828 171 954 211 894 b 368 347 307 714 368 549 b 247 -133 368 146 307 -19 b 126 -312 211 -201 171 -261 "},"*":{"ha":556,"x_min":0,"x_max":0,"o":"m 208 715 l 42 757 l 76 861 l 236 799 l 222 972 l 333 972 l 319 799 l 479 861 l 514 757 l 347 715 l 458 576 l 375 507 l 278 660 l 181 507 l 97 576 "},"+":{"ha":715,"x_min":0,"x_max":0,"o":"m 49 472 l 299 472 l 299 722 l 417 722 l 417 472 l 667 472 l 667 347 l 417 347 l 417 97 l 299 97 l 299 347 l 49 347 "},",":{"ha":306,"x_min":0,"x_max":0,"o":"m 125 167 l 250 97 l 76 -181 l -14 -132 "},"-":{"ha":569,"x_min":0,"x_max":0,"o":"m 63 472 l 507 472 l 507 347 l 63 347 "},".":{"ha":306,"x_min":0,"x_max":0,"o":"m 153 -14 b 63 76 104 -14 63 28 b 153 167 63 125 104 167 b 243 76 201 167 243 125 b 153 -14 243 28 201 -14 "},"/":{"ha":542,"x_min":0,"x_max":0,"o":"m 417 986 l 542 986 l 125 -292 l 0 -292 "},":":{"ha":306,"x_min":0,"x_max":0,"o":"m 63 76 b 153 167 63 125 104 167 b 243 76 201 167 243 125 b 153 -14 243 28 201 -14 b 63 76 104 -14 63 28 m 63 590 b 153 681 63 639 104 681 b 243 590 201 681 243 639 b 153 500 243 542 201 500 b 63 590 104 500 63 542 "},";":{"ha":313,"x_min":0,"x_max":0,"o":"m 125 167 l 250 97 l 76 -181 l -14 -132 m 76 590 b 167 681 76 639 118 681 b 257 590 215 681 257 639 b 167 500 257 542 215 500 b 76 590 118 500 76 542 "},"<":{"ha":694,"x_min":0,"x_max":0,"o":"m 56 382 l 639 681 l 639 542 l 243 340 l 639 139 l 639 0 l 56 299 "},"=":{"ha":681,"x_min":0,"x_max":0,"o":"m 56 340 l 625 340 l 625 215 l 56 215 m 56 604 l 625 604 l 625 479 l 56 479 "},">":{"ha":694,"x_min":0,"x_max":0,"o":"m 56 139 l 451 340 l 56 542 l 56 681 l 639 382 l 639 299 l 56 0 "},"?":{"ha":743,"x_min":0,"x_max":0,"o":"m 278 264 l 274 282 b 271 326 272 293 271 308 b 535 708 271 529 535 542 b 368 847 535 786 474 847 b 207 778 286 847 239 813 b 167 708 189 757 176 735 l 42 757 b 103 871 54 800 75 838 b 368 986 151 928 231 986 b 688 722 561 986 688 861 b 417 271 688 458 417 472 l 417 264 m 257 76 b 347 167 257 125 299 167 b 438 76 396 167 438 125 b 347 -14 438 28 396 -14 b 257 76 299 -14 257 28 "},"@":{"ha":1229,"x_min":0,"x_max":0,"o":"m 604 188 b 743 340 682 188 743 250 b 604 493 743 431 682 493 b 465 340 526 493 465 431 b 604 188 465 250 526 188 m 938 -69 b 858 -129 915 -93 889 -112 b 618 -187 804 -158 725 -187 b 83 347 319 -187 83 49 b 618 882 83 646 319 882 b 1153 375 931 882 1153 660 b 931 83 1153 181 1056 83 b 803 132 871 83 829 106 b 764 181 788 146 774 163 b 724 132 754 163 740 146 b 590 83 696 106 653 83 b 354 340 465 83 354 194 b 590 597 354 486 465 597 b 708 558 646 597 682 579 b 743 521 722 547 733 535 l 743 590 l 854 590 l 854 271 b 931 188 854 222 888 188 b 1042 375 986 188 1042 243 b 618 778 1042 604 868 778 b 194 347 381 778 194 590 b 618 -83 194 104 381 -83 b 811 -39 706 -83 768 -61 b 875 7 836 -26 857 -11 "},"A":{"ha":972,"x_min":0,"x_max":0,"o":"m 403 972 l 569 972 l 958 0 l 799 0 l 701 250 l 271 250 l 174 0 l 14 0 m 646 389 l 486 792 l 326 389 "},"B":{"ha":944,"x_min":0,"x_max":0,"o":"m 139 972 l 528 972 b 819 715 701 972 819 854 b 760 564 819 642 789 596 b 701 521 743 546 724 532 b 785 468 733 508 761 490 b 868 285 828 431 868 372 b 549 0 868 132 736 0 l 139 0 m 549 132 b 715 292 647 132 715 201 b 549 451 715 382 647 451 l 292 451 l 292 132 m 528 576 b 667 708 611 576 667 631 b 528 840 667 786 611 840 l 292 840 l 292 576 "},"C":{"ha":1035,"x_min":0,"x_max":0,"o":"m 993 181 b 890 83 964 144 931 113 b 590 -14 822 35 724 -14 b 76 486 299 -14 76 208 b 590 986 76 764 299 986 b 888 892 724 986 821 940 b 986 799 925 864 958 833 l 889 701 b 815 774 869 728 844 753 b 590 847 765 811 690 847 b 229 486 389 847 229 688 b 590 125 229 285 389 125 b 818 201 690 125 767 163 b 896 278 849 224 875 249 "},"D":{"ha":1049,"x_min":0,"x_max":0,"o":"m 139 972 l 465 972 b 972 486 750 972 972 749 b 465 0 972 224 750 0 l 139 0 m 465 139 b 819 486 667 139 819 292 b 465 833 819 681 667 833 l 292 833 l 292 139 "},"E":{"ha":903,"x_min":0,"x_max":0,"o":"m 139 972 l 826 972 l 826 826 l 292 826 l 292 576 l 715 576 l 715 431 l 292 431 l 292 146 l 840 146 l 840 0 l 139 0 "},"F":{"ha":868,"x_min":0,"x_max":0,"o":"m 139 972 l 819 972 l 819 826 l 292 826 l 292 549 l 708 549 l 708 403 l 292 403 l 292 0 l 139 0 "},"G":{"ha":1118,"x_min":0,"x_max":0,"o":"m 653 514 l 1007 514 l 1007 174 b 900 79 978 139 942 107 b 590 -14 829 31 725 -14 b 76 486 299 -14 76 208 b 590 986 76 764 299 986 b 888 892 724 986 821 940 b 986 799 925 864 958 833 l 889 701 b 815 774 869 728 844 753 b 590 847 765 811 690 847 b 229 486 389 847 229 688 b 590 125 229 285 389 125 b 788 176 678 125 743 150 b 854 229 814 192 836 210 l 854 375 l 653 375 "},"H":{"ha":1063,"x_min":0,"x_max":0,"o":"m 139 972 l 292 972 l 292 563 l 771 563 l 771 972 l 924 972 l 924 0 l 771 0 l 771 424 l 292 424 l 292 0 l 139 0 "},"I":{"ha":431,"x_min":0,"x_max":0,"o":"m 139 972 l 292 972 l 292 0 l 139 0 "},"J":{"ha":694,"x_min":0,"x_max":0,"o":"m 97 194 b 138 160 108 182 122 169 b 257 125 164 142 203 125 b 417 299 356 125 417 188 l 417 972 l 569 972 l 569 299 b 257 -14 569 110 446 -14 b 64 42 168 -14 107 14 b 0 97 39 58 18 76 "},"K":{"ha":951,"x_min":0,"x_max":0,"o":"m 139 972 l 292 972 l 292 500 l 729 972 l 924 972 l 549 569 l 951 0 l 764 0 l 444 458 l 292 292 l 292 0 l 139 0 "},"L":{"ha":792,"x_min":0,"x_max":0,"o":"m 139 972 l 292 972 l 292 146 l 764 146 l 764 0 l 139 0 "},"M":{"ha":1292,"x_min":0,"x_max":0,"o":"m 139 972 l 278 972 l 646 500 l 1014 972 l 1153 972 l 1153 0 l 1000 0 l 1000 715 l 646 264 l 292 715 l 292 0 l 139 0 "},"N":{"ha":1104,"x_min":0,"x_max":0,"o":"m 139 972 l 278 972 l 813 257 l 813 972 l 965 972 l 965 0 l 826 0 l 292 715 l 292 0 l 139 0 "},"O":{"ha":1181,"x_min":0,"x_max":0,"o":"m 229 486 b 590 125 229 285 389 125 b 951 486 792 125 951 285 b 590 847 951 688 792 847 b 229 486 389 847 229 688 m 76 486 b 590 986 76 764 299 986 b 1104 486 882 986 1104 764 b 590 -14 1104 208 882 -14 b 76 486 299 -14 76 208 "},"P":{"ha":917,"x_min":0,"x_max":0,"o":"m 139 972 l 528 972 b 854 660 717 972 854 833 b 528 347 854 486 717 347 l 292 347 l 292 0 l 139 0 m 528 486 b 701 660 625 486 701 563 b 528 833 701 757 625 833 l 292 833 l 292 486 "},"Q":{"ha":1181,"x_min":0,"x_max":0,"o":"m 1132 -208 l 1113 -212 b 1063 -215 1100 -214 1083 -215 b 772 -111 929 -215 835 -165 b 681 -7 735 -81 704 -46 l 651 -11 b 590 -14 633 -12 611 -14 b 76 486 299 -14 76 208 b 590 986 76 764 299 986 b 1104 486 882 986 1104 764 b 965 142 1104 324 1036 213 b 826 42 925 100 878 67 b 885 -21 842 18 861 -3 b 1069 -83 925 -53 986 -83 b 1114 -81 1086 -83 1103 -82 l 1132 -76 m 229 486 b 590 125 229 285 389 125 b 951 486 792 125 951 285 b 590 847 951 688 792 847 b 229 486 389 847 229 688 "},"R":{"ha":958,"x_min":0,"x_max":0,"o":"m 139 972 l 542 972 b 861 667 729 972 861 839 b 768 447 861 557 814 490 b 675 389 740 422 710 403 l 896 0 l 722 0 l 521 361 l 292 361 l 292 0 l 139 0 m 542 500 b 708 667 640 500 708 568 b 542 833 708 765 640 833 l 292 833 l 292 500 "},"S":{"ha":792,"x_min":0,"x_max":0,"o":"m 146 236 b 204 181 161 215 181 197 b 389 125 244 153 306 125 b 583 271 515 125 583 193 b 69 715 583 486 69 354 b 403 986 69 861 196 986 b 631 924 503 986 579 956 b 708 861 661 906 688 885 l 604 757 b 553 801 589 774 572 789 b 403 847 519 824 468 847 b 222 715 285 847 222 786 b 736 271 222 500 736 632 b 389 -14 736 118 604 -14 b 126 58 271 -14 183 21 b 42 132 93 79 65 104 "},"T":{"ha":792,"x_min":0,"x_max":0,"o":"m 319 826 l 28 826 l 28 972 l 764 972 l 764 826 l 472 826 l 472 0 l 319 0 "},"U":{"ha":1069,"x_min":0,"x_max":0,"o":"m 125 972 l 278 972 l 278 389 b 535 125 278 236 389 125 b 792 389 674 125 792 243 l 792 972 l 944 972 l 944 389 b 535 -14 944 153 778 -14 b 125 389 292 -14 125 153 "},"V":{"ha":958,"x_min":0,"x_max":0,"o":"m 21 972 l 181 972 l 479 194 l 778 972 l 938 972 l 563 0 l 396 0 "},"W":{"ha":1458,"x_min":0,"x_max":0,"o":"m 28 972 l 188 972 l 424 243 l 653 972 l 806 972 l 1035 243 l 1271 972 l 1431 972 l 1111 0 l 958 0 l 729 729 l 500 0 l 347 0 "},"X":{"ha":917,"x_min":0,"x_max":0,"o":"m 361 507 l 42 972 l 222 972 l 458 618 l 694 972 l 875 972 l 556 507 l 903 0 l 722 0 l 458 396 l 194 0 l 14 0 "},"Y":{"ha":903,"x_min":0,"x_max":0,"o":"m 375 347 l 7 972 l 181 972 l 451 500 l 722 972 l 896 972 l 528 347 l 528 0 l 375 0 "},"Z":{"ha":861,"x_min":0,"x_max":0,"o":"m 63 146 l 604 826 l 83 826 l 83 972 l 785 972 l 785 826 l 243 146 l 799 146 l 799 0 l 63 0 "},"[":{"ha":465,"x_min":0,"x_max":0,"o":"m 111 986 l 431 986 l 431 854 l 250 854 l 250 -160 l 431 -160 l 431 -292 l 111 -292 "},"\\":{"ha":542,"x_min":0,"x_max":0,"o":"m 0 986 l 125 986 l 542 -292 l 417 -292 "},"]":{"ha":465,"x_min":0,"x_max":0,"o":"m 35 -160 l 215 -160 l 215 854 l 35 854 l 35 986 l 354 986 l 354 -292 l 35 -292 "},"^":{"ha":569,"x_min":0,"x_max":0,"o":"m 236 972 l 333 972 l 521 569 l 396 569 l 285 819 l 174 569 l 49 569 "},"_":{"ha":472,"x_min":0,"x_max":0,"o":"m -14 -132 l 486 -132 l 486 -257 l -14 -257 "},"`":{"ha":333,"x_min":0,"x_max":0,"o":"m 42 972 l 188 972 l 292 778 l 188 778 "},"a":{"ha":722,"x_min":0,"x_max":0,"o":"m 486 97 b 433 42 472 76 454 58 b 271 -14 396 14 343 -14 b 49 181 138 -14 49 76 b 243 389 49 292 125 368 l 486 431 b 347 556 486 501 431 556 b 221 510 293 556 253 532 b 174 465 203 497 188 482 l 83 556 b 150 618 101 579 124 600 b 347 681 194 650 258 681 b 625 424 514 681 625 569 l 625 0 l 486 0 m 486 319 l 292 285 b 188 194 221 272 188 238 b 299 104 188 146 228 104 b 486 299 403 104 486 188 "},"b":{"ha":840,"x_min":0,"x_max":0,"o":"m 104 972 l 243 972 l 243 569 b 297 625 257 590 275 608 b 472 681 335 653 390 681 b 785 333 639 681 785 535 b 472 -14 785 132 639 -14 b 297 42 390 -14 335 14 b 243 97 275 58 257 76 l 243 0 l 104 0 m 444 118 b 646 333 556 118 646 207 b 444 549 646 460 556 549 b 243 333 333 549 243 460 b 444 118 243 207 333 118 "},"c":{"ha":722,"x_min":0,"x_max":0,"o":"m 688 125 b 615 56 667 99 643 76 b 403 -14 567 21 497 -14 b 56 333 208 -14 56 139 b 403 681 56 528 208 681 b 613 614 497 681 567 647 b 681 549 639 594 663 572 l 583 458 b 538 503 571 475 556 490 b 403 549 506 525 463 549 b 194 333 285 549 194 460 b 403 118 194 207 285 118 b 540 167 463 118 508 140 b 590 215 558 181 575 197 "},"d":{"ha":840,"x_min":0,"x_max":0,"o":"m 597 97 b 543 42 583 76 565 58 b 368 -14 506 14 447 -14 b 56 333 201 -14 56 132 b 368 681 56 535 201 681 b 543 625 447 681 506 653 b 597 569 565 608 583 590 l 597 972 l 736 972 l 736 0 l 597 0 m 396 118 b 597 333 507 118 597 207 b 396 549 597 460 507 549 b 194 333 285 549 194 460 b 396 118 194 207 285 118 "},"e":{"ha":778,"x_min":0,"x_max":0,"o":"m 688 111 b 618 49 669 88 646 67 b 403 -14 569 17 501 -14 b 56 333 208 -14 56 139 b 396 681 56 528 208 681 b 722 354 585 681 722 543 b 718 304 722 333 719 317 l 715 285 l 201 285 b 410 118 217 194 297 118 b 551 163 469 118 518 140 b 604 208 571 175 589 190 m 576 403 b 396 556 556 493 494 556 b 201 403 290 556 229 493 "},"f":{"ha":486,"x_min":0,"x_max":0,"o":"m 146 535 l 42 535 l 42 667 l 146 667 l 146 764 b 354 986 146 910 221 986 b 429 975 386 986 411 981 b 458 965 439 971 449 968 l 458 833 l 436 843 b 382 854 421 849 403 854 b 285 750 317 854 285 819 l 285 667 l 444 667 l 444 535 l 285 535 l 285 0 l 146 0 "},"g":{"ha":806,"x_min":0,"x_max":0,"o":"m 174 -62 b 224 -111 189 -81 206 -97 b 361 -160 256 -137 301 -160 b 569 56 488 -160 569 -78 l 569 118 b 517 65 556 99 538 81 b 354 14 479 39 426 14 b 56 347 194 14 56 153 b 354 681 56 542 194 681 b 517 628 426 681 479 654 b 569 576 538 613 556 594 l 569 667 l 708 667 l 708 56 b 361 -292 708 -146 563 -292 b 149 -222 267 -292 197 -257 b 76 -153 121 -201 97 -179 m 382 146 b 569 347 486 146 569 229 b 382 549 569 465 486 549 b 194 347 278 549 194 465 b 382 146 194 229 278 146 "},"h":{"ha":813,"x_min":0,"x_max":0,"o":"m 104 972 l 243 972 l 243 569 b 294 625 257 590 274 608 b 451 681 329 653 381 681 b 715 389 604 681 715 571 l 715 0 l 576 0 l 576 389 b 424 549 576 488 514 549 b 243 361 319 549 243 472 l 243 0 l 104 0 "},"i":{"ha":347,"x_min":0,"x_max":0,"o":"m 104 667 l 243 667 l 243 0 l 104 0 m 90 875 b 174 958 90 924 131 958 b 257 875 217 958 257 924 b 174 792 257 826 217 792 b 90 875 131 792 90 826 "},"j":{"ha":347,"x_min":0,"x_max":0,"o":"m -69 -139 l -47 -150 b 7 -160 -32 -157 -14 -160 b 104 -56 72 -160 104 -125 l 104 667 l 243 667 l 243 -69 b 35 -292 243 -215 168 -292 b -40 -282 3 -292 -22 -287 l -69 -271 m 90 875 b 174 958 90 924 131 958 b 257 875 217 958 257 924 b 174 792 257 826 217 792 b 90 875 131 792 90 826 "},"k":{"ha":722,"x_min":0,"x_max":0,"o":"m 104 972 l 243 972 l 243 361 l 528 667 l 701 667 l 444 396 l 722 0 l 563 0 l 354 299 l 243 181 l 243 0 l 104 0 "},"l":{"ha":347,"x_min":0,"x_max":0,"o":"m 104 972 l 243 972 l 243 0 l 104 0 "},"m":{"ha":1208,"x_min":0,"x_max":0,"o":"m 97 667 l 236 667 l 236 569 b 281 625 247 590 263 608 b 431 681 313 653 360 681 b 589 625 503 681 556 653 b 639 569 608 608 625 590 b 690 625 651 590 669 608 b 868 681 728 653 785 681 b 1111 396 1000 681 1111 569 l 1111 0 l 972 0 l 972 396 b 833 549 972 494 911 549 b 674 368 743 549 674 479 l 674 0 l 535 0 l 535 396 b 396 549 535 494 474 549 b 236 368 306 549 236 479 l 236 0 l 97 0 "},"n":{"ha":806,"x_min":0,"x_max":0,"o":"m 97 667 l 236 667 l 236 569 b 288 625 250 590 267 608 b 444 681 322 653 374 681 b 708 389 597 681 708 571 l 708 0 l 569 0 l 569 389 b 417 549 569 488 507 549 b 236 361 313 549 236 472 l 236 0 l 97 0 "},"o":{"ha":806,"x_min":0,"x_max":0,"o":"m 56 333 b 403 681 56 528 208 681 b 750 333 597 681 750 528 b 403 -14 750 139 597 -14 b 56 333 208 -14 56 139 m 403 118 b 611 333 521 118 611 207 b 403 549 611 460 521 549 b 194 333 285 549 194 460 b 403 118 194 207 285 118 "},"p":{"ha":833,"x_min":0,"x_max":0,"o":"m 97 667 l 236 667 l 236 569 b 290 625 250 590 268 608 b 465 681 328 653 383 681 b 778 333 632 681 778 535 b 465 -14 778 132 632 -14 b 290 42 383 -14 328 14 b 236 97 268 58 250 76 l 236 -292 l 97 -292 m 438 118 b 639 333 549 118 639 207 b 438 549 639 460 549 549 b 236 333 326 549 236 460 b 438 118 236 207 326 118 "},"q":{"ha":833,"x_min":0,"x_max":0,"o":"m 597 97 b 543 42 583 76 565 58 b 368 -14 506 14 447 -14 b 56 333 201 -14 56 132 b 368 681 56 535 201 681 b 543 625 447 681 506 653 b 597 569 565 608 583 590 l 597 667 l 736 667 l 736 -292 l 597 -292 m 396 118 b 597 333 507 118 597 207 b 396 549 597 460 507 549 b 194 333 285 549 194 460 b 396 118 194 207 285 118 "},"r":{"ha":500,"x_min":0,"x_max":0,"o":"m 97 667 l 236 667 l 236 576 b 288 628 251 594 268 613 b 438 681 321 654 371 681 l 472 681 l 472 535 l 454 538 b 417 542 443 539 432 542 b 236 340 321 542 236 458 l 236 0 l 97 0 "},"s":{"ha":604,"x_min":0,"x_max":0,"o":"m 125 201 b 172 156 139 183 154 168 b 299 111 204 133 244 111 b 417 194 376 111 417 151 b 63 486 417 306 63 249 b 306 681 63 590 154 681 b 483 635 385 681 444 657 b 542 590 507 622 526 607 l 451 500 b 413 528 440 510 428 519 b 306 556 386 543 350 556 b 201 486 235 556 201 521 b 556 194 201 375 556 431 b 299 -14 556 83 460 -14 b 101 49 210 -14 146 17 b 35 111 75 67 53 88 "},"t":{"ha":549,"x_min":0,"x_max":0,"o":"m 167 535 l 42 535 l 42 667 l 118 667 b 181 743 161 667 181 688 l 181 889 l 306 889 l 306 667 l 458 667 l 458 535 l 306 535 l 306 222 b 403 118 306 153 338 118 b 457 128 424 118 442 122 l 479 139 l 479 7 l 450 -4 b 375 -14 432 -10 407 -14 b 167 208 242 -14 167 63 "},"u":{"ha":806,"x_min":0,"x_max":0,"o":"m 97 667 l 236 667 l 236 278 b 389 118 236 179 299 118 b 569 306 493 118 569 194 l 569 667 l 708 667 l 708 0 l 569 0 l 569 97 b 517 42 554 76 538 58 b 361 -14 482 14 432 -14 b 97 278 208 -14 97 96 "},"v":{"ha":708,"x_min":0,"x_max":0,"o":"m 14 667 l 167 667 l 354 174 l 542 667 l 694 667 l 431 0 l 278 0 "},"w":{"ha":1056,"x_min":0,"x_max":0,"o":"m 14 667 l 167 667 l 319 215 l 465 667 l 590 667 l 736 215 l 889 667 l 1042 667 l 806 0 l 674 0 l 528 444 l 382 0 l 250 0 "},"x":{"ha":694,"x_min":0,"x_max":0,"o":"m 264 347 l 35 667 l 194 667 l 347 451 l 500 667 l 660 667 l 431 347 l 681 0 l 521 0 l 347 243 l 174 0 l 14 0 "},"y":{"ha":708,"x_min":0,"x_max":0,"o":"m 56 -139 b 79 -150 63 -143 69 -146 b 139 -160 94 -156 113 -160 b 257 -69 194 -160 235 -125 l 285 0 l 14 667 l 167 667 l 354 174 l 542 667 l 694 667 l 403 -76 b 160 -292 347 -217 271 -292 b 85 -282 128 -292 103 -287 l 56 -271 "},"z":{"ha":674,"x_min":0,"x_max":0,"o":"m 56 132 l 424 535 l 69 535 l 69 667 l 604 667 l 604 535 l 236 132 l 618 132 l 618 0 l 56 0 "},"{":{"ha":486,"x_min":0,"x_max":0,"o":"m 153 194 b 63 285 153 250 118 285 l 42 285 l 42 410 l 63 410 b 153 500 118 410 153 444 l 153 778 b 368 986 153 904 235 986 l 451 986 l 451 854 l 382 854 b 292 764 326 854 292 819 l 292 500 b 243 374 292 433 267 396 b 194 347 228 361 213 351 b 243 321 213 343 228 333 b 292 194 267 299 292 260 l 292 -69 b 382 -160 292 -125 326 -160 l 451 -160 l 451 -292 l 368 -292 b 153 -83 235 -292 153 -210 "},"|":{"ha":472,"x_min":0,"x_max":0,"o":"m 167 986 l 306 986 l 306 -292 l 167 -292 "},"}":{"ha":486,"x_min":0,"x_max":0,"o":"m 35 -160 l 104 -160 b 194 -69 160 -160 194 -125 l 194 194 b 243 321 194 260 217 299 b 292 347 257 333 274 343 b 243 374 274 351 257 361 b 194 500 217 396 194 433 l 194 764 b 104 854 194 819 160 854 l 35 854 l 35 986 l 118 986 b 333 778 251 986 333 904 l 333 500 b 424 410 333 444 368 410 l 444 410 l 444 285 l 424 285 b 333 194 368 285 333 250 l 333 -83 b 118 -292 333 -210 251 -292 l 35 -292 "},"~":{"ha":757,"x_min":0,"x_max":0,"o":"m 49 382 b 94 447 61 406 76 428 b 250 514 126 481 176 514 b 507 417 369 514 422 417 b 597 458 550 417 576 438 b 625 500 608 471 618 485 l 708 438 b 663 371 696 413 681 390 b 507 306 631 338 579 306 b 250 403 389 306 333 403 b 160 361 207 403 181 382 b 132 319 149 349 139 335 "}," ":{"ha":292,"x_min":0,"x_max":0,"o":""},"¡":{"ha":403,"x_min":0,"x_max":0,"o":"m 146 403 l 257 403 l 285 -292 l 118 -292 m 111 590 b 201 681 111 639 153 681 b 292 590 250 681 292 639 b 201 500 292 542 250 500 b 111 590 153 500 111 542 "},"¢":{"ha":722,"x_min":0,"x_max":0,"o":"m 326 -7 b 56 333 181 26 56 154 b 326 674 56 513 181 640 l 326 819 l 451 819 l 451 676 b 621 606 524 667 582 635 b 681 549 644 588 664 569 l 583 458 b 538 503 571 475 556 490 b 403 549 506 525 463 549 b 194 333 285 549 194 460 b 403 118 194 207 285 118 b 540 167 463 118 508 140 b 590 215 558 181 575 197 l 688 125 b 626 64 671 103 650 82 b 451 -10 586 32 529 0 l 451 -153 l 326 -153 "},"£":{"ha":757,"x_min":0,"x_max":0,"o":"m 56 139 b 153 236 121 139 153 171 l 153 389 l 63 389 l 63 514 l 153 514 l 153 674 b 458 986 153 863 276 986 b 656 926 546 986 611 956 b 722 868 682 910 704 890 l 625 771 b 583 808 614 785 600 797 b 458 847 556 829 514 847 b 292 674 360 847 292 779 l 292 514 l 563 514 l 563 389 l 292 389 l 292 236 b 274 161 292 201 283 176 b 257 139 269 151 264 144 l 729 139 l 729 0 l 56 0 "},"¤":{"ha":722,"x_min":0,"x_max":0,"o":"m 215 465 b 361 319 215 382 278 319 b 507 465 444 319 507 382 b 361 611 507 549 444 611 b 215 465 278 611 215 549 m 147 336 b 129 372 140 347 133 360 b 111 465 119 394 111 426 b 129 558 111 503 119 536 b 147 594 133 571 140 583 l 69 674 l 153 757 l 231 678 b 267 696 240 685 253 690 b 361 715 290 706 322 715 b 456 696 399 715 432 706 b 492 678 469 690 482 685 l 569 757 l 653 674 l 575 594 b 593 558 582 583 588 571 b 611 465 603 536 611 503 b 593 372 611 426 603 394 b 575 336 588 360 582 347 l 653 257 l 569 174 l 492 253 b 456 233 482 246 469 239 b 361 215 432 224 399 215 b 267 233 322 215 290 224 b 231 253 253 239 240 246 l 153 174 l 69 257 "},"¥":{"ha":903,"x_min":0,"x_max":0,"o":"m 160 264 l 375 264 l 375 347 l 160 347 l 160 465 l 306 465 l 7 972 l 181 972 l 451 500 l 722 972 l 896 972 l 597 465 l 743 465 l 743 347 l 528 347 l 528 264 l 743 264 l 743 146 l 528 146 l 528 0 l 375 0 l 375 146 l 160 146 "},"¦":{"ha":472,"x_min":0,"x_max":0,"o":"m 167 236 l 306 236 l 306 -292 l 167 -292 m 167 986 l 306 986 l 306 458 l 167 458 "},"§":{"ha":736,"x_min":0,"x_max":0,"o":"m 167 63 b 217 17 181 44 197 29 b 361 -28 250 -6 299 -28 b 493 69 451 -28 493 14 b 69 444 493 208 69 179 b 132 585 69 507 100 553 b 194 632 150 603 171 618 b 153 668 179 642 165 653 b 111 778 132 692 111 729 b 368 986 111 889 207 986 b 550 938 447 986 510 961 b 611 889 574 922 594 907 l 521 799 b 478 829 508 810 493 819 b 368 861 451 844 413 861 b 250 778 285 861 250 826 b 667 410 250 639 667 674 b 604 269 667 347 636 301 b 542 222 586 251 565 235 b 586 182 558 211 574 197 b 632 69 608 156 632 118 b 361 -153 632 -47 528 -153 b 146 -90 263 -153 194 -122 b 76 -28 118 -72 94 -51 m 208 444 b 322 329 208 390 265 356 b 438 292 356 314 394 301 b 482 317 454 299 469 307 b 528 410 504 335 528 364 b 413 525 528 461 469 499 b 299 563 379 540 342 553 b 253 538 281 556 265 547 b 208 444 231 519 208 489 "},"¨":{"ha":528,"x_min":0,"x_max":0,"o":"m 42 875 b 125 958 42 924 82 958 b 208 875 168 958 208 924 b 125 792 208 826 168 792 b 42 875 82 792 42 826 m 319 875 b 403 958 319 924 360 958 b 486 875 446 958 486 924 b 403 792 486 826 446 792 b 319 875 360 792 319 826 "},"©":{"ha":1194,"x_min":0,"x_max":0,"o":"m 597 83 b 1000 486 819 83 1000 264 b 597 889 1000 708 819 889 b 194 486 375 889 194 708 b 597 83 194 264 375 83 m 83 486 b 597 986 83 764 306 986 b 1111 486 889 986 1111 764 b 597 -14 1111 208 889 -14 b 83 486 306 -14 83 208 m 819 326 b 767 274 806 307 788 289 b 604 222 729 247 676 222 b 333 486 451 222 333 340 b 604 750 333 632 451 750 b 767 697 676 750 729 724 b 819 646 788 682 806 664 l 750 576 b 714 614 740 590 728 603 b 604 653 688 635 653 653 b 438 486 514 653 438 576 b 604 319 438 396 514 319 b 714 357 653 319 688 336 b 750 396 728 368 740 381 "},"ª":{"ha":472,"x_min":0,"x_max":0,"o":"m 319 618 b 288 583 311 606 300 593 b 188 549 265 565 232 549 b 49 667 104 549 49 604 b 181 799 49 738 97 782 l 319 826 b 236 903 319 869 285 903 b 158 875 201 903 175 890 b 132 847 149 867 139 857 l 69 903 b 108 944 79 918 93 932 b 236 986 135 965 176 986 b 417 819 347 986 417 918 l 417 563 l 319 563 m 319 757 l 194 729 b 146 678 167 724 146 701 b 208 625 146 646 165 625 b 319 743 264 625 319 681 "},"«":{"ha":701,"x_min":0,"x_max":0,"o":"m 56 333 l 222 569 l 368 569 l 201 333 l 368 97 l 222 97 m 333 333 l 500 569 l 646 569 l 479 333 l 646 97 l 500 97 "},"¬":{"ha":653,"x_min":0,"x_max":0,"o":"m 56 556 l 597 556 l 597 243 l 458 243 l 458 431 l 56 431 "},"­":{"ha":569,"x_min":0,"x_max":0,"o":"m 63 472 l 507 472 l 507 347 l 63 347 "},"®":{"ha":1194,"x_min":0,"x_max":0,"o":"m 417 743 l 625 743 b 806 576 729 743 806 667 b 757 468 806 522 781 490 b 708 438 742 456 726 444 l 826 229 l 715 229 l 618 410 l 521 410 l 521 229 l 417 229 m 625 507 b 701 576 674 507 701 533 b 625 646 701 619 674 646 l 521 646 l 521 507 m 597 83 b 1000 486 819 83 1000 264 b 597 889 1000 708 819 889 b 194 486 375 889 194 708 b 597 83 194 264 375 83 m 83 486 b 597 986 83 764 306 986 b 1111 486 889 986 1111 764 b 597 -14 1111 208 889 -14 b 83 486 306 -14 83 208 "},"¯":{"ha":500,"x_min":0,"x_max":0,"o":"m 42 972 l 458 972 l 458 875 l 42 875 "},"°":{"ha":500,"x_min":0,"x_max":0,"o":"m 49 792 b 250 986 49 896 139 986 b 451 792 361 986 451 896 b 250 597 451 688 361 597 b 49 792 139 597 49 688 m 153 792 b 250 694 153 736 194 694 b 347 792 306 694 347 736 b 250 889 347 847 306 889 b 153 792 194 889 153 847 "},"±":{"ha":715,"x_min":0,"x_max":0,"o":"m 49 597 l 299 597 l 299 847 l 417 847 l 417 597 l 667 597 l 667 472 l 417 472 l 417 222 l 299 222 l 299 472 l 49 472 m 49 139 l 667 139 l 667 14 l 49 14 "},"²":{"ha":424,"x_min":0,"x_max":0,"o":"m 42 639 b 278 965 42 847 278 861 b 208 1028 278 1000 251 1028 b 146 996 181 1028 161 1011 b 125 965 138 986 131 976 l 42 993 b 72 1056 47 1017 57 1038 b 208 1118 96 1088 138 1118 b 375 965 314 1118 375 1056 b 160 722 375 832 222 800 l 375 722 l 375 625 l 42 625 "},"³":{"ha":431,"x_min":0,"x_max":0,"o":"m 76 757 b 107 732 86 747 96 739 b 194 708 128 719 156 708 b 285 771 257 708 285 736 b 194 833 285 806 257 833 l 139 833 l 139 924 l 194 924 b 264 972 243 924 264 944 b 194 1028 264 1010 240 1028 b 119 1003 163 1028 138 1015 b 90 979 110 996 100 988 l 28 1042 b 69 1079 39 1056 53 1068 b 194 1118 97 1100 139 1118 b 361 979 300 1118 361 1057 b 333 904 361 944 349 919 b 306 882 325 894 315 888 b 343 857 319 875 332 867 b 382 764 364 839 382 808 b 194 618 382 686 313 618 b 57 656 132 618 86 635 b 14 694 40 667 26 679 "},"´":{"ha":333,"x_min":0,"x_max":0,"o":"m 146 972 l 292 972 l 146 778 l 42 778 "},"µ":{"ha":813,"x_min":0,"x_max":0,"o":"m 97 667 l 236 667 l 236 278 b 389 118 236 179 299 118 b 556 292 488 118 556 186 l 556 667 l 694 667 l 694 174 b 743 118 694 139 715 118 b 768 121 753 118 761 119 l 778 125 l 778 -7 l 764 -11 b 729 -14 754 -12 744 -14 b 600 42 663 -14 624 14 b 569 97 586 58 576 76 b 517 42 554 76 538 58 b 361 -14 482 14 432 -14 b 267 3 318 -14 288 -7 b 236 21 254 7 244 14 l 236 -292 l 97 -292 "},"¶":{"ha":799,"x_min":0,"x_max":0,"o":"m 292 500 b 56 736 158 500 56 603 b 292 972 56 869 158 972 l 674 972 l 674 -139 l 549 -139 l 549 840 l 417 840 l 417 -139 l 292 -139 "},"·":{"ha":292,"x_min":0,"x_max":0,"o":"m 146 257 b 56 347 97 257 56 299 b 146 438 56 396 97 438 b 236 347 194 438 236 396 b 146 257 236 299 194 257 "},"¸":{"ha":354,"x_min":0,"x_max":0,"o":"m 76 -187 b 104 -206 85 -194 94 -201 b 174 -222 121 -215 146 -222 b 229 -176 208 -222 229 -203 b 181 -132 229 -153 208 -132 b 149 -139 165 -132 156 -135 l 139 -146 l 97 -104 l 160 28 l 250 28 l 201 -69 b 257 -86 222 -71 240 -76 b 313 -181 285 -101 313 -129 b 174 -299 313 -243 264 -299 b 76 -275 131 -299 99 -287 b 42 -250 64 -268 51 -260 "},"¹":{"ha":326,"x_min":0,"x_max":0,"o":"m 146 972 l 56 972 l 56 1049 b 167 1111 118 1049 160 1083 l 243 1111 l 243 625 l 146 625 "},"º":{"ha":528,"x_min":0,"x_max":0,"o":"m 42 763 b 264 986 42 889 139 986 b 486 763 389 986 486 889 b 264 542 486 640 389 542 b 42 763 139 542 42 640 m 146 764 b 264 639 146 693 193 639 b 382 764 335 639 382 693 b 264 889 382 835 335 889 b 146 764 193 889 146 835 "},"»":{"ha":701,"x_min":0,"x_max":0,"o":"m 500 333 l 333 569 l 479 569 l 646 333 l 479 97 l 333 97 m 222 333 l 56 569 l 201 569 l 368 333 l 201 97 l 56 97 "},"¼":{"ha":951,"x_min":0,"x_max":0,"o":"m 688 972 l 813 972 l 208 0 l 83 0 m 132 833 l 42 833 l 42 910 b 153 972 104 910 146 944 l 229 972 l 229 486 l 132 486 m 528 194 l 743 486 l 854 486 l 854 194 l 910 194 l 910 97 l 854 97 l 854 0 l 757 0 l 757 97 l 528 97 m 757 194 l 757 361 l 632 194 "},"½":{"ha":993,"x_min":0,"x_max":0,"o":"m 688 972 l 813 972 l 208 0 l 83 0 m 132 833 l 42 833 l 42 910 b 153 972 104 910 146 944 l 229 972 l 229 486 l 132 486 m 604 14 b 840 340 604 222 840 236 b 771 403 840 375 814 403 b 708 371 743 403 724 386 b 688 340 700 361 693 351 l 604 368 b 635 431 610 392 619 413 b 771 493 658 463 700 493 b 938 340 876 493 938 431 b 722 97 938 207 785 175 l 938 97 l 938 0 l 604 0 "},"¾":{"ha":1035,"x_min":0,"x_max":0,"o":"m 771 972 l 896 972 l 292 0 l 167 0 m 90 618 b 121 593 100 608 110 600 b 208 569 142 581 169 569 b 299 632 271 569 299 597 b 208 694 299 667 271 694 l 153 694 l 153 785 l 208 785 b 278 833 257 785 278 806 b 208 889 278 871 254 889 b 133 864 176 889 151 876 b 104 840 124 857 114 849 l 42 903 b 83 940 53 917 67 929 b 208 979 111 961 153 979 b 375 840 314 979 375 918 b 347 765 375 806 363 781 b 319 743 339 756 329 749 b 357 718 333 736 346 728 b 396 625 378 700 396 669 b 208 479 396 547 326 479 b 71 517 146 479 100 496 b 28 556 54 528 40 540 m 611 194 l 826 486 l 938 486 l 938 194 l 993 194 l 993 97 l 938 97 l 938 0 l 840 0 l 840 97 l 611 97 m 840 194 l 840 361 l 715 194 "},"¿":{"ha":646,"x_min":0,"x_max":0,"o":"m 674 -76 b 613 -192 661 -119 640 -158 b 347 -306 564 -249 482 -306 b 28 -42 151 -306 28 -181 b 299 396 28 222 299 194 l 299 403 l 438 403 l 440 385 b 444 340 442 374 444 357 b 181 -28 444 139 181 138 b 347 -167 181 -106 242 -167 b 508 -97 426 -167 476 -132 b 549 -28 526 -76 539 -54 m 278 590 b 368 681 278 639 319 681 b 458 590 417 681 458 639 b 368 500 458 542 417 500 b 278 590 319 500 278 542 "},"À":{"ha":972,"x_min":0,"x_max":0,"o":"m 403 972 l 569 972 l 958 0 l 799 0 l 701 250 l 271 250 l 174 0 l 14 0 m 646 389 l 486 792 l 326 389 m 278 1292 l 424 1292 l 528 1097 l 424 1097 "},"Á":{"ha":972,"x_min":0,"x_max":0,"o":"m 403 972 l 569 972 l 958 0 l 799 0 l 701 250 l 271 250 l 174 0 l 14 0 m 646 389 l 486 792 l 326 389 m 542 1292 l 688 1292 l 542 1097 l 438 1097 "},"Â":{"ha":972,"x_min":0,"x_max":0,"o":"m 403 972 l 569 972 l 958 0 l 799 0 l 701 250 l 271 250 l 174 0 l 14 0 m 646 389 l 486 792 l 326 389 m 424 1292 l 549 1292 l 708 1097 l 583 1097 l 486 1215 l 389 1097 l 264 1097 "},"Ã":{"ha":972,"x_min":0,"x_max":0,"o":"m 403 972 l 569 972 l 958 0 l 799 0 l 701 250 l 271 250 l 174 0 l 14 0 m 646 389 l 486 792 l 326 389 m 257 1097 b 396 1285 257 1231 313 1285 b 576 1201 486 1285 521 1201 b 632 1285 611 1201 632 1222 l 722 1285 b 583 1097 722 1151 667 1097 b 403 1181 493 1097 458 1181 b 347 1097 368 1181 347 1160 "},"Ä":{"ha":972,"x_min":0,"x_max":0,"o":"m 403 972 l 569 972 l 958 0 l 799 0 l 701 250 l 271 250 l 174 0 l 14 0 m 646 389 l 486 792 l 326 389 m 264 1181 b 347 1264 264 1229 304 1264 b 431 1181 390 1264 431 1229 b 347 1097 431 1132 390 1097 b 264 1181 304 1097 264 1132 m 542 1181 b 625 1264 542 1229 582 1264 b 708 1181 668 1264 708 1229 b 625 1097 708 1132 668 1097 b 542 1181 582 1097 542 1132 "},"Å":{"ha":972,"x_min":0,"x_max":0,"o":"m 403 972 l 569 972 l 958 0 l 799 0 l 701 250 l 271 250 l 174 0 l 14 0 m 646 389 l 486 792 l 326 389 m 340 1208 b 486 1347 340 1285 403 1347 b 632 1208 569 1347 632 1285 b 486 1069 632 1132 569 1069 b 340 1208 403 1069 340 1132 m 549 1208 b 486 1271 549 1243 521 1271 b 424 1208 451 1271 424 1243 b 486 1146 424 1174 451 1146 b 549 1208 521 1146 549 1174 "},"Æ":{"ha":1354,"x_min":0,"x_max":0,"o":"m 507 972 l 1278 972 l 1278 826 l 799 826 l 799 576 l 1167 576 l 1167 431 l 799 431 l 799 146 l 1292 146 l 1292 0 l 646 0 l 646 264 l 278 264 l 132 0 l -35 0 m 646 403 l 646 826 l 590 826 l 354 403 "},"Ç":{"ha":1035,"x_min":0,"x_max":0,"o":"m 465 -187 b 493 -206 474 -194 483 -201 b 563 -222 510 -215 535 -222 b 618 -176 597 -222 618 -203 b 569 -132 618 -153 597 -132 b 538 -139 554 -132 544 -135 l 528 -146 l 486 -104 l 528 -14 b 76 486 272 26 76 224 b 590 986 76 764 299 986 b 888 892 724 986 821 940 b 986 799 925 864 958 833 l 889 701 b 815 774 869 728 844 753 b 590 847 765 811 690 847 b 229 486 389 847 229 688 b 590 125 229 285 389 125 b 818 201 690 125 767 163 b 896 278 849 224 875 249 l 993 181 b 897 89 967 147 935 117 b 618 -14 832 40 740 -7 l 590 -69 b 646 -86 611 -71 629 -76 b 701 -181 674 -101 701 -129 b 563 -299 701 -243 653 -299 b 465 -275 519 -299 488 -287 b 431 -250 453 -268 440 -260 "},"È":{"ha":903,"x_min":0,"x_max":0,"o":"m 139 972 l 826 972 l 826 826 l 292 826 l 292 576 l 715 576 l 715 431 l 292 431 l 292 146 l 840 146 l 840 0 l 139 0 m 299 1292 l 444 1292 l 549 1097 l 444 1097 "},"É":{"ha":903,"x_min":0,"x_max":0,"o":"m 139 972 l 826 972 l 826 826 l 292 826 l 292 576 l 715 576 l 715 431 l 292 431 l 292 146 l 840 146 l 840 0 l 139 0 m 542 1292 l 688 1292 l 542 1097 l 438 1097 "},"Ê":{"ha":903,"x_min":0,"x_max":0,"o":"m 139 972 l 826 972 l 826 826 l 292 826 l 292 576 l 715 576 l 715 431 l 292 431 l 292 146 l 840 146 l 840 0 l 139 0 m 431 1292 l 556 1292 l 715 1097 l 590 1097 l 493 1215 l 396 1097 l 271 1097 "},"Ë":{"ha":903,"x_min":0,"x_max":0,"o":"m 139 972 l 826 972 l 826 826 l 292 826 l 292 576 l 715 576 l 715 431 l 292 431 l 292 146 l 840 146 l 840 0 l 139 0 m 271 1181 b 354 1264 271 1229 311 1264 b 438 1181 397 1264 438 1229 b 354 1097 438 1132 397 1097 b 271 1181 311 1097 271 1132 m 549 1181 b 632 1264 549 1229 589 1264 b 715 1181 675 1264 715 1229 b 632 1097 715 1132 675 1097 b 549 1181 589 1097 549 1132 "},"Ì":{"ha":431,"x_min":0,"x_max":0,"o":"m 139 972 l 292 972 l 292 0 l 139 0 m 14 1292 l 160 1292 l 264 1097 l 160 1097 "},"Í":{"ha":431,"x_min":0,"x_max":0,"o":"m 139 972 l 292 972 l 292 0 l 139 0 m 278 1292 l 424 1292 l 278 1097 l 174 1097 "},"Î":{"ha":431,"x_min":0,"x_max":0,"o":"m 139 972 l 292 972 l 292 0 l 139 0 m 153 1292 l 278 1292 l 438 1097 l 313 1097 l 215 1215 l 118 1097 l -7 1097 "},"Ï":{"ha":431,"x_min":0,"x_max":0,"o":"m 139 972 l 292 972 l 292 0 l 139 0 m -7 1181 b 76 1264 -7 1229 33 1264 b 160 1181 119 1264 160 1229 b 76 1097 160 1132 119 1097 b -7 1181 33 1097 -7 1132 m 271 1181 b 354 1264 271 1229 311 1264 b 438 1181 397 1264 438 1229 b 354 1097 438 1132 397 1097 b 271 1181 311 1097 271 1132 "},"Ð":{"ha":1063,"x_min":0,"x_max":0,"o":"m 153 417 l 28 417 l 28 556 l 153 556 l 153 972 l 479 972 b 986 486 764 972 986 749 b 479 0 986 224 764 0 l 153 0 m 479 139 b 833 486 681 139 833 292 b 479 833 833 681 681 833 l 306 833 l 306 556 l 521 556 l 521 417 l 306 417 l 306 139 "},"Ñ":{"ha":1104,"x_min":0,"x_max":0,"o":"m 139 972 l 278 972 l 813 257 l 813 972 l 965 972 l 965 0 l 826 0 l 292 715 l 292 0 l 139 0 m 319 1097 b 458 1285 319 1231 375 1285 b 639 1201 549 1285 583 1201 b 694 1285 674 1201 694 1222 l 785 1285 b 646 1097 785 1151 729 1097 b 465 1181 556 1097 521 1181 b 410 1097 431 1181 410 1160 "},"Ò":{"ha":1181,"x_min":0,"x_max":0,"o":"m 229 486 b 590 125 229 285 389 125 b 951 486 792 125 951 285 b 590 847 951 688 792 847 b 229 486 389 847 229 688 m 76 486 b 590 986 76 764 299 986 b 1104 486 882 986 1104 764 b 590 -14 1104 208 882 -14 b 76 486 299 -14 76 208 m 394 1292 l 540 1292 l 644 1097 l 540 1097 "},"Ó":{"ha":1181,"x_min":0,"x_max":0,"o":"m 229 486 b 590 125 229 285 389 125 b 951 486 792 125 951 285 b 590 847 951 688 792 847 b 229 486 389 847 229 688 m 76 486 b 590 986 76 764 299 986 b 1104 486 882 986 1104 764 b 590 -14 1104 208 882 -14 b 76 486 299 -14 76 208 m 638 1292 l 783 1292 l 638 1097 l 533 1097 "},"Ô":{"ha":1181,"x_min":0,"x_max":0,"o":"m 229 486 b 590 125 229 285 389 125 b 951 486 792 125 951 285 b 590 847 951 688 792 847 b 229 486 389 847 229 688 m 76 486 b 590 986 76 764 299 986 b 1104 486 882 986 1104 764 b 590 -14 1104 208 882 -14 b 76 486 299 -14 76 208 m 526 1292 l 651 1292 l 811 1097 l 686 1097 l 589 1215 l 492 1097 l 367 1097 "},"Õ":{"ha":1181,"x_min":0,"x_max":0,"o":"m 229 486 b 590 125 229 285 389 125 b 951 486 792 125 951 285 b 590 847 951 688 792 847 b 229 486 389 847 229 688 m 76 486 b 590 986 76 764 299 986 b 1104 486 882 986 1104 764 b 590 -14 1104 208 882 -14 b 76 486 299 -14 76 208 m 357 1097 b 496 1285 357 1231 413 1285 b 676 1201 586 1285 621 1201 b 732 1285 711 1201 732 1222 l 822 1285 b 683 1097 822 1151 767 1097 b 503 1181 593 1097 558 1181 b 447 1097 468 1181 447 1160 "},"Ö":{"ha":1181,"x_min":0,"x_max":0,"o":"m 229 486 b 590 125 229 285 389 125 b 951 486 792 125 951 285 b 590 847 951 688 792 847 b 229 486 389 847 229 688 m 76 486 b 590 986 76 764 299 986 b 1104 486 882 986 1104 764 b 590 -14 1104 208 882 -14 b 76 486 299 -14 76 208 m 368 1181 b 451 1264 368 1229 408 1264 b 535 1181 494 1264 535 1229 b 451 1097 535 1132 494 1097 b 368 1181 408 1097 368 1132 m 646 1181 b 729 1264 646 1229 686 1264 b 813 1181 772 1264 813 1229 b 729 1097 813 1132 772 1097 b 646 1181 686 1097 646 1132 "},"×":{"ha":694,"x_min":0,"x_max":0,"o":"m 264 431 l 76 618 l 160 701 l 347 514 l 535 701 l 618 618 l 431 431 l 618 243 l 535 160 l 347 347 l 160 160 l 76 243 "},"Ø":{"ha":1181,"x_min":0,"x_max":0,"o":"m 799 785 b 739 815 781 796 761 806 b 590 847 701 831 650 847 b 229 486 389 847 229 688 b 260 339 229 424 244 374 b 292 285 269 318 279 300 m 181 181 b 128 263 161 204 143 232 b 76 486 101 317 76 392 b 590 986 76 764 299 986 b 817 938 685 986 763 961 b 903 889 849 922 876 907 l 1028 1014 l 1125 917 l 1000 792 b 1051 710 1018 768 1036 740 b 1104 486 1078 656 1104 581 b 590 -14 1104 208 882 -14 b 364 35 496 -14 418 8 b 278 83 332 49 304 65 l 153 -42 l 56 56 m 382 188 b 442 156 400 175 419 165 b 590 125 479 140 531 125 b 951 486 792 125 951 285 b 919 633 951 549 935 599 b 889 688 910 654 900 672 "},"Ù":{"ha":1069,"x_min":0,"x_max":0,"o":"m 125 972 l 278 972 l 278 389 b 535 125 278 236 389 125 b 792 389 674 125 792 243 l 792 972 l 944 972 l 944 389 b 535 -14 944 153 778 -14 b 125 389 292 -14 125 153 m 340 1292 l 486 1292 l 590 1097 l 486 1097 "},"Ú":{"ha":1069,"x_min":0,"x_max":0,"o":"m 125 972 l 278 972 l 278 389 b 535 125 278 236 389 125 b 792 389 674 125 792 243 l 792 972 l 944 972 l 944 389 b 535 -14 944 153 778 -14 b 125 389 292 -14 125 153 m 583 1292 l 729 1292 l 583 1097 l 479 1097 "},"Û":{"ha":1069,"x_min":0,"x_max":0,"o":"m 125 972 l 278 972 l 278 389 b 535 125 278 236 389 125 b 792 389 674 125 792 243 l 792 972 l 944 972 l 944 389 b 535 -14 944 153 778 -14 b 125 389 292 -14 125 153 m 472 1292 l 597 1292 l 757 1097 l 632 1097 l 535 1215 l 438 1097 l 313 1097 "},"Ü":{"ha":1069,"x_min":0,"x_max":0,"o":"m 125 972 l 278 972 l 278 389 b 535 125 278 236 389 125 b 792 389 674 125 792 243 l 792 972 l 944 972 l 944 389 b 535 -14 944 153 778 -14 b 125 389 292 -14 125 153 m 313 1181 b 396 1264 313 1229 353 1264 b 479 1181 439 1264 479 1229 b 396 1097 479 1132 439 1097 b 313 1181 353 1097 313 1132 m 590 1181 b 674 1264 590 1229 631 1264 b 757 1181 717 1264 757 1229 b 674 1097 757 1132 717 1097 b 590 1181 631 1097 590 1132 "},"Ý":{"ha":903,"x_min":0,"x_max":0,"o":"m 375 347 l 7 972 l 181 972 l 451 500 l 722 972 l 896 972 l 528 347 l 528 0 l 375 0 m 500 1292 l 646 1292 l 500 1097 l 396 1097 "},"Þ":{"ha":1007,"x_min":0,"x_max":0,"o":"m 139 972 l 292 972 l 292 799 l 611 799 b 944 500 813 799 944 667 b 611 201 944 333 813 201 l 292 201 l 292 0 l 139 0 m 611 340 b 792 500 722 340 792 410 b 611 660 792 590 722 660 l 292 660 l 292 340 "},"ß":{"ha":819,"x_min":0,"x_max":0,"o":"m 97 694 b 396 986 97 868 215 986 b 688 722 563 986 688 861 b 635 579 688 656 661 611 b 583 535 619 561 601 547 b 669 481 615 521 644 503 b 757 292 713 442 757 382 b 444 0 757 125 633 0 l 375 0 l 375 139 l 444 139 b 618 292 549 139 618 207 b 444 444 618 374 549 444 l 375 444 l 375 583 l 396 583 b 549 722 486 583 549 644 b 396 854 549 792 486 854 b 236 694 297 854 236 793 l 236 0 l 97 0 "},"à":{"ha":722,"x_min":0,"x_max":0,"o":"m 486 97 b 433 42 472 76 454 58 b 271 -14 396 14 343 -14 b 49 181 138 -14 49 76 b 243 389 49 292 125 368 l 486 431 b 347 556 486 501 431 556 b 221 510 293 556 253 532 b 174 465 203 497 188 482 l 83 556 b 150 618 101 579 124 600 b 347 681 194 650 258 681 b 625 424 514 681 625 569 l 625 0 l 486 0 m 486 319 l 292 285 b 188 194 221 272 188 238 b 299 104 188 146 228 104 b 486 299 403 104 486 188 m 167 972 l 313 972 l 417 778 l 313 778 "},"á":{"ha":722,"x_min":0,"x_max":0,"o":"m 486 97 b 433 42 472 76 454 58 b 271 -14 396 14 343 -14 b 49 181 138 -14 49 76 b 243 389 49 292 125 368 l 486 431 b 347 556 486 501 431 556 b 221 510 293 556 253 532 b 174 465 203 497 188 482 l 83 556 b 150 618 101 579 124 600 b 347 681 194 650 258 681 b 625 424 514 681 625 569 l 625 0 l 486 0 m 486 319 l 292 285 b 188 194 221 272 188 238 b 299 104 188 146 228 104 b 486 299 403 104 486 188 m 424 972 l 569 972 l 424 778 l 319 778 "},"â":{"ha":722,"x_min":0,"x_max":0,"o":"m 486 97 b 433 42 472 76 454 58 b 271 -14 396 14 343 -14 b 49 181 138 -14 49 76 b 243 389 49 292 125 368 l 486 431 b 347 556 486 501 431 556 b 221 510 293 556 253 532 b 174 465 203 497 188 482 l 83 556 b 150 618 101 579 124 600 b 347 681 194 650 258 681 b 625 424 514 681 625 569 l 625 0 l 486 0 m 486 319 l 292 285 b 188 194 221 272 188 238 b 299 104 188 146 228 104 b 486 299 403 104 486 188 m 306 972 l 431 972 l 590 778 l 465 778 l 368 896 l 271 778 l 146 778 "},"ã":{"ha":722,"x_min":0,"x_max":0,"o":"m 486 97 b 433 42 472 76 454 58 b 271 -14 396 14 343 -14 b 49 181 138 -14 49 76 b 243 389 49 292 125 368 l 486 431 b 347 556 486 501 431 556 b 221 510 293 556 253 532 b 174 465 203 497 188 482 l 83 556 b 150 618 101 579 124 600 b 347 681 194 650 258 681 b 625 424 514 681 625 569 l 625 0 l 486 0 m 486 319 l 292 285 b 188 194 221 272 188 238 b 299 104 188 146 228 104 b 486 299 403 104 486 188 m 139 785 b 278 972 139 918 194 972 b 458 889 368 972 403 889 b 514 972 493 889 514 910 l 604 972 b 465 785 604 839 549 785 b 285 868 375 785 340 868 b 229 785 250 868 229 847 "},"ä":{"ha":722,"x_min":0,"x_max":0,"o":"m 486 97 b 433 42 472 76 454 58 b 271 -14 396 14 343 -14 b 49 181 138 -14 49 76 b 243 389 49 292 125 368 l 486 431 b 347 556 486 501 431 556 b 221 510 293 556 253 532 b 174 465 203 497 188 482 l 83 556 b 150 618 101 579 124 600 b 347 681 194 650 258 681 b 625 424 514 681 625 569 l 625 0 l 486 0 m 486 319 l 292 285 b 188 194 221 272 188 238 b 299 104 188 146 228 104 b 486 299 403 104 486 188 m 146 875 b 229 958 146 924 186 958 b 313 875 272 958 313 924 b 229 792 313 826 272 792 b 146 875 186 792 146 826 m 424 875 b 507 958 424 924 464 958 b 590 875 550 958 590 924 b 507 792 590 826 550 792 b 424 875 464 792 424 826 "},"å":{"ha":722,"x_min":0,"x_max":0,"o":"m 486 97 b 433 42 472 76 454 58 b 271 -14 396 14 343 -14 b 49 181 138 -14 49 76 b 243 389 49 292 125 368 l 486 431 b 347 556 486 501 431 556 b 221 510 293 556 253 532 b 174 465 203 497 188 482 l 83 556 b 150 618 101 579 124 600 b 347 681 194 650 258 681 b 625 424 514 681 625 569 l 625 0 l 486 0 m 486 319 l 292 285 b 188 194 221 272 188 238 b 299 104 188 146 228 104 b 486 299 403 104 486 188 m 222 889 b 368 1028 222 965 285 1028 b 514 889 451 1028 514 965 b 368 750 514 813 451 750 b 222 889 285 750 222 813 m 431 889 b 368 951 431 924 403 951 b 306 889 333 951 306 924 b 368 826 306 854 333 826 b 431 889 403 826 431 854 "},"æ":{"ha":1194,"x_min":0,"x_max":0,"o":"m 83 556 b 150 618 101 579 124 600 b 347 681 194 650 258 681 b 515 621 425 681 478 650 b 569 563 536 604 554 585 b 632 621 588 585 608 604 b 819 681 675 650 736 681 b 1139 354 1001 681 1139 543 b 1135 304 1139 333 1136 317 l 1132 285 l 632 285 b 833 118 647 194 728 118 b 968 163 889 118 935 140 b 1021 208 988 175 1006 190 l 1104 111 b 1036 49 1086 88 1063 67 b 826 -14 990 17 921 -14 b 624 58 736 -14 668 21 b 556 132 597 79 574 104 b 492 58 538 104 517 79 b 299 -14 449 21 386 -14 b 49 194 139 -14 49 76 b 340 403 49 306 146 403 l 486 403 b 347 556 486 501 431 556 b 221 510 293 556 253 532 b 174 465 203 497 188 482 m 993 403 b 819 556 972 493 910 556 b 632 403 721 556 660 493 m 340 292 b 188 194 229 292 188 250 b 299 104 188 146 228 104 b 486 292 403 104 486 188 "},"ç":{"ha":722,"x_min":0,"x_max":0,"o":"m 285 -187 b 313 -206 293 -194 303 -201 b 382 -222 329 -215 354 -222 b 438 -176 417 -222 438 -203 b 389 -132 438 -153 417 -132 b 357 -139 374 -132 364 -135 l 347 -146 l 306 -104 l 347 -14 b 56 333 186 13 56 147 b 403 681 56 528 208 681 b 613 614 497 681 567 647 b 681 549 639 594 663 572 l 583 458 b 538 503 571 475 556 490 b 403 549 506 525 463 549 b 194 333 285 549 194 460 b 403 118 194 207 285 118 b 540 167 463 118 508 140 b 590 215 558 181 575 197 l 688 125 b 622 61 669 101 647 81 b 438 -14 579 28 517 -7 l 410 -69 b 465 -86 431 -71 449 -76 b 521 -181 493 -101 521 -129 b 382 -299 521 -243 472 -299 b 285 -275 339 -299 307 -287 b 250 -250 272 -268 260 -260 "},"è":{"ha":778,"x_min":0,"x_max":0,"o":"m 688 111 b 618 49 669 88 646 67 b 403 -14 569 17 501 -14 b 56 333 208 -14 56 139 b 396 681 56 528 208 681 b 722 354 585 681 722 543 b 718 304 722 333 719 317 l 715 285 l 201 285 b 410 118 217 194 297 118 b 551 163 469 118 518 140 b 604 208 571 175 589 190 m 576 403 b 396 556 556 493 494 556 b 201 403 290 556 229 493 m 194 972 l 340 972 l 444 778 l 340 778 "},"é":{"ha":778,"x_min":0,"x_max":0,"o":"m 688 111 b 618 49 669 88 646 67 b 403 -14 569 17 501 -14 b 56 333 208 -14 56 139 b 396 681 56 528 208 681 b 722 354 585 681 722 543 b 718 304 722 333 719 317 l 715 285 l 201 285 b 410 118 217 194 297 118 b 551 163 469 118 518 140 b 604 208 571 175 589 190 m 576 403 b 396 556 556 493 494 556 b 201 403 290 556 229 493 m 438 972 l 583 972 l 438 778 l 333 778 "},"ê":{"ha":778,"x_min":0,"x_max":0,"o":"m 688 111 b 618 49 669 88 646 67 b 403 -14 569 17 501 -14 b 56 333 208 -14 56 139 b 396 681 56 528 208 681 b 722 354 585 681 722 543 b 718 304 722 333 719 317 l 715 285 l 201 285 b 410 118 217 194 297 118 b 551 163 469 118 518 140 b 604 208 571 175 589 190 m 576 403 b 396 556 556 493 494 556 b 201 403 290 556 229 493 m 333 972 l 458 972 l 618 778 l 493 778 l 396 896 l 299 778 l 174 778 "},"ë":{"ha":778,"x_min":0,"x_max":0,"o":"m 688 111 b 618 49 669 88 646 67 b 403 -14 569 17 501 -14 b 56 333 208 -14 56 139 b 396 681 56 528 208 681 b 722 354 585 681 722 543 b 718 304 722 333 719 317 l 715 285 l 201 285 b 410 118 217 194 297 118 b 551 163 469 118 518 140 b 604 208 571 175 589 190 m 576 403 b 396 556 556 493 494 556 b 201 403 290 556 229 493 m 174 875 b 257 958 174 924 214 958 b 340 875 300 958 340 924 b 257 792 340 826 300 792 b 174 875 214 792 174 826 m 451 875 b 535 958 451 924 492 958 b 618 875 578 958 618 924 b 535 792 618 826 578 792 b 451 875 492 792 451 826 "},"ì":{"ha":347,"x_min":0,"x_max":0,"o":"m 104 667 l 243 667 l 243 0 l 104 0 m -28 972 l 118 972 l 222 778 l 118 778 "},"í":{"ha":347,"x_min":0,"x_max":0,"o":"m 104 667 l 243 667 l 243 0 l 104 0 m 229 972 l 375 972 l 229 778 l 125 778 "},"î":{"ha":347,"x_min":0,"x_max":0,"o":"m 104 667 l 243 667 l 243 0 l 104 0 m 111 972 l 236 972 l 396 778 l 271 778 l 174 896 l 76 778 l -49 778 "},"ï":{"ha":347,"x_min":0,"x_max":0,"o":"m 104 667 l 243 667 l 243 0 l 104 0 m -49 875 b 35 958 -49 924 -8 958 b 118 875 78 958 118 924 b 35 792 118 826 78 792 b -49 875 -8 792 -49 826 m 229 875 b 313 958 229 924 269 958 b 396 875 356 958 396 924 b 313 792 396 826 356 792 b 229 875 269 792 229 826 "},"ð":{"ha":819,"x_min":0,"x_max":0,"o":"m 181 833 l 333 910 b 289 950 319 924 304 938 b 188 1021 263 972 225 1000 l 313 1076 b 407 1006 350 1050 383 1026 b 444 972 421 994 433 983 l 583 1042 l 653 972 l 514 903 b 632 756 557 861 597 813 b 750 347 690 661 750 521 b 403 -14 750 139 597 -14 b 56 319 208 -14 56 138 b 389 653 56 501 207 653 b 522 628 451 653 494 640 b 563 604 539 621 553 613 l 569 604 b 471 772 549 669 508 729 b 403 842 450 797 426 821 l 250 764 m 194 319 b 403 118 194 208 285 118 b 611 319 521 118 611 208 b 403 521 611 431 521 521 b 194 319 285 521 194 431 "},"ñ":{"ha":806,"x_min":0,"x_max":0,"o":"m 97 667 l 236 667 l 236 569 b 288 625 250 590 267 608 b 444 681 322 653 374 681 b 708 389 597 681 708 571 l 708 0 l 569 0 l 569 389 b 417 549 569 488 507 549 b 236 361 313 549 236 472 l 236 0 l 97 0 m 181 785 b 319 972 181 918 236 972 b 500 889 410 972 444 889 b 556 972 535 889 556 910 l 646 972 b 507 785 646 839 590 785 b 326 868 417 785 382 868 b 271 785 292 868 271 847 "},"ò":{"ha":806,"x_min":0,"x_max":0,"o":"m 56 333 b 403 681 56 528 208 681 b 750 333 597 681 750 528 b 403 -14 750 139 597 -14 b 56 333 208 -14 56 139 m 403 118 b 611 333 521 118 611 207 b 403 549 611 460 521 549 b 194 333 285 549 194 460 b 403 118 194 207 285 118 m 208 972 l 354 972 l 458 778 l 354 778 "},"ó":{"ha":806,"x_min":0,"x_max":0,"o":"m 56 333 b 403 681 56 528 208 681 b 750 333 597 681 750 528 b 403 -14 750 139 597 -14 b 56 333 208 -14 56 139 m 403 118 b 611 333 521 118 611 207 b 403 549 611 460 521 549 b 194 333 285 549 194 460 b 403 118 194 207 285 118 m 451 972 l 597 972 l 451 778 l 347 778 "},"ô":{"ha":806,"x_min":0,"x_max":0,"o":"m 56 333 b 403 681 56 528 208 681 b 750 333 597 681 750 528 b 403 -14 750 139 597 -14 b 56 333 208 -14 56 139 m 403 118 b 611 333 521 118 611 207 b 403 549 611 460 521 549 b 194 333 285 549 194 460 b 403 118 194 207 285 118 m 340 972 l 465 972 l 625 778 l 500 778 l 403 896 l 306 778 l 181 778 "},"õ":{"ha":806,"x_min":0,"x_max":0,"o":"m 56 333 b 403 681 56 528 208 681 b 750 333 597 681 750 528 b 403 -14 750 139 597 -14 b 56 333 208 -14 56 139 m 403 118 b 611 333 521 118 611 207 b 403 549 611 460 521 549 b 194 333 285 549 194 460 b 403 118 194 207 285 118 m 174 785 b 313 972 174 918 229 972 b 493 889 403 972 438 889 b 549 972 528 889 549 910 l 639 972 b 500 785 639 839 583 785 b 319 868 410 785 375 868 b 264 785 285 868 264 847 "},"ö":{"ha":806,"x_min":0,"x_max":0,"o":"m 56 333 b 403 681 56 528 208 681 b 750 333 597 681 750 528 b 403 -14 750 139 597 -14 b 56 333 208 -14 56 139 m 403 118 b 611 333 521 118 611 207 b 403 549 611 460 521 549 b 194 333 285 549 194 460 b 403 118 194 207 285 118 m 181 875 b 264 958 181 924 221 958 b 347 875 307 958 347 924 b 264 792 347 826 307 792 b 181 875 221 792 181 826 m 458 875 b 542 958 458 924 499 958 b 625 875 585 958 625 924 b 542 792 625 826 585 792 b 458 875 499 792 458 826 "},"÷":{"ha":708,"x_min":0,"x_max":0,"o":"m 264 153 b 354 243 264 201 306 243 b 444 153 403 243 444 201 b 354 63 444 104 403 63 b 264 153 306 63 264 104 m 49 472 l 660 472 l 660 347 l 49 347 m 264 667 b 354 757 264 715 306 757 b 444 667 403 757 444 715 b 354 576 444 618 403 576 b 264 667 306 576 264 618 "},"ø":{"ha":806,"x_min":0,"x_max":0,"o":"m 507 521 b 478 535 497 526 488 531 b 403 549 460 542 435 549 b 194 333 290 549 194 465 b 208 256 194 299 201 272 b 222 229 213 246 217 236 m 125 125 b 90 182 113 142 100 161 b 56 333 72 219 56 271 b 403 681 56 528 208 681 b 544 649 463 681 511 664 b 597 618 564 639 582 629 l 681 708 l 764 632 l 681 542 b 715 485 693 525 706 506 b 750 333 732 447 750 396 b 403 -14 750 139 597 -14 b 261 17 343 -14 294 1 b 208 49 242 26 224 36 l 125 -42 l 42 35 m 299 146 b 328 132 308 140 318 136 b 403 118 346 125 371 118 b 611 333 515 118 611 201 b 597 411 611 368 604 393 b 583 438 593 421 589 431 "},"ù":{"ha":806,"x_min":0,"x_max":0,"o":"m 97 667 l 236 667 l 236 278 b 389 118 236 179 299 118 b 569 306 493 118 569 194 l 569 667 l 708 667 l 708 0 l 569 0 l 569 97 b 517 42 554 76 538 58 b 361 -14 482 14 432 -14 b 97 278 208 -14 97 96 m 201 972 l 347 972 l 451 778 l 347 778 "},"ú":{"ha":806,"x_min":0,"x_max":0,"o":"m 97 667 l 236 667 l 236 278 b 389 118 236 179 299 118 b 569 306 493 118 569 194 l 569 667 l 708 667 l 708 0 l 569 0 l 569 97 b 517 42 554 76 538 58 b 361 -14 482 14 432 -14 b 97 278 208 -14 97 96 m 458 972 l 604 972 l 458 778 l 354 778 "},"û":{"ha":806,"x_min":0,"x_max":0,"o":"m 97 667 l 236 667 l 236 278 b 389 118 236 179 299 118 b 569 306 493 118 569 194 l 569 667 l 708 667 l 708 0 l 569 0 l 569 97 b 517 42 554 76 538 58 b 361 -14 482 14 432 -14 b 97 278 208 -14 97 96 m 340 972 l 465 972 l 625 778 l 500 778 l 403 896 l 306 778 l 181 778 "},"ü":{"ha":806,"x_min":0,"x_max":0,"o":"m 97 667 l 236 667 l 236 278 b 389 118 236 179 299 118 b 569 306 493 118 569 194 l 569 667 l 708 667 l 708 0 l 569 0 l 569 97 b 517 42 554 76 538 58 b 361 -14 482 14 432 -14 b 97 278 208 -14 97 96 m 181 875 b 264 958 181 924 221 958 b 347 875 307 958 347 924 b 264 792 347 826 307 792 b 181 875 221 792 181 826 m 458 875 b 542 958 458 924 499 958 b 625 875 585 958 625 924 b 542 792 625 826 585 792 b 458 875 499 792 458 826 "},"ý":{"ha":708,"x_min":0,"x_max":0,"o":"m 56 -139 b 79 -150 63 -143 69 -146 b 139 -160 94 -156 113 -160 b 257 -69 194 -160 235 -125 l 285 0 l 14 667 l 167 667 l 354 174 l 542 667 l 694 667 l 403 -76 b 160 -292 347 -217 271 -292 b 85 -282 128 -292 103 -287 l 56 -271 m 403 972 l 549 972 l 403 778 l 299 778 "},"þ":{"ha":840,"x_min":0,"x_max":0,"o":"m 104 972 l 243 972 l 243 569 b 297 625 257 590 275 608 b 472 681 335 653 390 681 b 785 333 639 681 785 535 b 472 -14 785 132 639 -14 b 297 42 390 -14 335 14 b 243 97 275 58 257 76 l 243 -292 l 104 -292 m 444 118 b 646 333 556 118 646 207 b 444 549 646 460 556 549 b 243 333 333 549 243 460 b 444 118 243 207 333 118 "},"ÿ":{"ha":708,"x_min":0,"x_max":0,"o":"m 56 -139 b 79 -150 63 -143 69 -146 b 139 -160 94 -156 113 -160 b 257 -69 194 -160 235 -125 l 285 0 l 14 667 l 167 667 l 354 174 l 542 667 l 694 667 l 403 -76 b 160 -292 347 -217 271 -292 b 85 -282 128 -292 103 -287 l 56 -271 m 132 875 b 215 958 132 924 172 958 b 299 875 258 958 299 924 b 215 792 299 826 258 792 b 132 875 172 792 132 826 m 410 875 b 493 958 410 924 450 958 b 576 875 536 958 576 924 b 493 792 576 826 536 792 b 410 875 450 792 410 826 "},"Ā":{"ha":972,"x_min":0,"x_max":0,"o":"m 403 972 l 569 972 l 958 0 l 799 0 l 701 250 l 271 250 l 174 0 l 14 0 m 646 389 l 486 792 l 326 389 m 278 1243 l 694 1243 l 694 1146 l 278 1146 "},"ā":{"ha":722,"x_min":0,"x_max":0,"o":"m 486 97 b 433 42 472 76 454 58 b 271 -14 396 14 343 -14 b 49 181 138 -14 49 76 b 243 389 49 292 125 368 l 486 431 b 347 556 486 501 431 556 b 221 510 293 556 253 532 b 174 465 203 497 188 482 l 83 556 b 150 618 101 579 124 600 b 347 681 194 650 258 681 b 625 424 514 681 625 569 l 625 0 l 486 0 m 486 319 l 292 285 b 188 194 221 272 188 238 b 299 104 188 146 228 104 b 486 299 403 104 486 188 m 160 938 l 576 938 l 576 840 l 160 840 "},"Ă":{"ha":972,"x_min":0,"x_max":0,"o":"m 403 972 l 569 972 l 958 0 l 799 0 l 701 250 l 271 250 l 174 0 l 14 0 m 646 389 l 486 792 l 326 389 m 389 1292 b 486 1194 389 1236 431 1194 b 583 1292 542 1194 583 1236 l 688 1292 b 486 1097 688 1181 604 1097 b 285 1292 368 1097 285 1181 "},"ă":{"ha":722,"x_min":0,"x_max":0,"o":"m 486 97 b 433 42 472 76 454 58 b 271 -14 396 14 343 -14 b 49 181 138 -14 49 76 b 243 389 49 292 125 368 l 486 431 b 347 556 486 501 431 556 b 221 510 293 556 253 532 b 174 465 203 497 188 482 l 83 556 b 150 618 101 579 124 600 b 347 681 194 650 258 681 b 625 424 514 681 625 569 l 625 0 l 486 0 m 486 319 l 292 285 b 188 194 221 272 188 238 b 299 104 188 146 228 104 b 486 299 403 104 486 188 m 271 972 b 368 875 271 917 313 875 b 465 972 424 875 465 917 l 569 972 b 368 778 569 861 486 778 b 167 972 250 778 167 861 "},"Ą":{"ha":972,"x_min":0,"x_max":0,"o":"m 403 972 l 569 972 l 958 0 l 882 0 b 850 -50 869 -17 860 -33 b 819 -147 835 -79 819 -115 b 889 -208 819 -181 846 -208 b 936 -201 907 -208 922 -206 b 958 -194 943 -200 951 -197 l 958 -278 b 931 -289 950 -282 940 -285 b 861 -299 913 -294 889 -299 b 722 -167 778 -299 722 -244 b 760 -50 722 -122 739 -82 b 799 0 771 -32 783 -15 l 701 250 l 271 250 l 174 0 l 14 0 m 646 389 l 486 792 l 326 389 "},"ą":{"ha":722,"x_min":0,"x_max":0,"o":"m 646 -278 b 618 -289 638 -282 628 -285 b 549 -299 600 -294 576 -299 b 410 -167 465 -299 410 -244 b 447 -50 410 -122 426 -82 b 486 0 458 -32 471 -15 l 486 97 b 433 42 472 76 454 58 b 271 -14 396 14 343 -14 b 49 181 138 -14 49 76 b 243 389 49 292 125 368 l 486 431 b 347 556 486 501 431 556 b 221 510 293 556 253 532 b 174 465 203 497 188 482 l 83 556 b 150 618 101 579 124 600 b 347 681 194 650 258 681 b 625 424 514 681 625 569 l 625 0 l 569 0 b 538 -50 557 -17 547 -33 b 507 -147 522 -79 507 -115 b 576 -208 507 -181 533 -208 b 624 -201 594 -208 610 -206 b 646 -194 631 -200 639 -197 m 486 319 l 292 285 b 188 194 221 272 188 238 b 299 104 188 146 228 104 b 486 299 403 104 486 188 "},"Ć":{"ha":1035,"x_min":0,"x_max":0,"o":"m 993 181 b 890 83 964 144 931 113 b 590 -14 822 35 724 -14 b 76 486 299 -14 76 208 b 590 986 76 764 299 986 b 888 892 724 986 821 940 b 986 799 925 864 958 833 l 889 701 b 815 774 869 728 844 753 b 590 847 765 811 690 847 b 229 486 389 847 229 688 b 590 125 229 285 389 125 b 818 201 690 125 767 163 b 896 278 849 224 875 249 m 625 1292 l 771 1292 l 625 1097 l 521 1097 "},"ć":{"ha":722,"x_min":0,"x_max":0,"o":"m 688 125 b 615 56 667 99 643 76 b 403 -14 567 21 497 -14 b 56 333 208 -14 56 139 b 403 681 56 528 208 681 b 613 614 497 681 567 647 b 681 549 639 594 663 572 l 583 458 b 538 503 571 475 556 490 b 403 549 506 525 463 549 b 194 333 285 549 194 460 b 403 118 194 207 285 118 b 540 167 463 118 508 140 b 590 215 558 181 575 197 m 444 972 l 590 972 l 444 778 l 340 778 "},"Ĉ":{"ha":1035,"x_min":0,"x_max":0,"o":"m 993 181 b 890 83 964 144 931 113 b 590 -14 822 35 724 -14 b 76 486 299 -14 76 208 b 590 986 76 764 299 986 b 888 892 724 986 821 940 b 986 799 925 864 958 833 l 889 701 b 815 774 869 728 844 753 b 590 847 765 811 690 847 b 229 486 389 847 229 688 b 590 125 229 285 389 125 b 818 201 690 125 767 163 b 896 278 849 224 875 249 m 514 1292 l 639 1292 l 799 1097 l 674 1097 l 576 1215 l 479 1097 l 354 1097 "},"ĉ":{"ha":722,"x_min":0,"x_max":0,"o":"m 688 125 b 615 56 667 99 643 76 b 403 -14 567 21 497 -14 b 56 333 208 -14 56 139 b 403 681 56 528 208 681 b 613 614 497 681 567 647 b 681 549 639 594 663 572 l 583 458 b 538 503 571 475 556 490 b 403 549 506 525 463 549 b 194 333 285 549 194 460 b 403 118 194 207 285 118 b 540 167 463 118 508 140 b 590 215 558 181 575 197 m 333 972 l 458 972 l 618 778 l 493 778 l 396 896 l 299 778 l 174 778 "},"Ċ":{"ha":1035,"x_min":0,"x_max":0,"o":"m 993 181 b 890 83 964 144 931 113 b 590 -14 822 35 724 -14 b 76 486 299 -14 76 208 b 590 986 76 764 299 986 b 888 892 724 986 821 940 b 986 799 925 864 958 833 l 889 701 b 815 774 869 728 844 753 b 590 847 765 811 690 847 b 229 486 389 847 229 688 b 590 125 229 285 389 125 b 818 201 690 125 767 163 b 896 278 849 224 875 249 m 493 1181 b 576 1264 493 1229 533 1264 b 660 1181 619 1264 660 1229 b 576 1097 660 1132 619 1097 b 493 1181 533 1097 493 1132 "},"ċ":{"ha":722,"x_min":0,"x_max":0,"o":"m 688 125 b 615 56 667 99 643 76 b 403 -14 567 21 497 -14 b 56 333 208 -14 56 139 b 403 681 56 528 208 681 b 613 614 497 681 567 647 b 681 549 639 594 663 572 l 583 458 b 538 503 571 475 556 490 b 403 549 506 525 463 549 b 194 333 285 549 194 460 b 403 118 194 207 285 118 b 540 167 463 118 508 140 b 590 215 558 181 575 197 m 313 875 b 396 958 313 924 353 958 b 479 875 439 958 479 924 b 396 792 479 826 439 792 b 313 875 353 792 313 826 "},"Č":{"ha":1035,"x_min":0,"x_max":0,"o":"m 993 181 b 890 83 964 144 931 113 b 590 -14 822 35 724 -14 b 76 486 299 -14 76 208 b 590 986 76 764 299 986 b 888 892 724 986 821 940 b 986 799 925 864 958 833 l 889 701 b 815 774 869 728 844 753 b 590 847 765 811 690 847 b 229 486 389 847 229 688 b 590 125 229 285 389 125 b 818 201 690 125 767 163 b 896 278 849 224 875 249 m 354 1292 l 479 1292 l 576 1174 l 674 1292 l 799 1292 l 639 1097 l 514 1097 "},"č":{"ha":722,"x_min":0,"x_max":0,"o":"m 688 125 b 615 56 667 99 643 76 b 403 -14 567 21 497 -14 b 56 333 208 -14 56 139 b 403 681 56 528 208 681 b 613 614 497 681 567 647 b 681 549 639 594 663 572 l 583 458 b 538 503 571 475 556 490 b 403 549 506 525 463 549 b 194 333 285 549 194 460 b 403 118 194 207 285 118 b 540 167 463 118 508 140 b 590 215 558 181 575 197 m 174 972 l 299 972 l 396 854 l 493 972 l 618 972 l 458 778 l 333 778 "},"Ď":{"ha":1049,"x_min":0,"x_max":0,"o":"m 139 972 l 465 972 b 972 486 750 972 972 749 b 465 0 972 224 750 0 l 139 0 m 465 139 b 819 486 667 139 819 292 b 465 833 819 681 667 833 l 292 833 l 292 139 m 299 1292 l 424 1292 l 521 1174 l 618 1292 l 743 1292 l 583 1097 l 458 1097 "},"ď":{"ha":910,"x_min":0,"x_max":0,"o":"m 597 97 b 543 42 583 76 565 58 b 368 -14 506 14 447 -14 b 56 333 201 -14 56 132 b 368 681 56 535 201 681 b 543 625 447 681 506 653 b 597 569 565 608 583 590 l 597 972 l 736 972 l 736 0 l 597 0 m 396 118 b 597 333 507 118 597 207 b 396 549 597 460 507 549 b 194 333 285 549 194 460 b 396 118 194 207 285 118 m 868 972 l 1000 972 l 910 778 l 806 778 "},"Đ":{"ha":1063,"x_min":0,"x_max":0,"o":"m 153 417 l 28 417 l 28 556 l 153 556 l 153 972 l 479 972 b 986 486 764 972 986 749 b 479 0 986 224 764 0 l 153 0 m 479 139 b 833 486 681 139 833 292 b 479 833 833 681 681 833 l 306 833 l 306 556 l 521 556 l 521 417 l 306 417 l 306 139 "},"đ":{"ha":840,"x_min":0,"x_max":0,"o":"m 583 97 b 529 42 568 76 550 58 b 361 -14 492 14 439 -14 b 56 319 194 -14 56 125 b 361 653 56 514 194 653 b 529 597 439 653 492 625 b 583 542 550 581 568 563 l 583 736 l 417 736 l 417 868 l 583 868 l 583 972 l 722 972 l 722 868 l 840 868 l 840 736 l 722 736 l 722 0 l 583 0 m 389 118 b 583 319 500 118 583 201 b 389 521 583 438 500 521 b 194 319 278 521 194 438 b 389 118 194 201 278 118 "},"Ē":{"ha":903,"x_min":0,"x_max":0,"o":"m 139 972 l 826 972 l 826 826 l 292 826 l 292 576 l 715 576 l 715 431 l 292 431 l 292 146 l 840 146 l 840 0 l 139 0 m 285 1243 l 701 1243 l 701 1146 l 285 1146 "},"ē":{"ha":778,"x_min":0,"x_max":0,"o":"m 688 111 b 618 49 669 88 646 67 b 403 -14 569 17 501 -14 b 56 333 208 -14 56 139 b 396 681 56 528 208 681 b 722 354 585 681 722 543 b 718 304 722 333 719 317 l 715 285 l 201 285 b 410 118 217 194 297 118 b 551 163 469 118 518 140 b 604 208 571 175 589 190 m 576 403 b 396 556 556 493 494 556 b 201 403 290 556 229 493 m 188 938 l 604 938 l 604 840 l 188 840 "},"Ĕ":{"ha":903,"x_min":0,"x_max":0,"o":"m 139 972 l 826 972 l 826 826 l 292 826 l 292 576 l 715 576 l 715 431 l 292 431 l 292 146 l 840 146 l 840 0 l 139 0 m 396 1292 b 493 1194 396 1236 438 1194 b 590 1292 549 1194 590 1236 l 694 1292 b 493 1097 694 1181 611 1097 b 292 1292 375 1097 292 1181 "},"ĕ":{"ha":778,"x_min":0,"x_max":0,"o":"m 688 111 b 618 49 669 88 646 67 b 403 -14 569 17 501 -14 b 56 333 208 -14 56 139 b 396 681 56 528 208 681 b 722 354 585 681 722 543 b 718 304 722 333 719 317 l 715 285 l 201 285 b 410 118 217 194 297 118 b 551 163 469 118 518 140 b 604 208 571 175 589 190 m 576 403 b 396 556 556 493 494 556 b 201 403 290 556 229 493 m 299 972 b 396 875 299 917 340 875 b 493 972 451 875 493 917 l 597 972 b 396 778 597 861 514 778 b 194 972 278 778 194 861 "},"Ė":{"ha":903,"x_min":0,"x_max":0,"o":"m 139 972 l 826 972 l 826 826 l 292 826 l 292 576 l 715 576 l 715 431 l 292 431 l 292 146 l 840 146 l 840 0 l 139 0 m 410 1181 b 493 1264 410 1229 450 1264 b 576 1181 536 1264 576 1229 b 493 1097 576 1132 536 1097 b 410 1181 450 1097 410 1132 "},"ė":{"ha":778,"x_min":0,"x_max":0,"o":"m 688 111 b 618 49 669 88 646 67 b 403 -14 569 17 501 -14 b 56 333 208 -14 56 139 b 396 681 56 528 208 681 b 722 354 585 681 722 543 b 718 304 722 333 719 317 l 715 285 l 201 285 b 410 118 217 194 297 118 b 551 163 469 118 518 140 b 604 208 571 175 589 190 m 576 403 b 396 556 556 493 494 556 b 201 403 290 556 229 493 m 313 875 b 396 958 313 924 353 958 b 479 875 439 958 479 924 b 396 792 479 826 439 792 b 313 875 353 792 313 826 "},"Ę":{"ha":903,"x_min":0,"x_max":0,"o":"m 139 972 l 826 972 l 826 826 l 292 826 l 292 576 l 715 576 l 715 431 l 292 431 l 292 146 l 840 146 l 840 0 b 808 -50 828 -17 818 -33 b 778 -147 793 -79 778 -115 b 847 -208 778 -181 804 -208 b 894 -201 865 -208 881 -206 b 917 -194 901 -200 910 -197 l 917 -278 b 889 -289 908 -282 899 -285 b 819 -299 871 -294 847 -299 b 681 -167 736 -299 681 -244 b 718 -50 681 -122 697 -82 b 757 0 729 -32 742 -15 l 139 0 "},"ę":{"ha":778,"x_min":0,"x_max":0,"o":"m 535 -278 b 507 -289 526 -282 517 -285 b 438 -299 489 -294 465 -299 b 299 -167 354 -299 299 -244 b 329 -57 299 -122 314 -83 b 361 -14 339 -42 349 -26 b 56 333 200 1 56 144 b 396 681 56 528 208 681 b 722 354 585 681 722 543 b 718 304 722 333 719 317 l 715 285 l 201 285 b 410 118 217 194 297 118 b 551 163 469 118 518 140 b 604 208 571 175 589 190 l 688 111 b 628 57 672 92 651 74 b 444 -14 588 28 528 -4 b 396 -147 444 -14 396 -83 b 465 -208 396 -181 422 -208 b 513 -201 483 -208 499 -206 b 535 -194 519 -200 528 -197 m 576 403 b 396 556 556 493 494 556 b 201 403 290 556 229 493 "},"Ě":{"ha":903,"x_min":0,"x_max":0,"o":"m 139 972 l 826 972 l 826 826 l 292 826 l 292 576 l 715 576 l 715 431 l 292 431 l 292 146 l 840 146 l 840 0 l 139 0 m 271 1292 l 396 1292 l 493 1174 l 590 1292 l 715 1292 l 556 1097 l 431 1097 "},"ě":{"ha":778,"x_min":0,"x_max":0,"o":"m 688 111 b 618 49 669 88 646 67 b 403 -14 569 17 501 -14 b 56 333 208 -14 56 139 b 396 681 56 528 208 681 b 722 354 585 681 722 543 b 718 304 722 333 719 317 l 715 285 l 201 285 b 410 118 217 194 297 118 b 551 163 469 118 518 140 b 604 208 571 175 589 190 m 576 403 b 396 556 556 493 494 556 b 201 403 290 556 229 493 m 174 972 l 299 972 l 396 854 l 493 972 l 618 972 l 458 778 l 333 778 "},"Ĝ":{"ha":1118,"x_min":0,"x_max":0,"o":"m 653 514 l 1007 514 l 1007 174 b 900 79 978 139 942 107 b 590 -14 829 31 725 -14 b 76 486 299 -14 76 208 b 590 986 76 764 299 986 b 888 892 724 986 821 940 b 986 799 925 864 958 833 l 889 701 b 815 774 869 728 844 753 b 590 847 765 811 690 847 b 229 486 389 847 229 688 b 590 125 229 285 389 125 b 788 176 678 125 743 150 b 854 229 814 192 836 210 l 854 375 l 653 375 m 507 1292 l 632 1292 l 792 1097 l 667 1097 l 569 1215 l 472 1097 l 347 1097 "},"ĝ":{"ha":806,"x_min":0,"x_max":0,"o":"m 174 -62 b 224 -111 189 -81 206 -97 b 361 -160 256 -137 301 -160 b 569 56 488 -160 569 -78 l 569 118 b 517 65 556 99 538 81 b 354 14 479 39 426 14 b 56 347 194 14 56 153 b 354 681 56 542 194 681 b 517 628 426 681 479 654 b 569 576 538 613 556 594 l 569 667 l 708 667 l 708 56 b 361 -292 708 -146 563 -292 b 149 -222 267 -292 197 -257 b 76 -153 121 -201 97 -179 m 382 146 b 569 347 486 146 569 229 b 382 549 569 465 486 549 b 194 347 278 549 194 465 b 382 146 194 229 278 146 m 333 972 l 458 972 l 618 778 l 493 778 l 396 896 l 299 778 l 174 778 "},"Ğ":{"ha":1118,"x_min":0,"x_max":0,"o":"m 653 514 l 1007 514 l 1007 174 b 900 79 978 139 942 107 b 590 -14 829 31 725 -14 b 76 486 299 -14 76 208 b 590 986 76 764 299 986 b 888 892 724 986 821 940 b 986 799 925 864 958 833 l 889 701 b 815 774 869 728 844 753 b 590 847 765 811 690 847 b 229 486 389 847 229 688 b 590 125 229 285 389 125 b 788 176 678 125 743 150 b 854 229 814 192 836 210 l 854 375 l 653 375 m 472 1292 b 569 1194 472 1236 514 1194 b 667 1292 625 1194 667 1236 l 771 1292 b 569 1097 771 1181 688 1097 b 368 1292 451 1097 368 1181 "},"ğ":{"ha":806,"x_min":0,"x_max":0,"o":"m 174 -62 b 224 -111 189 -81 206 -97 b 361 -160 256 -137 301 -160 b 569 56 488 -160 569 -78 l 569 118 b 517 65 556 99 538 81 b 354 14 479 39 426 14 b 56 347 194 14 56 153 b 354 681 56 542 194 681 b 517 628 426 681 479 654 b 569 576 538 613 556 594 l 569 667 l 708 667 l 708 56 b 361 -292 708 -146 563 -292 b 149 -222 267 -292 197 -257 b 76 -153 121 -201 97 -179 m 382 146 b 569 347 486 146 569 229 b 382 549 569 465 486 549 b 194 347 278 549 194 465 b 382 146 194 229 278 146 m 299 972 b 396 875 299 917 340 875 b 493 972 451 875 493 917 l 597 972 b 396 778 597 861 514 778 b 194 972 278 778 194 861 "},"Ġ":{"ha":1118,"x_min":0,"x_max":0,"o":"m 653 514 l 1007 514 l 1007 174 b 900 79 978 139 942 107 b 590 -14 829 31 725 -14 b 76 486 299 -14 76 208 b 590 986 76 764 299 986 b 888 892 724 986 821 940 b 986 799 925 864 958 833 l 889 701 b 815 774 869 728 844 753 b 590 847 765 811 690 847 b 229 486 389 847 229 688 b 590 125 229 285 389 125 b 788 176 678 125 743 150 b 854 229 814 192 836 210 l 854 375 l 653 375 m 493 1181 b 576 1264 493 1229 533 1264 b 660 1181 619 1264 660 1229 b 576 1097 660 1132 619 1097 b 493 1181 533 1097 493 1132 "},"ġ":{"ha":806,"x_min":0,"x_max":0,"o":"m 174 -62 b 224 -111 189 -81 206 -97 b 361 -160 256 -137 301 -160 b 569 56 488 -160 569 -78 l 569 118 b 517 65 556 99 538 81 b 354 14 479 39 426 14 b 56 347 194 14 56 153 b 354 681 56 542 194 681 b 517 628 426 681 479 654 b 569 576 538 613 556 594 l 569 667 l 708 667 l 708 56 b 361 -292 708 -146 563 -292 b 149 -222 267 -292 197 -257 b 76 -153 121 -201 97 -179 m 382 146 b 569 347 486 146 569 229 b 382 549 569 465 486 549 b 194 347 278 549 194 465 b 382 146 194 229 278 146 m 313 875 b 396 958 313 924 353 958 b 479 875 439 958 479 924 b 396 792 479 826 439 792 b 313 875 353 792 313 826 "},"Ģ":{"ha":1118,"x_min":0,"x_max":0,"o":"m 653 514 l 1007 514 l 1007 174 b 900 79 978 139 942 107 b 590 -14 829 31 725 -14 b 76 486 299 -14 76 208 b 590 986 76 764 299 986 b 888 892 724 986 821 940 b 986 799 925 864 958 833 l 889 701 b 815 774 869 728 844 753 b 590 847 765 811 690 847 b 229 486 389 847 229 688 b 590 125 229 285 389 125 b 788 176 678 125 743 150 b 854 229 814 192 836 210 l 854 375 l 653 375 m 514 -111 l 646 -111 l 556 -306 l 451 -306 "},"ģ":{"ha":806,"x_min":0,"x_max":0,"o":"m 410 972 l 507 972 l 444 778 l 319 778 m 174 -62 b 224 -111 189 -81 206 -97 b 361 -160 256 -137 301 -160 b 569 56 488 -160 569 -78 l 569 118 b 517 65 556 99 538 81 b 354 14 479 39 426 14 b 56 347 194 14 56 153 b 354 681 56 542 194 681 b 517 628 426 681 479 654 b 569 576 538 613 556 594 l 569 667 l 708 667 l 708 56 b 361 -292 708 -146 563 -292 b 149 -222 267 -292 197 -257 b 76 -153 121 -201 97 -179 m 382 146 b 569 347 486 146 569 229 b 382 549 569 465 486 549 b 194 347 278 549 194 465 b 382 146 194 229 278 146 "},"Ĥ":{"ha":1063,"x_min":0,"x_max":0,"o":"m 139 972 l 292 972 l 292 563 l 771 563 l 771 972 l 924 972 l 924 0 l 771 0 l 771 424 l 292 424 l 292 0 l 139 0 m 465 1292 l 590 1292 l 750 1097 l 625 1097 l 528 1215 l 431 1097 l 306 1097 "},"ĥ":{"ha":813,"x_min":0,"x_max":0,"o":"m 104 972 l 243 972 l 243 569 b 294 625 257 590 274 608 b 451 681 329 653 381 681 b 715 389 604 681 715 571 l 715 0 l 576 0 l 576 389 b 424 549 576 488 514 549 b 243 361 319 549 243 472 l 243 0 l 104 0 m 340 1292 l 465 1292 l 625 1097 l 500 1097 l 403 1215 l 306 1097 l 181 1097 "},"Ħ":{"ha":1076,"x_min":0,"x_max":0,"o":"m 160 681 l 28 681 l 28 813 l 160 813 l 160 972 l 313 972 l 313 813 l 764 813 l 764 972 l 917 972 l 917 813 l 1049 813 l 1049 681 l 917 681 l 917 0 l 764 0 l 764 389 l 313 389 l 313 0 l 160 0 m 764 528 l 764 681 l 313 681 l 313 528 "},"ħ":{"ha":826,"x_min":0,"x_max":0,"o":"m 118 736 l 0 736 l 0 868 l 118 868 l 118 972 l 257 972 l 257 868 l 438 868 l 438 736 l 257 736 l 257 535 b 308 590 271 556 288 574 b 465 646 343 618 394 646 b 729 354 618 646 729 536 l 729 0 l 590 0 l 590 354 b 438 514 590 453 528 514 b 257 326 333 514 257 438 l 257 0 l 118 0 "},"Ī":{"ha":431,"x_min":0,"x_max":0,"o":"m 139 972 l 292 972 l 292 0 l 139 0 m 7 1243 l 424 1243 l 424 1146 l 7 1146 "},"ī":{"ha":347,"x_min":0,"x_max":0,"o":"m 104 667 l 243 667 l 243 0 l 104 0 m -35 958 l 382 958 l 382 861 l -35 861 "},"Ĭ":{"ha":431,"x_min":0,"x_max":0,"o":"m 139 972 l 292 972 l 292 0 l 139 0 m 118 1292 b 215 1194 118 1236 160 1194 b 313 1292 271 1194 313 1236 l 417 1292 b 215 1097 417 1181 333 1097 b 14 1292 97 1097 14 1181 "},"ĭ":{"ha":347,"x_min":0,"x_max":0,"o":"m 104 667 l 243 667 l 243 0 l 104 0 m 76 972 b 174 875 76 917 118 875 b 271 972 229 875 271 917 l 375 972 b 174 778 375 861 292 778 b -28 972 56 778 -28 861 "},"Į":{"ha":431,"x_min":0,"x_max":0,"o":"m 299 -278 b 271 -289 290 -282 281 -285 b 201 -299 253 -294 229 -299 b 63 -167 118 -299 63 -244 b 100 -50 63 -122 79 -82 b 139 0 111 -32 124 -15 l 139 972 l 292 972 l 292 0 l 222 0 b 190 -50 210 -17 200 -33 b 160 -147 175 -79 160 -115 b 229 -208 160 -181 186 -208 b 276 -201 247 -208 263 -206 b 299 -194 283 -200 292 -197 "},"į":{"ha":347,"x_min":0,"x_max":0,"o":"m 264 -278 b 236 -289 256 -282 246 -285 b 167 -299 218 -294 194 -299 b 28 -167 83 -299 28 -244 b 65 -50 28 -122 44 -82 b 104 0 76 -32 89 -15 l 104 667 l 243 667 l 243 0 l 188 0 b 156 -50 175 -17 165 -33 b 125 -147 140 -79 125 -115 b 194 -208 125 -181 151 -208 b 242 -201 213 -208 228 -206 b 264 -194 249 -200 257 -197 m 90 875 b 174 958 90 924 131 958 b 257 875 217 958 257 924 b 174 792 257 826 217 792 b 90 875 131 792 90 826 "},"İ":{"ha":431,"x_min":0,"x_max":0,"o":"m 139 972 l 292 972 l 292 0 l 139 0 m 132 1181 b 215 1264 132 1229 172 1264 b 299 1181 258 1264 299 1229 b 215 1097 299 1132 258 1097 b 132 1181 172 1097 132 1132 "},"ı":{"ha":347,"x_min":0,"x_max":0,"o":"m 104 667 l 243 667 l 243 0 l 104 0 "},"Ĳ":{"ha":1042,"x_min":0,"x_max":0,"o":"m 139 972 l 292 972 l 292 0 l 139 0 m 444 194 b 485 160 456 182 469 169 b 604 125 511 142 550 125 b 764 299 703 125 764 188 l 764 972 l 917 972 l 917 299 b 604 -14 917 110 793 -14 b 411 42 515 -14 454 14 b 347 97 386 58 365 76 "},"ĳ":{"ha":681,"x_min":0,"x_max":0,"o":"m 104 667 l 243 667 l 243 0 l 104 0 m 90 875 b 174 958 90 924 131 958 b 257 875 217 958 257 924 b 174 792 257 826 217 792 b 90 875 131 792 90 826 m 264 -139 l 286 -150 b 340 -160 301 -157 319 -160 b 438 -56 406 -160 438 -125 l 438 667 l 576 667 l 576 -69 b 368 -292 576 -215 501 -292 b 293 -282 336 -292 311 -287 l 264 -271 m 424 875 b 507 958 424 924 464 958 b 590 875 550 958 590 924 b 507 792 590 826 550 792 b 424 875 464 792 424 826 "},"Ĵ":{"ha":694,"x_min":0,"x_max":0,"o":"m 97 194 b 138 160 108 182 122 169 b 257 125 164 142 203 125 b 417 299 356 125 417 188 l 417 972 l 569 972 l 569 299 b 257 -14 569 110 446 -14 b 64 42 168 -14 107 14 b 0 97 39 58 18 76 m 431 1292 l 556 1292 l 715 1097 l 590 1097 l 493 1215 l 396 1097 l 271 1097 "},"ĵ":{"ha":347,"x_min":0,"x_max":0,"o":"m -69 -139 l -47 -150 b 7 -160 -32 -157 -14 -160 b 104 -56 72 -160 104 -125 l 104 667 l 243 667 l 243 -69 b 35 -292 243 -215 168 -292 b -40 -282 3 -292 -22 -287 l -69 -271 m 111 972 l 236 972 l 396 778 l 271 778 l 174 896 l 76 778 l -49 778 "},"Ķ":{"ha":951,"x_min":0,"x_max":0,"o":"m 139 972 l 292 972 l 292 500 l 729 972 l 924 972 l 549 569 l 951 0 l 764 0 l 444 458 l 292 292 l 292 0 l 139 0 m 451 -111 l 583 -111 l 493 -306 l 389 -306 "},"ķ":{"ha":722,"x_min":0,"x_max":0,"o":"m 104 972 l 243 972 l 243 361 l 528 667 l 701 667 l 444 396 l 722 0 l 563 0 l 354 299 l 243 181 l 243 0 l 104 0 m 333 -111 l 465 -111 l 375 -306 l 271 -306 "},"Ĺ":{"ha":792,"x_min":0,"x_max":0,"o":"m 139 972 l 292 972 l 292 146 l 764 146 l 764 0 l 139 0 m 271 1292 l 417 1292 l 271 1097 l 167 1097 "},"ĺ":{"ha":347,"x_min":0,"x_max":0,"o":"m 104 972 l 243 972 l 243 0 l 104 0 m 229 1292 l 375 1292 l 229 1097 l 125 1097 "},"Ļ":{"ha":792,"x_min":0,"x_max":0,"o":"m 139 972 l 292 972 l 292 146 l 764 146 l 764 0 l 139 0 m 396 -111 l 528 -111 l 438 -306 l 333 -306 "},"ļ":{"ha":347,"x_min":0,"x_max":0,"o":"m 104 972 l 243 972 l 243 0 l 104 0 m 111 -111 l 243 -111 l 153 -306 l 49 -306 "},"Ľ":{"ha":792,"x_min":0,"x_max":0,"o":"m 139 972 l 292 972 l 292 146 l 764 146 l 764 0 l 139 0 m 451 972 l 583 972 l 493 778 l 389 778 "},"ľ":{"ha":417,"x_min":0,"x_max":0,"o":"m 104 972 l 243 972 l 243 0 l 104 0 m 375 972 l 507 972 l 417 778 l 313 778 "},"Ŀ":{"ha":792,"x_min":0,"x_max":0,"o":"m 139 972 l 292 972 l 292 146 l 764 146 l 764 0 l 139 0 m 438 514 b 521 597 438 563 478 597 b 604 514 564 597 604 563 b 521 431 604 465 564 431 b 438 514 478 431 438 465 "},"ŀ":{"ha":521,"x_min":0,"x_max":0,"o":"m 104 972 l 243 972 l 243 0 l 104 0 m 326 486 b 410 569 326 535 367 569 b 493 486 453 569 493 535 b 410 403 493 438 453 403 b 326 486 367 403 326 438 "},"Ł":{"ha":868,"x_min":0,"x_max":0,"o":"m 215 368 l 63 278 l 0 389 l 215 514 l 215 972 l 368 972 l 368 597 l 535 694 l 597 583 l 368 451 l 368 146 l 840 146 l 840 0 l 215 0 "},"ł":{"ha":514,"x_min":0,"x_max":0,"o":"m 188 385 l 35 292 l -28 396 l 188 528 l 188 972 l 326 972 l 326 608 l 479 701 l 542 597 l 326 465 l 326 0 l 188 0 "},"Ń":{"ha":1104,"x_min":0,"x_max":0,"o":"m 139 972 l 278 972 l 813 257 l 813 972 l 965 972 l 965 0 l 826 0 l 292 715 l 292 0 l 139 0 m 611 1292 l 757 1292 l 611 1097 l 507 1097 "},"ń":{"ha":806,"x_min":0,"x_max":0,"o":"m 97 667 l 236 667 l 236 569 b 288 625 250 590 267 608 b 444 681 322 653 374 681 b 708 389 597 681 708 571 l 708 0 l 569 0 l 569 389 b 417 549 569 488 507 549 b 236 361 313 549 236 472 l 236 0 l 97 0 m 458 972 l 604 972 l 458 778 l 354 778 "},"Ņ":{"ha":1104,"x_min":0,"x_max":0,"o":"m 139 972 l 278 972 l 813 257 l 813 972 l 965 972 l 965 0 l 826 0 l 292 715 l 292 0 l 139 0 m 507 -111 l 639 -111 l 549 -306 l 444 -306 "},"ņ":{"ha":806,"x_min":0,"x_max":0,"o":"m 97 667 l 236 667 l 236 569 b 288 625 250 590 267 608 b 444 681 322 653 374 681 b 708 389 597 681 708 571 l 708 0 l 569 0 l 569 389 b 417 549 569 488 507 549 b 236 361 313 549 236 472 l 236 0 l 97 0 m 347 -111 l 479 -111 l 389 -306 l 285 -306 "},"Ň":{"ha":1104,"x_min":0,"x_max":0,"o":"m 139 972 l 278 972 l 813 257 l 813 972 l 965 972 l 965 0 l 826 0 l 292 715 l 292 0 l 139 0 m 333 1292 l 458 1292 l 556 1174 l 653 1292 l 778 1292 l 618 1097 l 493 1097 "},"ň":{"ha":806,"x_min":0,"x_max":0,"o":"m 97 667 l 236 667 l 236 569 b 288 625 250 590 267 608 b 444 681 322 653 374 681 b 708 389 597 681 708 571 l 708 0 l 569 0 l 569 389 b 417 549 569 488 507 549 b 236 361 313 549 236 472 l 236 0 l 97 0 m 188 972 l 313 972 l 410 854 l 507 972 l 632 972 l 472 778 l 347 778 "},"ŉ":{"ha":806,"x_min":0,"x_max":0,"o":"m 97 667 l 236 667 l 236 569 b 288 625 250 590 267 608 b 444 681 322 653 374 681 b 708 389 597 681 708 571 l 708 0 l 569 0 l 569 389 b 417 549 569 488 507 549 b 236 361 313 549 236 472 l 236 0 l 97 0 m 28 944 l 160 944 l 69 750 l -35 750 "},"Ŋ":{"ha":1104,"x_min":0,"x_max":0,"o":"m 139 972 l 278 972 l 813 257 l 813 972 l 965 972 l 965 0 b 674 -312 965 -189 840 -312 b 492 -264 592 -312 532 -290 b 431 -215 468 -250 447 -233 l 535 -111 b 569 -139 544 -121 557 -131 b 667 -167 592 -154 624 -167 b 813 0 757 -167 813 -111 l 813 21 l 292 715 l 292 0 l 139 0 "},"ŋ":{"ha":806,"x_min":0,"x_max":0,"o":"m 97 667 l 236 667 l 236 569 b 288 625 250 590 267 608 b 444 681 322 653 374 681 b 708 389 597 681 708 571 l 708 -83 b 514 -299 708 -229 640 -299 b 444 -289 486 -299 461 -294 b 417 -278 435 -285 425 -282 l 417 -146 b 439 -153 424 -149 432 -151 b 486 -160 453 -157 468 -160 b 569 -69 535 -160 569 -125 l 569 389 b 417 549 569 488 507 549 b 236 361 313 549 236 472 l 236 0 l 97 0 "},"Ō":{"ha":1181,"x_min":0,"x_max":0,"o":"m 229 486 b 590 125 229 285 389 125 b 951 486 792 125 951 285 b 590 847 951 688 792 847 b 229 486 389 847 229 688 m 76 486 b 590 986 76 764 299 986 b 1104 486 882 986 1104 764 b 590 -14 1104 208 882 -14 b 76 486 299 -14 76 208 m 381 1243 l 797 1243 l 797 1146 l 381 1146 "},"ō":{"ha":806,"x_min":0,"x_max":0,"o":"m 56 333 b 403 681 56 528 208 681 b 750 333 597 681 750 528 b 403 -14 750 139 597 -14 b 56 333 208 -14 56 139 m 403 118 b 611 333 521 118 611 207 b 403 549 611 460 521 549 b 194 333 285 549 194 460 b 403 118 194 207 285 118 m 194 938 l 611 938 l 611 840 l 194 840 "},"Ŏ":{"ha":1181,"x_min":0,"x_max":0,"o":"m 229 486 b 590 125 229 285 389 125 b 951 486 792 125 951 285 b 590 847 951 688 792 847 b 229 486 389 847 229 688 m 76 486 b 590 986 76 764 299 986 b 1104 486 882 986 1104 764 b 590 -14 1104 208 882 -14 b 76 486 299 -14 76 208 m 492 1292 b 589 1194 492 1236 533 1194 b 686 1292 644 1194 686 1236 l 790 1292 b 589 1097 790 1181 707 1097 b 388 1292 471 1097 388 1181 "},"ŏ":{"ha":806,"x_min":0,"x_max":0,"o":"m 56 333 b 403 681 56 528 208 681 b 750 333 597 681 750 528 b 403 -14 750 139 597 -14 b 56 333 208 -14 56 139 m 403 118 b 611 333 521 118 611 207 b 403 549 611 460 521 549 b 194 333 285 549 194 460 b 403 118 194 207 285 118 m 306 972 b 403 875 306 917 347 875 b 500 972 458 875 500 917 l 604 972 b 403 778 604 861 521 778 b 201 972 285 778 201 861 "},"Ő":{"ha":1181,"x_min":0,"x_max":0,"o":"m 229 486 b 590 125 229 285 389 125 b 951 486 792 125 951 285 b 590 847 951 688 792 847 b 229 486 389 847 229 688 m 76 486 b 590 986 76 764 299 986 b 1104 486 882 986 1104 764 b 590 -14 1104 208 882 -14 b 76 486 299 -14 76 208 m 519 1292 l 665 1292 l 519 1097 l 415 1097 m 763 1292 l 908 1292 l 763 1097 l 658 1097 "},"ő":{"ha":806,"x_min":0,"x_max":0,"o":"m 56 333 b 403 681 56 528 208 681 b 750 333 597 681 750 528 b 403 -14 750 139 597 -14 b 56 333 208 -14 56 139 m 403 118 b 611 333 521 118 611 207 b 403 549 611 460 521 549 b 194 333 285 549 194 460 b 403 118 194 207 285 118 m 333 972 l 479 972 l 333 778 l 229 778 m 576 972 l 722 972 l 576 778 l 472 778 "},"Œ":{"ha":1410,"x_min":0,"x_max":0,"o":"m 1347 146 l 1347 0 l 583 0 b 76 486 299 0 76 224 b 583 972 76 749 299 972 l 1333 972 l 1333 826 l 854 826 l 854 576 l 1222 576 l 1222 431 l 854 431 l 854 146 m 701 146 l 701 826 l 583 826 b 229 486 389 826 229 681 b 583 146 229 292 389 146 "},"œ":{"ha":1299,"x_min":0,"x_max":0,"o":"m 1208 111 b 1140 49 1190 88 1167 67 b 931 -14 1094 17 1025 -14 b 733 58 842 -14 778 21 b 667 132 707 79 685 104 b 601 58 649 104 628 79 b 396 -14 557 21 490 -14 b 56 333 208 -14 56 139 b 396 681 56 528 208 681 b 599 611 486 681 553 646 b 667 542 625 590 647 568 b 732 611 685 568 707 590 b 924 681 775 646 840 681 b 1243 354 1106 681 1243 543 b 1239 304 1243 333 1240 317 l 1236 285 l 736 285 b 938 118 751 194 832 118 b 1072 163 993 118 1039 140 b 1125 208 1092 175 1110 190 m 396 118 b 597 333 507 118 597 207 b 396 549 597 460 507 549 b 194 333 285 549 194 460 b 396 118 194 207 285 118 m 1097 403 b 924 556 1076 493 1014 556 b 736 403 825 556 764 493 "},"Ŕ":{"ha":958,"x_min":0,"x_max":0,"o":"m 139 972 l 542 972 b 861 667 729 972 861 839 b 768 447 861 557 814 490 b 675 389 740 422 710 403 l 896 0 l 722 0 l 521 361 l 292 361 l 292 0 l 139 0 m 542 500 b 708 667 640 500 708 568 b 542 833 708 765 640 833 l 292 833 l 292 500 m 528 1292 l 674 1292 l 528 1097 l 424 1097 "},"ŕ":{"ha":500,"x_min":0,"x_max":0,"o":"m 97 667 l 236 667 l 236 576 b 288 628 251 594 268 613 b 438 681 321 654 371 681 l 472 681 l 472 535 l 454 538 b 417 542 443 539 432 542 b 236 340 321 542 236 458 l 236 0 l 97 0 m 333 972 l 479 972 l 333 778 l 229 778 "},"Ŗ":{"ha":958,"x_min":0,"x_max":0,"o":"m 139 972 l 542 972 b 861 667 729 972 861 839 b 768 447 861 557 814 490 b 675 389 740 422 710 403 l 896 0 l 722 0 l 521 361 l 292 361 l 292 0 l 139 0 m 542 500 b 708 667 640 500 708 568 b 542 833 708 765 640 833 l 292 833 l 292 500 m 444 -111 l 576 -111 l 486 -306 l 382 -306 "},"ŗ":{"ha":500,"x_min":0,"x_max":0,"o":"m 97 667 l 236 667 l 236 576 b 288 628 251 594 268 613 b 438 681 321 654 371 681 l 472 681 l 472 535 l 454 538 b 417 542 443 539 432 542 b 236 340 321 542 236 458 l 236 0 l 97 0 m 97 -111 l 229 -111 l 139 -306 l 35 -306 "},"Ř":{"ha":958,"x_min":0,"x_max":0,"o":"m 139 972 l 542 972 b 861 667 729 972 861 839 b 768 447 861 557 814 490 b 675 389 740 422 710 403 l 896 0 l 722 0 l 521 361 l 292 361 l 292 0 l 139 0 m 542 500 b 708 667 640 500 708 568 b 542 833 708 765 640 833 l 292 833 l 292 500 m 271 1292 l 396 1292 l 493 1174 l 590 1292 l 715 1292 l 556 1097 l 431 1097 "},"ř":{"ha":500,"x_min":0,"x_max":0,"o":"m 97 667 l 236 667 l 236 576 b 288 628 251 594 268 613 b 438 681 321 654 371 681 l 472 681 l 472 535 l 454 538 b 417 542 443 539 432 542 b 236 340 321 542 236 458 l 236 0 l 97 0 m 56 972 l 181 972 l 278 854 l 375 972 l 500 972 l 340 778 l 215 778 "},"Ś":{"ha":792,"x_min":0,"x_max":0,"o":"m 146 236 b 204 181 161 215 181 197 b 389 125 244 153 306 125 b 583 271 515 125 583 193 b 69 715 583 486 69 354 b 403 986 69 861 196 986 b 631 924 503 986 579 956 b 708 861 661 906 688 885 l 604 757 b 553 801 589 774 572 789 b 403 847 519 824 468 847 b 222 715 285 847 222 786 b 736 271 222 500 736 632 b 389 -14 736 118 604 -14 b 126 58 271 -14 183 21 b 42 132 93 79 65 104 m 444 1292 l 590 1292 l 444 1097 l 340 1097 "},"ś":{"ha":604,"x_min":0,"x_max":0,"o":"m 125 201 b 172 156 139 183 154 168 b 299 111 204 133 244 111 b 417 194 376 111 417 151 b 63 486 417 306 63 249 b 306 681 63 590 154 681 b 483 635 385 681 444 657 b 542 590 507 622 526 607 l 451 500 b 413 528 440 510 428 519 b 306 556 386 543 350 556 b 201 486 235 556 201 521 b 556 194 201 375 556 431 b 299 -14 556 83 460 -14 b 101 49 210 -14 146 17 b 35 111 75 67 53 88 m 354 972 l 500 972 l 354 778 l 250 778 "},"Ŝ":{"ha":792,"x_min":0,"x_max":0,"o":"m 146 236 b 204 181 161 215 181 197 b 389 125 244 153 306 125 b 583 271 515 125 583 193 b 69 715 583 486 69 354 b 403 986 69 861 196 986 b 631 924 503 986 579 956 b 708 861 661 906 688 885 l 604 757 b 553 801 589 774 572 789 b 403 847 519 824 468 847 b 222 715 285 847 222 786 b 736 271 222 500 736 632 b 389 -14 736 118 604 -14 b 126 58 271 -14 183 21 b 42 132 93 79 65 104 m 333 1292 l 458 1292 l 618 1097 l 493 1097 l 396 1215 l 299 1097 l 174 1097 "},"ŝ":{"ha":604,"x_min":0,"x_max":0,"o":"m 125 201 b 172 156 139 183 154 168 b 299 111 204 133 244 111 b 417 194 376 111 417 151 b 63 486 417 306 63 249 b 306 681 63 590 154 681 b 483 635 385 681 444 657 b 542 590 507 622 526 607 l 451 500 b 413 528 440 510 428 519 b 306 556 386 543 350 556 b 201 486 235 556 201 521 b 556 194 201 375 556 431 b 299 -14 556 83 460 -14 b 101 49 210 -14 146 17 b 35 111 75 67 53 88 m 243 972 l 368 972 l 528 778 l 403 778 l 306 896 l 208 778 l 83 778 "},"Ş":{"ha":792,"x_min":0,"x_max":0,"o":"m 278 -187 b 306 -206 286 -194 296 -201 b 375 -222 322 -215 347 -222 b 431 -176 410 -222 431 -203 b 382 -132 431 -153 410 -132 b 350 -139 367 -132 357 -135 l 340 -146 l 299 -104 l 340 -14 b 115 67 239 -4 165 33 b 42 132 86 86 61 108 l 146 236 b 204 181 161 215 181 197 b 389 125 244 153 306 125 b 583 271 515 125 583 193 b 69 715 583 486 69 354 b 403 986 69 861 196 986 b 631 924 503 986 579 956 b 708 861 661 906 688 885 l 604 757 b 553 801 589 774 572 789 b 403 847 519 824 468 847 b 222 715 285 847 222 786 b 736 271 222 500 736 632 b 431 -14 736 125 618 8 l 403 -69 b 458 -86 424 -71 442 -76 b 514 -181 486 -101 514 -129 b 375 -299 514 -243 465 -299 b 278 -275 332 -299 300 -287 b 243 -250 265 -268 253 -260 "},"ş":{"ha":604,"x_min":0,"x_max":0,"o":"m 188 -187 b 215 -206 196 -194 206 -201 b 285 -222 232 -215 257 -222 b 340 -176 319 -222 340 -203 b 292 -132 340 -153 319 -132 b 260 -139 276 -132 267 -135 l 250 -146 l 208 -104 l 250 -14 b 90 57 179 -4 128 28 b 35 111 69 74 50 92 l 125 201 b 172 156 139 183 154 168 b 299 111 204 133 244 111 b 417 194 376 111 417 151 b 63 486 417 306 63 249 b 306 681 63 590 154 681 b 483 635 385 681 444 657 b 542 590 507 622 526 607 l 451 500 b 413 528 440 510 428 519 b 306 556 386 543 350 556 b 201 486 235 556 201 521 b 556 194 201 375 556 431 b 340 -14 556 82 472 1 l 313 -69 b 368 -86 333 -71 351 -76 b 424 -181 396 -101 424 -129 b 285 -299 424 -243 375 -299 b 188 -275 242 -299 210 -287 b 153 -250 175 -268 163 -260 "},"Š":{"ha":792,"x_min":0,"x_max":0,"o":"m 146 236 b 204 181 161 215 181 197 b 389 125 244 153 306 125 b 583 271 515 125 583 193 b 69 715 583 486 69 354 b 403 986 69 861 196 986 b 631 924 503 986 579 956 b 708 861 661 906 688 885 l 604 757 b 553 801 589 774 572 789 b 403 847 519 824 468 847 b 222 715 285 847 222 786 b 736 271 222 500 736 632 b 389 -14 736 118 604 -14 b 126 58 271 -14 183 21 b 42 132 93 79 65 104 m 174 1292 l 299 1292 l 396 1174 l 493 1292 l 618 1292 l 458 1097 l 333 1097 "},"š":{"ha":604,"x_min":0,"x_max":0,"o":"m 125 201 b 172 156 139 183 154 168 b 299 111 204 133 244 111 b 417 194 376 111 417 151 b 63 486 417 306 63 249 b 306 681 63 590 154 681 b 483 635 385 681 444 657 b 542 590 507 622 526 607 l 451 500 b 413 528 440 510 428 519 b 306 556 386 543 350 556 b 201 486 235 556 201 521 b 556 194 201 375 556 431 b 299 -14 556 83 460 -14 b 101 49 210 -14 146 17 b 35 111 75 67 53 88 m 83 972 l 208 972 l 306 854 l 403 972 l 528 972 l 368 778 l 243 778 "},"Ţ":{"ha":792,"x_min":0,"x_max":0,"o":"m 292 -187 b 319 -206 300 -194 310 -201 b 389 -222 336 -215 361 -222 b 444 -176 424 -222 444 -203 b 396 -132 444 -153 424 -132 b 364 -139 381 -132 371 -135 l 354 -146 l 313 -104 l 361 0 l 319 0 l 319 826 l 28 826 l 28 972 l 764 972 l 764 826 l 472 826 l 472 0 l 451 0 l 417 -69 b 472 -86 438 -71 456 -76 b 528 -181 500 -101 528 -129 b 389 -299 528 -243 479 -299 b 292 -275 346 -299 314 -287 b 257 -250 279 -268 267 -260 "},"ţ":{"ha":549,"x_min":0,"x_max":0,"o":"m 222 -187 b 250 -206 231 -194 240 -201 b 319 -222 267 -215 292 -222 b 375 -176 354 -222 375 -203 b 326 -132 375 -153 354 -132 b 294 -139 311 -132 301 -135 l 285 -146 l 243 -104 l 292 0 b 229 33 268 6 247 17 b 167 208 197 63 167 114 l 167 535 l 42 535 l 42 667 l 118 667 b 181 743 161 667 181 688 l 181 889 l 306 889 l 306 667 l 458 667 l 458 535 l 306 535 l 306 222 b 403 118 306 153 338 118 b 457 128 424 118 442 122 l 479 139 l 479 7 b 447 -4 469 3 458 0 b 375 -14 426 -10 403 -14 l 347 -69 b 403 -86 368 -71 386 -76 b 458 -181 431 -101 458 -129 b 319 -299 458 -243 410 -299 b 222 -275 276 -299 244 -287 b 188 -250 210 -268 197 -260 "},"Ť":{"ha":792,"x_min":0,"x_max":0,"o":"m 319 826 l 28 826 l 28 972 l 764 972 l 764 826 l 472 826 l 472 0 l 319 0 m 174 1292 l 299 1292 l 396 1174 l 493 1292 l 618 1292 l 458 1097 l 333 1097 "},"ť":{"ha":549,"x_min":0,"x_max":0,"o":"m 167 535 l 42 535 l 42 667 l 118 667 b 181 743 161 667 181 688 l 181 889 l 306 889 l 306 667 l 458 667 l 458 535 l 306 535 l 306 222 b 403 118 306 153 338 118 b 457 128 424 118 442 122 l 479 139 l 479 7 l 450 -4 b 375 -14 432 -10 407 -14 b 167 208 242 -14 167 63 m 507 972 l 639 972 l 549 778 l 444 778 "},"Ŧ":{"ha":792,"x_min":0,"x_max":0,"o":"m 319 479 l 111 479 l 111 611 l 319 611 l 319 826 l 28 826 l 28 972 l 764 972 l 764 826 l 472 826 l 472 611 l 681 611 l 681 479 l 472 479 l 472 0 l 319 0 "},"ŧ":{"ha":549,"x_min":0,"x_max":0,"o":"m 42 424 l 167 424 l 167 542 l 42 542 l 42 667 l 118 667 b 181 743 161 667 181 688 l 181 889 l 306 889 l 306 667 l 458 667 l 458 542 l 306 542 l 306 424 l 458 424 l 458 299 l 306 299 l 306 222 b 403 118 306 153 338 118 b 457 128 424 118 442 122 l 479 139 l 479 7 l 450 -4 b 375 -14 432 -10 407 -14 b 167 208 242 -14 167 63 l 167 299 l 42 299 "},"Ū":{"ha":1069,"x_min":0,"x_max":0,"o":"m 125 972 l 278 972 l 278 389 b 535 125 278 236 389 125 b 792 389 674 125 792 243 l 792 972 l 944 972 l 944 389 b 535 -14 944 153 778 -14 b 125 389 292 -14 125 153 m 326 1243 l 743 1243 l 743 1146 l 326 1146 "},"ū":{"ha":806,"x_min":0,"x_max":0,"o":"m 97 667 l 236 667 l 236 278 b 389 118 236 179 299 118 b 569 306 493 118 569 194 l 569 667 l 708 667 l 708 0 l 569 0 l 569 97 b 517 42 554 76 538 58 b 361 -14 482 14 432 -14 b 97 278 208 -14 97 96 m 194 938 l 611 938 l 611 840 l 194 840 "},"Ŭ":{"ha":1069,"x_min":0,"x_max":0,"o":"m 125 972 l 278 972 l 278 389 b 535 125 278 236 389 125 b 792 389 674 125 792 243 l 792 972 l 944 972 l 944 389 b 535 -14 944 153 778 -14 b 125 389 292 -14 125 153 m 438 1292 b 535 1194 438 1236 479 1194 b 632 1292 590 1194 632 1236 l 736 1292 b 535 1097 736 1181 653 1097 b 333 1292 417 1097 333 1181 "},"ŭ":{"ha":806,"x_min":0,"x_max":0,"o":"m 97 667 l 236 667 l 236 278 b 389 118 236 179 299 118 b 569 306 493 118 569 194 l 569 667 l 708 667 l 708 0 l 569 0 l 569 97 b 517 42 554 76 538 58 b 361 -14 482 14 432 -14 b 97 278 208 -14 97 96 m 306 972 b 403 875 306 917 347 875 b 500 972 458 875 500 917 l 604 972 b 403 778 604 861 521 778 b 201 972 285 778 201 861 "},"Ů":{"ha":1069,"x_min":0,"x_max":0,"o":"m 125 972 l 278 972 l 278 389 b 535 125 278 236 389 125 b 792 389 674 125 792 243 l 792 972 l 944 972 l 944 389 b 535 -14 944 153 778 -14 b 125 389 292 -14 125 153 m 389 1208 b 535 1347 389 1285 451 1347 b 681 1208 618 1347 681 1285 b 535 1069 681 1132 618 1069 b 389 1208 451 1069 389 1132 m 597 1208 b 535 1271 597 1243 569 1271 b 472 1208 500 1271 472 1243 b 535 1146 472 1174 500 1146 b 597 1208 569 1146 597 1174 "},"ů":{"ha":806,"x_min":0,"x_max":0,"o":"m 97 667 l 236 667 l 236 278 b 389 118 236 179 299 118 b 569 306 493 118 569 194 l 569 667 l 708 667 l 708 0 l 569 0 l 569 97 b 517 42 554 76 538 58 b 361 -14 482 14 432 -14 b 97 278 208 -14 97 96 m 257 889 b 403 1028 257 965 319 1028 b 549 889 486 1028 549 965 b 403 750 549 813 486 750 b 257 889 319 750 257 813 m 465 889 b 403 951 465 924 438 951 b 340 889 368 951 340 924 b 403 826 340 854 368 826 b 465 889 438 826 465 854 "},"Ű":{"ha":1069,"x_min":0,"x_max":0,"o":"m 125 972 l 278 972 l 278 389 b 535 125 278 236 389 125 b 792 389 674 125 792 243 l 792 972 l 944 972 l 944 389 b 535 -14 944 153 778 -14 b 125 389 292 -14 125 153 m 465 1292 l 611 1292 l 465 1097 l 361 1097 m 708 1292 l 854 1292 l 708 1097 l 604 1097 "},"ű":{"ha":806,"x_min":0,"x_max":0,"o":"m 97 667 l 236 667 l 236 278 b 389 118 236 179 299 118 b 569 306 493 118 569 194 l 569 667 l 708 667 l 708 0 l 569 0 l 569 97 b 517 42 554 76 538 58 b 361 -14 482 14 432 -14 b 97 278 208 -14 97 96 m 333 972 l 479 972 l 333 778 l 229 778 m 576 972 l 722 972 l 576 778 l 472 778 "},"Ų":{"ha":1069,"x_min":0,"x_max":0,"o":"m 125 972 l 278 972 l 278 389 b 535 125 278 236 389 125 b 792 389 674 125 792 243 l 792 972 l 944 972 l 944 389 b 594 -10 944 174 806 13 b 542 -147 586 -26 542 -87 b 611 -208 542 -181 568 -208 b 658 -201 629 -208 644 -206 b 681 -194 665 -200 674 -197 l 681 -278 b 653 -289 672 -282 663 -285 b 583 -299 635 -294 611 -299 b 444 -167 500 -299 444 -244 b 507 -12 444 -78 503 -17 b 125 389 279 -1 125 161 "},"ų":{"ha":806,"x_min":0,"x_max":0,"o":"m 97 667 l 236 667 l 236 278 b 389 118 236 179 299 118 b 569 306 493 118 569 194 l 569 667 l 708 667 l 708 0 l 653 0 b 621 -50 640 -17 631 -33 b 590 -147 606 -79 590 -115 b 660 -208 590 -181 617 -208 b 707 -201 678 -208 693 -206 b 729 -194 714 -200 722 -197 l 729 -278 b 701 -289 721 -282 711 -285 b 632 -299 683 -294 660 -299 b 493 -167 549 -299 493 -244 b 531 -50 493 -122 510 -82 b 569 0 542 -32 554 -15 l 569 97 b 517 42 554 76 538 58 b 361 -14 482 14 432 -14 b 97 278 208 -14 97 96 "},"Ŵ":{"ha":1458,"x_min":0,"x_max":0,"o":"m 28 972 l 188 972 l 424 243 l 653 972 l 806 972 l 1035 243 l 1271 972 l 1431 972 l 1111 0 l 958 0 l 729 729 l 500 0 l 347 0 m 667 1292 l 792 1292 l 951 1097 l 826 1097 l 729 1215 l 632 1097 l 507 1097 "},"ŵ":{"ha":1056,"x_min":0,"x_max":0,"o":"m 14 667 l 167 667 l 319 215 l 465 667 l 590 667 l 736 215 l 889 667 l 1042 667 l 806 0 l 674 0 l 528 444 l 382 0 l 250 0 m 465 972 l 590 972 l 750 778 l 625 778 l 528 896 l 431 778 l 306 778 "},"Ŷ":{"ha":903,"x_min":0,"x_max":0,"o":"m 375 347 l 7 972 l 181 972 l 451 500 l 722 972 l 896 972 l 528 347 l 528 0 l 375 0 m 389 1292 l 514 1292 l 674 1097 l 549 1097 l 451 1215 l 354 1097 l 229 1097 "},"ŷ":{"ha":708,"x_min":0,"x_max":0,"o":"m 56 -139 b 79 -150 63 -143 69 -146 b 139 -160 94 -156 113 -160 b 257 -69 194 -160 235 -125 l 285 0 l 14 667 l 167 667 l 354 174 l 542 667 l 694 667 l 403 -76 b 160 -292 347 -217 271 -292 b 85 -282 128 -292 103 -287 l 56 -271 m 292 972 l 417 972 l 576 778 l 451 778 l 354 896 l 257 778 l 132 778 "},"Ÿ":{"ha":903,"x_min":0,"x_max":0,"o":"m 375 347 l 7 972 l 181 972 l 451 500 l 722 972 l 896 972 l 528 347 l 528 0 l 375 0 m 229 1181 b 313 1264 229 1229 269 1264 b 396 1181 356 1264 396 1229 b 313 1097 396 1132 356 1097 b 229 1181 269 1097 229 1132 m 507 1181 b 590 1264 507 1229 547 1264 b 674 1181 633 1264 674 1229 b 590 1097 674 1132 633 1097 b 507 1181 547 1097 507 1132 "},"Ź":{"ha":861,"x_min":0,"x_max":0,"o":"m 63 146 l 604 826 l 83 826 l 83 972 l 785 972 l 785 826 l 243 146 l 799 146 l 799 0 l 63 0 m 479 1292 l 625 1292 l 479 1097 l 375 1097 "},"ź":{"ha":674,"x_min":0,"x_max":0,"o":"m 56 132 l 424 535 l 69 535 l 69 667 l 604 667 l 604 535 l 236 132 l 618 132 l 618 0 l 56 0 m 382 972 l 528 972 l 382 778 l 278 778 "},"Ż":{"ha":861,"x_min":0,"x_max":0,"o":"m 63 146 l 604 826 l 83 826 l 83 972 l 785 972 l 785 826 l 243 146 l 799 146 l 799 0 l 63 0 m 347 1181 b 431 1264 347 1229 388 1264 b 514 1181 474 1264 514 1229 b 431 1097 514 1132 474 1097 b 347 1181 388 1097 347 1132 "},"ż":{"ha":674,"x_min":0,"x_max":0,"o":"m 56 132 l 424 535 l 69 535 l 69 667 l 604 667 l 604 535 l 236 132 l 618 132 l 618 0 l 56 0 m 250 875 b 333 958 250 924 290 958 b 417 875 376 958 417 924 b 333 792 417 826 376 792 b 250 875 290 792 250 826 "},"Ž":{"ha":861,"x_min":0,"x_max":0,"o":"m 63 146 l 604 826 l 83 826 l 83 972 l 785 972 l 785 826 l 243 146 l 799 146 l 799 0 l 63 0 m 208 1292 l 333 1292 l 431 1174 l 528 1292 l 653 1292 l 493 1097 l 368 1097 "},"ž":{"ha":674,"x_min":0,"x_max":0,"o":"m 56 132 l 424 535 l 69 535 l 69 667 l 604 667 l 604 535 l 236 132 l 618 132 l 618 0 l 56 0 m 118 972 l 243 972 l 340 854 l 438 972 l 563 972 l 403 778 l 278 778 "},"Ə":{"ha":1104,"x_min":0,"x_max":0,"o":"m 69 521 l 875 521 b 535 847 860 710 724 847 b 313 785 436 847 363 817 b 236 722 283 767 257 746 l 139 819 b 240 903 168 851 201 879 b 535 986 307 946 406 986 b 1028 486 819 986 1028 779 b 549 -14 1028 193 819 -14 b 69 486 278 -14 69 193 m 236 389 b 549 125 251 257 381 125 b 861 389 717 125 846 257 "},"ƒ":{"ha":535,"x_min":0,"x_max":0,"o":"m -111 -146 b -86 -153 -104 -149 -96 -151 b -35 -160 -69 -157 -53 -160 b 76 -69 36 -160 64 -132 l 174 444 l 69 444 l 69 569 l 197 569 l 236 764 b 465 986 268 918 332 986 b 535 975 493 986 517 981 b 563 965 544 971 554 968 l 563 840 l 538 847 b 486 854 522 851 503 854 b 375 764 415 854 388 826 l 336 569 l 486 569 l 486 444 l 313 444 l 215 -69 b -14 -292 186 -224 119 -292 b -83 -282 -42 -292 -67 -287 b -111 -271 -93 -278 -103 -275 "},"Ǻ":{"ha":972,"x_min":0,"x_max":0,"o":"m 396 944 b 368 971 386 951 376 961 b 340 1056 353 989 340 1017 b 486 1194 340 1132 403 1194 b 632 1056 569 1194 632 1132 b 604 971 632 1017 619 989 b 576 944 596 961 586 951 l 958 0 l 799 0 l 701 250 l 271 250 l 174 0 l 14 0 m 646 389 l 486 792 l 326 389 m 528 1389 l 667 1389 l 542 1215 l 431 1215 m 486 993 b 549 1056 521 993 549 1021 b 486 1118 549 1090 521 1118 b 424 1056 451 1118 424 1090 b 486 993 424 1021 451 993 "},"ǻ":{"ha":722,"x_min":0,"x_max":0,"o":"m 424 1153 l 563 1153 l 438 993 l 326 993 m 236 833 b 382 972 236 910 299 972 b 528 833 465 972 528 910 b 382 694 528 757 465 694 b 236 833 299 694 236 757 m 382 771 b 444 833 417 771 444 799 b 382 896 444 868 417 896 b 319 833 347 896 319 868 b 382 771 319 799 347 771 m 486 97 b 433 42 472 76 454 58 b 271 -14 396 14 343 -14 b 49 181 138 -14 49 76 b 243 389 49 292 125 368 l 486 431 b 347 556 486 501 431 556 b 221 510 293 556 253 532 b 174 465 203 497 188 482 l 83 556 b 150 618 101 579 124 600 b 347 681 194 650 258 681 b 625 424 514 681 625 569 l 625 0 l 486 0 m 486 319 l 292 285 b 188 194 221 272 188 238 b 299 104 188 146 228 104 b 486 299 403 104 486 188 "},"Ǽ":{"ha":1354,"x_min":0,"x_max":0,"o":"m 507 972 l 1278 972 l 1278 826 l 799 826 l 799 576 l 1167 576 l 1167 431 l 799 431 l 799 146 l 1292 146 l 1292 0 l 646 0 l 646 264 l 278 264 l 132 0 l -35 0 m 646 403 l 646 826 l 590 826 l 354 403 m 806 1292 l 951 1292 l 806 1097 l 701 1097 "},"ǽ":{"ha":1194,"x_min":0,"x_max":0,"o":"m 83 556 b 150 618 101 579 124 600 b 347 681 194 650 258 681 b 515 621 425 681 478 650 b 569 563 536 604 554 585 b 632 621 588 585 608 604 b 819 681 675 650 736 681 b 1139 354 1001 681 1139 543 b 1135 304 1139 333 1136 317 l 1132 285 l 632 285 b 833 118 647 194 728 118 b 968 163 889 118 935 140 b 1021 208 988 175 1006 190 l 1104 111 b 1036 49 1086 88 1063 67 b 826 -14 990 17 921 -14 b 624 58 736 -14 668 21 b 556 132 597 79 574 104 b 492 58 538 104 517 79 b 299 -14 449 21 386 -14 b 49 194 139 -14 49 76 b 340 403 49 306 146 403 l 486 403 b 347 556 486 501 431 556 b 221 510 293 556 253 532 b 174 465 203 497 188 482 m 993 403 b 819 556 972 493 910 556 b 632 403 721 556 660 493 m 340 292 b 188 194 229 292 188 250 b 299 104 188 146 228 104 b 486 292 403 104 486 188 m 618 972 l 764 972 l 618 778 l 514 778 "},"Ǿ":{"ha":1181,"x_min":0,"x_max":0,"o":"m 799 785 b 739 815 781 796 761 806 b 590 847 701 831 650 847 b 229 486 389 847 229 688 b 260 339 229 424 244 374 b 292 285 269 318 279 300 m 181 181 b 128 263 161 204 143 232 b 76 486 101 317 76 392 b 590 986 76 764 299 986 b 817 938 685 986 763 961 b 903 889 849 922 876 907 l 1028 1014 l 1125 917 l 1000 792 b 1051 710 1018 768 1036 740 b 1104 486 1078 656 1104 581 b 590 -14 1104 208 882 -14 b 364 35 496 -14 418 8 b 278 83 332 49 304 65 l 153 -42 l 56 56 m 382 188 b 442 156 400 175 419 165 b 590 125 479 140 531 125 b 951 486 792 125 951 285 b 919 633 951 549 935 599 b 889 688 910 654 900 672 m 653 1292 l 799 1292 l 653 1097 l 549 1097 "},"ǿ":{"ha":806,"x_min":0,"x_max":0,"o":"m 507 521 b 478 535 497 526 488 531 b 403 549 460 542 435 549 b 194 333 290 549 194 465 b 208 256 194 299 201 272 b 222 229 213 246 217 236 m 125 125 b 90 182 113 142 100 161 b 56 333 72 219 56 271 b 403 681 56 528 208 681 b 544 649 463 681 511 664 b 597 618 564 639 582 629 l 681 708 l 764 632 l 681 542 b 715 485 693 525 706 506 b 750 333 732 447 750 396 b 403 -14 750 139 597 -14 b 261 17 343 -14 294 1 b 208 49 242 26 224 36 l 125 -42 l 42 35 m 299 146 b 328 132 308 140 318 136 b 403 118 346 125 371 118 b 611 333 515 118 611 201 b 597 411 611 368 604 393 b 583 438 593 421 589 431 m 451 972 l 597 972 l 451 778 l 347 778 "},"Ș":{"ha":792,"x_min":0,"x_max":0,"o":"m 146 236 b 204 181 161 215 181 197 b 389 125 244 153 306 125 b 583 271 515 125 583 193 b 69 715 583 486 69 354 b 403 986 69 861 196 986 b 631 924 503 986 579 956 b 708 861 661 906 688 885 l 604 757 b 553 801 589 774 572 789 b 403 847 519 824 468 847 b 222 715 285 847 222 786 b 736 271 222 500 736 632 b 389 -14 736 118 604 -14 b 126 58 271 -14 183 21 b 42 132 93 79 65 104 m 333 -111 l 465 -111 l 375 -306 l 271 -306 "},"ș":{"ha":604,"x_min":0,"x_max":0,"o":"m 125 201 b 172 156 139 183 154 168 b 299 111 204 133 244 111 b 417 194 376 111 417 151 b 63 486 417 306 63 249 b 306 681 63 590 154 681 b 483 635 385 681 444 657 b 542 590 507 622 526 607 l 451 500 b 413 528 440 510 428 519 b 306 556 386 543 350 556 b 201 486 235 556 201 521 b 556 194 201 375 556 431 b 299 -14 556 83 460 -14 b 101 49 210 -14 146 17 b 35 111 75 67 53 88 m 236 -111 l 368 -111 l 278 -306 l 174 -306 "},"Ț":{"ha":792,"x_min":0,"x_max":0,"o":"m 319 826 l 28 826 l 28 972 l 764 972 l 764 826 l 472 826 l 472 0 l 319 0 m 333 -111 l 465 -111 l 375 -306 l 271 -306 "},"ț":{"ha":549,"x_min":0,"x_max":0,"o":"m 167 535 l 42 535 l 42 667 l 118 667 b 181 743 161 667 181 688 l 181 889 l 306 889 l 306 667 l 458 667 l 458 535 l 306 535 l 306 222 b 403 118 306 153 338 118 b 457 128 424 118 442 122 l 479 139 l 479 7 l 450 -4 b 375 -14 432 -10 407 -14 b 167 208 242 -14 167 63 m 264 -111 l 396 -111 l 306 -306 l 201 -306 "},"Ȳ":{"ha":903,"x_min":0,"x_max":0,"o":"m 375 347 l 7 972 l 181 972 l 451 500 l 722 972 l 896 972 l 528 347 l 528 0 l 375 0 m 243 1243 l 660 1243 l 660 1146 l 243 1146 "},"ȳ":{"ha":708,"x_min":0,"x_max":0,"o":"m 56 -139 b 79 -150 63 -143 69 -146 b 139 -160 94 -156 113 -160 b 257 -69 194 -160 235 -125 l 285 0 l 14 667 l 167 667 l 354 174 l 542 667 l 694 667 l 403 -76 b 160 -292 347 -217 271 -292 b 85 -282 128 -292 103 -287 l 56 -271 m 146 972 l 563 972 l 563 875 l 146 875 "},"Ʉ":{"ha":1083,"x_min":0,"x_max":0,"o":"m 14 646 l 146 646 l 146 972 l 299 972 l 299 646 l 785 646 l 785 972 l 938 972 l 938 646 l 1069 646 l 1069 507 l 938 507 l 938 389 b 542 -14 938 144 779 -14 b 146 389 304 -14 146 144 l 146 507 l 14 507 m 299 389 b 542 125 299 229 403 125 b 785 389 681 125 785 229 l 785 507 l 299 507 "},"ə":{"ha":778,"x_min":0,"x_max":0,"o":"m 576 382 b 368 549 561 472 481 549 b 226 503 308 549 260 525 b 174 458 207 490 189 475 l 90 556 b 160 618 108 579 132 600 b 375 681 208 650 276 681 b 722 333 569 681 722 528 b 382 -14 722 139 569 -14 b 56 313 193 -14 56 124 b 58 363 56 333 57 350 l 63 382 m 201 264 b 382 111 222 174 283 111 b 576 264 488 111 549 174 "},"ʉ":{"ha":849,"x_min":0,"x_max":0,"o":"m 28 458 l 125 458 l 125 667 l 264 667 l 264 458 l 583 458 l 583 667 l 722 667 l 722 458 l 821 458 l 821 340 l 722 340 l 722 0 l 583 0 l 583 97 b 532 42 568 76 551 58 b 382 -14 499 14 447 -14 b 125 278 236 -14 125 96 l 125 340 l 28 340 m 264 278 b 410 118 264 179 326 118 b 583 306 507 118 583 194 l 583 340 l 264 340 "},"ʼ":{"ha":278,"x_min":0,"x_max":0,"o":"m 104 972 l 236 972 l 146 778 l 42 778 "},"ˆ":{"ha":528,"x_min":0,"x_max":0,"o":"m 201 972 l 326 972 l 486 778 l 361 778 l 264 896 l 167 778 l 42 778 "},"ˇ":{"ha":528,"x_min":0,"x_max":0,"o":"m 42 972 l 167 972 l 264 854 l 361 972 l 486 972 l 326 778 l 201 778 "},"˘":{"ha":486,"x_min":0,"x_max":0,"o":"m 146 972 b 243 875 146 917 188 875 b 340 972 299 875 340 917 l 444 972 b 243 778 444 861 361 778 b 42 972 125 778 42 861 "},"˙":{"ha":250,"x_min":0,"x_max":0,"o":"m 42 875 b 125 958 42 924 82 958 b 208 875 168 958 208 924 b 125 792 208 826 168 792 b 42 875 82 792 42 826 "},"˚":{"ha":375,"x_min":0,"x_max":0,"o":"m 42 833 b 188 972 42 910 104 972 b 333 833 271 972 333 910 b 188 694 333 757 271 694 b 42 833 104 694 42 757 m 250 833 b 188 896 250 868 222 896 b 125 833 153 896 125 868 b 188 771 125 799 153 771 b 250 833 222 771 250 799 "},"˛":{"ha":319,"x_min":0,"x_max":0,"o":"m 278 -278 b 250 -289 269 -282 260 -285 b 181 -299 232 -294 208 -299 b 42 -167 97 -299 42 -244 b 79 -50 42 -122 58 -82 b 118 0 90 -32 103 -15 l 201 0 b 169 -50 189 -17 179 -33 b 139 -147 154 -79 139 -115 b 208 -208 139 -181 165 -208 b 256 -201 226 -208 242 -206 b 278 -194 263 -200 271 -197 "},"˜":{"ha":549,"x_min":0,"x_max":0,"o":"m 42 785 b 181 972 42 918 97 972 b 361 889 271 972 306 889 b 417 972 396 889 417 910 l 507 972 b 368 785 507 839 451 785 b 188 868 278 785 243 868 b 132 785 153 868 132 847 "},"˝":{"ha":576,"x_min":0,"x_max":0,"o":"m 146 972 l 292 972 l 146 778 l 42 778 m 389 972 l 535 972 l 389 778 l 285 778 "},"́":{"ha":0,"x_min":0,"x_max":0,"o":"m -486 1208 l -340 1208 l -486 1014 l -590 1014 "},"̂":{"ha":0,"x_min":0,"x_max":0,"o":"m -597 1208 l -472 1208 l -312 1014 l -437 1014 l -535 1132 l -632 1014 l -757 1014 "},"̄":{"ha":0,"x_min":0,"x_max":0,"o":"m -736 1160 l -319 1160 l -319 1063 l -736 1063 "},"̆":{"ha":0,"x_min":0,"x_max":0,"o":"m -625 1194 b -528 1097 -625 1139 -583 1097 b -431 1194 -472 1097 -431 1139 l -326 1194 b -528 1000 -326 1083 -410 1000 b -729 1194 -646 1000 -729 1083 "},"̇":{"ha":0,"x_min":0,"x_max":0,"o":"m -611 1104 b -528 1188 -611 1153 -571 1188 b -444 1104 -485 1188 -444 1153 b -528 1021 -444 1056 -485 1021 b -611 1104 -571 1021 -611 1056 "},"̈":{"ha":0,"x_min":0,"x_max":0,"o":"m -757 1104 b -674 1188 -757 1153 -717 1188 b -590 1104 -631 1188 -590 1153 b -674 1021 -590 1056 -631 1021 b -757 1104 -717 1021 -757 1056 m -479 1104 b -396 1188 -479 1153 -439 1188 b -312 1104 -353 1188 -312 1153 b -396 1021 -312 1056 -353 1021 b -479 1104 -439 1021 -479 1056 "},"̊":{"ha":0,"x_min":0,"x_max":0,"o":"m -674 1153 b -528 1292 -674 1229 -611 1292 b -382 1153 -444 1292 -382 1229 b -528 1014 -382 1076 -444 1014 b -674 1153 -611 1014 -674 1076 m -465 1153 b -528 1215 -465 1188 -493 1215 b -590 1153 -562 1215 -590 1188 b -528 1090 -590 1118 -562 1090 b -465 1153 -493 1090 -465 1118 "},"̌":{"ha":0,"x_min":0,"x_max":0,"o":"m -750 1208 l -625 1208 l -528 1090 l -431 1208 l -306 1208 l -465 1014 l -590 1014 "},"̦":{"ha":278,"x_min":0,"x_max":0,"o":"m 104 -111 l 236 -111 l 146 -306 l 42 -306 "},"Ά":{"ha":972,"x_min":0,"x_max":0,"o":"m 403 972 l 569 972 l 958 0 l 799 0 l 701 250 l 271 250 l 174 0 l 14 0 m 646 389 l 486 792 l 326 389 m 167 972 l 313 972 l 167 778 l 63 778 "},"Έ":{"ha":924,"x_min":0,"x_max":0,"o":"m 160 972 l 847 972 l 847 826 l 313 826 l 313 576 l 736 576 l 736 431 l 313 431 l 313 146 l 861 146 l 861 0 l 160 0 m -21 972 l 125 972 l -21 778 l -125 778 "},"Ή":{"ha":1083,"x_min":0,"x_max":0,"o":"m 160 972 l 313 972 l 313 563 l 792 563 l 792 972 l 944 972 l 944 0 l 792 0 l 792 424 l 313 424 l 313 0 l 160 0 m -21 972 l 125 972 l -21 778 l -125 778 "},"Ί":{"ha":451,"x_min":0,"x_max":0,"o":"m 160 972 l 313 972 l 313 0 l 160 0 m -21 972 l 125 972 l -21 778 l -125 778 "},"Ό":{"ha":1196,"x_min":0,"x_max":0,"o":"m 244 486 b 606 125 244 285 404 125 b 967 486 807 125 967 285 b 606 847 967 688 807 847 b 244 486 404 847 244 688 m 92 486 b 606 986 92 764 314 986 b 1119 486 897 986 1119 764 b 606 -14 1119 208 897 -14 b 92 486 314 -14 92 208 m 49 972 l 194 972 l 49 778 l -56 778 "},"Ύ":{"ha":1014,"x_min":0,"x_max":0,"o":"m 486 347 l 118 972 l 292 972 l 563 500 l 833 972 l 1007 972 l 639 347 l 639 0 l 486 0 m -42 972 l 104 972 l -42 778 l -146 778 "},"Ώ":{"ha":1194,"x_min":0,"x_max":0,"o":"m 125 139 l 292 139 b 194 231 256 164 224 194 b 97 500 146 292 97 382 b 604 986 97 771 311 986 b 1111 500 896 986 1111 771 b 1014 231 1111 382 1063 292 b 917 139 985 194 953 164 l 1083 139 l 1083 0 l 701 0 l 701 132 b 958 486 840 196 958 311 b 604 840 958 688 806 840 b 250 486 403 840 250 688 b 507 132 250 313 367 194 l 507 0 l 125 0 m 49 972 l 194 972 l 49 778 l -56 778 "},"ΐ":{"ha":424,"x_min":0,"x_max":0,"o":"m 174 972 l 299 972 l 160 778 l 69 778 m -69 875 b 14 958 -69 924 -29 958 b 97 875 57 958 97 924 b 14 792 97 826 57 792 b -69 875 -29 792 -69 826 m 264 875 b 347 958 264 924 304 958 b 431 875 390 958 431 924 b 347 792 431 826 390 792 b 264 875 304 792 264 826 m 104 667 l 243 667 l 243 215 b 333 118 243 153 278 118 b 381 128 350 118 365 121 l 403 139 l 403 7 b 375 -4 394 3 385 0 b 306 -14 357 -10 333 -14 b 104 201 179 -14 104 63 "},"Α":{"ha":972,"x_min":0,"x_max":0,"o":"m 403 972 l 569 972 l 958 0 l 799 0 l 701 250 l 271 250 l 174 0 l 14 0 m 646 389 l 486 792 l 326 389 "},"Β":{"ha":944,"x_min":0,"x_max":0,"o":"m 139 972 l 528 972 b 819 715 701 972 819 854 b 760 564 819 642 789 596 b 701 521 743 546 724 532 b 785 468 733 508 761 490 b 868 285 828 431 868 372 b 549 0 868 132 736 0 l 139 0 m 549 132 b 715 292 647 132 715 201 b 549 451 715 382 647 451 l 292 451 l 292 132 m 528 576 b 667 708 611 576 667 631 b 528 840 667 786 611 840 l 292 840 l 292 576 "},"Γ":{"ha":792,"x_min":0,"x_max":0,"o":"m 139 972 l 764 972 l 764 826 l 292 826 l 292 0 l 139 0 "},"Δ":{"ha":958,"x_min":0,"x_max":0,"o":"m 396 972 l 563 972 l 958 0 l 0 0 m 743 146 l 479 792 l 215 146 "},"Ε":{"ha":903,"x_min":0,"x_max":0,"o":"m 139 972 l 826 972 l 826 826 l 292 826 l 292 576 l 715 576 l 715 431 l 292 431 l 292 146 l 840 146 l 840 0 l 139 0 "},"Ζ":{"ha":861,"x_min":0,"x_max":0,"o":"m 63 146 l 604 826 l 83 826 l 83 972 l 785 972 l 785 826 l 243 146 l 799 146 l 799 0 l 63 0 "},"Η":{"ha":1063,"x_min":0,"x_max":0,"o":"m 139 972 l 292 972 l 292 563 l 771 563 l 771 972 l 924 972 l 924 0 l 771 0 l 771 424 l 292 424 l 292 0 l 139 0 "},"Θ":{"ha":1181,"x_min":0,"x_max":0,"o":"m 333 556 l 847 556 l 847 417 l 333 417 m 229 486 b 590 125 229 285 389 125 b 951 486 792 125 951 285 b 590 847 951 688 792 847 b 229 486 389 847 229 688 m 76 486 b 590 986 76 764 299 986 b 1104 486 882 986 1104 764 b 590 -14 1104 208 882 -14 b 76 486 299 -14 76 208 "},"Ι":{"ha":431,"x_min":0,"x_max":0,"o":"m 139 972 l 292 972 l 292 0 l 139 0 "},"Κ":{"ha":951,"x_min":0,"x_max":0,"o":"m 139 972 l 292 972 l 292 500 l 729 972 l 924 972 l 549 569 l 951 0 l 764 0 l 444 458 l 292 292 l 292 0 l 139 0 "},"Λ":{"ha":972,"x_min":0,"x_max":0,"o":"m 403 972 l 569 972 l 958 0 l 799 0 l 486 792 l 174 0 l 14 0 "},"Μ":{"ha":1292,"x_min":0,"x_max":0,"o":"m 139 972 l 278 972 l 646 500 l 1014 972 l 1153 972 l 1153 0 l 1000 0 l 1000 715 l 646 264 l 292 715 l 292 0 l 139 0 "},"Ν":{"ha":1104,"x_min":0,"x_max":0,"o":"m 139 972 l 278 972 l 813 257 l 813 972 l 965 972 l 965 0 l 826 0 l 292 715 l 292 0 l 139 0 "},"Ξ":{"ha":944,"x_min":0,"x_max":0,"o":"m 83 146 l 861 146 l 861 0 l 83 0 m 104 972 l 840 972 l 840 826 l 104 826 m 194 576 l 750 576 l 750 431 l 194 431 "},"Ο":{"ha":1181,"x_min":0,"x_max":0,"o":"m 229 486 b 590 125 229 285 389 125 b 951 486 792 125 951 285 b 590 847 951 688 792 847 b 229 486 389 847 229 688 m 76 486 b 590 986 76 764 299 986 b 1104 486 882 986 1104 764 b 590 -14 1104 208 882 -14 b 76 486 299 -14 76 208 "},"Π":{"ha":1063,"x_min":0,"x_max":0,"o":"m 139 972 l 924 972 l 924 0 l 771 0 l 771 826 l 292 826 l 292 0 l 139 0 "},"Ρ":{"ha":917,"x_min":0,"x_max":0,"o":"m 139 972 l 528 972 b 854 660 717 972 854 833 b 528 347 854 486 717 347 l 292 347 l 292 0 l 139 0 m 528 486 b 701 660 625 486 701 563 b 528 833 701 757 625 833 l 292 833 l 292 486 "},"Σ":{"ha":840,"x_min":0,"x_max":0,"o":"m 83 125 l 382 507 l 83 847 l 83 972 l 785 972 l 785 826 l 278 826 l 563 507 l 278 146 l 785 146 l 785 0 l 83 0 "},"Τ":{"ha":792,"x_min":0,"x_max":0,"o":"m 319 826 l 28 826 l 28 972 l 764 972 l 764 826 l 472 826 l 472 0 l 319 0 "},"Υ":{"ha":903,"x_min":0,"x_max":0,"o":"m 375 347 l 7 972 l 181 972 l 451 500 l 722 972 l 896 972 l 528 347 l 528 0 l 375 0 "},"Φ":{"ha":1194,"x_min":0,"x_max":0,"o":"m 521 799 b 222 493 347 792 222 667 b 521 188 222 319 347 194 m 521 42 b 69 493 257 57 69 243 b 521 944 69 743 257 929 l 521 1049 l 674 1049 l 674 944 b 1125 493 938 929 1125 743 b 674 42 1125 243 938 57 l 674 -69 l 521 -69 m 674 188 b 972 493 847 194 972 319 b 674 799 972 667 847 792 "},"Χ":{"ha":917,"x_min":0,"x_max":0,"o":"m 361 507 l 42 972 l 222 972 l 458 618 l 694 972 l 875 972 l 556 507 l 903 0 l 722 0 l 458 396 l 194 0 l 14 0 "},"Ψ":{"ha":1167,"x_min":0,"x_max":0,"o":"m 507 278 b 97 722 250 290 97 444 l 97 972 l 250 972 l 250 722 b 507 424 250 526 346 431 l 507 972 l 660 972 l 660 424 b 917 722 821 431 917 526 l 917 972 l 1069 972 l 1069 722 b 660 278 1069 444 917 290 l 660 0 l 507 0 "},"Ω":{"ha":1181,"x_min":0,"x_max":0,"o":"m 111 139 l 278 139 b 181 231 242 164 210 194 b 83 500 132 292 83 382 b 590 986 83 771 297 986 b 1097 500 882 986 1097 771 b 1000 231 1097 382 1049 292 b 903 139 971 194 939 164 l 1069 139 l 1069 0 l 688 0 l 688 132 b 944 486 826 196 944 311 b 590 840 944 688 792 840 b 236 486 389 840 236 688 b 493 132 236 313 353 194 l 493 0 l 111 0 "},"Ϊ":{"ha":431,"x_min":0,"x_max":0,"o":"m 139 972 l 292 972 l 292 0 l 139 0 m -7 1181 b 76 1264 -7 1229 33 1264 b 160 1181 119 1264 160 1229 b 76 1097 160 1132 119 1097 b -7 1181 33 1097 -7 1132 m 271 1181 b 354 1264 271 1229 311 1264 b 438 1181 397 1264 438 1229 b 354 1097 438 1132 397 1097 b 271 1181 311 1097 271 1132 "},"Ϋ":{"ha":903,"x_min":0,"x_max":0,"o":"m 375 347 l 7 972 l 181 972 l 451 500 l 722 972 l 896 972 l 528 347 l 528 0 l 375 0 m 229 1181 b 313 1264 229 1229 269 1264 b 396 1181 356 1264 396 1229 b 313 1097 396 1132 356 1097 b 229 1181 269 1097 229 1132 m 507 1181 b 590 1264 507 1229 547 1264 b 674 1181 633 1264 674 1229 b 590 1097 674 1132 633 1097 b 507 1181 547 1097 507 1132 "},"ά":{"ha":861,"x_min":0,"x_max":0,"o":"m 826 0 b 811 -7 822 -3 817 -6 b 764 -14 799 -11 783 -14 b 635 42 697 -14 658 14 b 604 97 621 58 611 76 b 546 42 589 76 569 58 b 368 -14 507 14 447 -14 b 56 333 201 -14 56 132 b 368 681 56 535 201 681 b 543 625 447 681 506 653 b 597 569 565 608 583 590 l 597 667 l 736 667 l 736 174 b 792 118 736 136 754 118 b 817 121 801 118 810 119 l 826 125 m 396 118 b 597 333 507 118 597 207 b 396 549 597 460 507 549 b 194 333 285 549 194 460 b 396 118 194 207 285 118 m 451 972 l 597 972 l 451 778 l 347 778 "},"έ":{"ha":625,"x_min":0,"x_max":0,"o":"m 618 104 b 550 44 600 81 576 61 b 340 -14 504 15 435 -14 b 56 188 153 -14 56 83 b 121 314 56 250 88 288 b 188 347 140 328 163 339 b 132 378 167 354 149 365 b 76 493 104 400 76 438 b 340 681 76 589 167 681 b 522 638 419 681 482 658 b 583 596 546 625 567 611 l 493 506 b 450 531 481 515 465 524 b 340 556 424 543 385 556 b 222 479 257 556 222 522 b 340 410 222 444 257 410 l 438 410 l 438 285 l 340 285 b 201 201 242 285 201 244 b 340 111 201 153 242 111 b 478 153 400 111 446 132 b 528 194 496 165 513 179 m 368 972 l 514 972 l 368 778 l 264 778 "},"ή":{"ha":806,"x_min":0,"x_max":0,"o":"m 97 667 l 236 667 l 236 569 b 288 625 250 590 267 608 b 444 681 322 653 374 681 b 708 389 597 681 708 571 l 708 0 l 569 0 l 569 389 b 417 549 569 488 507 549 b 236 361 313 549 236 472 l 236 0 l 97 0 m 458 972 l 604 972 l 458 778 l 354 778 "},"ί":{"ha":410,"x_min":0,"x_max":0,"o":"m 97 667 l 236 667 l 236 215 b 326 118 236 153 271 118 b 374 128 343 118 358 121 l 396 139 l 396 7 b 368 -4 388 3 378 0 b 299 -14 350 -10 326 -14 b 97 201 172 -14 97 63 m 222 972 l 368 972 l 222 778 l 118 778 "},"ΰ":{"ha":806,"x_min":0,"x_max":0,"o":"m 396 972 l 521 972 l 382 778 l 292 778 m 153 875 b 236 958 153 924 193 958 b 319 875 279 958 319 924 b 236 792 319 826 279 792 b 153 875 193 792 153 826 m 486 875 b 569 958 486 924 526 958 b 653 875 613 958 653 924 b 569 792 653 826 613 792 b 486 875 526 792 486 826 m 90 667 l 229 667 l 229 285 b 403 118 229 186 297 118 b 576 285 508 118 576 186 l 576 667 l 715 667 l 715 285 b 403 -14 715 111 592 -14 b 90 285 214 -14 90 111 "},"α":{"ha":861,"x_min":0,"x_max":0,"o":"m 826 0 b 811 -7 822 -3 817 -6 b 764 -14 799 -11 783 -14 b 635 42 697 -14 658 14 b 604 97 621 58 611 76 b 546 42 589 76 569 58 b 368 -14 507 14 447 -14 b 56 333 201 -14 56 132 b 368 681 56 535 201 681 b 543 625 447 681 506 653 b 597 569 565 608 583 590 l 597 667 l 736 667 l 736 174 b 792 118 736 136 754 118 b 817 121 801 118 810 119 l 826 125 m 396 118 b 597 333 507 118 597 207 b 396 549 597 460 507 549 b 194 333 285 549 194 460 b 396 118 194 207 285 118 "},"β":{"ha":792,"x_min":0,"x_max":0,"o":"m 104 701 b 389 986 104 875 215 986 b 667 722 556 986 667 875 b 618 585 667 660 642 614 b 569 542 603 568 588 554 b 653 485 601 528 629 508 b 736 292 696 444 736 382 b 431 0 736 125 613 0 l 243 0 l 243 -292 l 104 -292 m 431 132 b 597 292 529 132 597 201 b 431 451 597 382 529 451 l 333 451 l 333 583 l 375 583 b 528 722 465 583 528 644 b 389 854 528 800 472 854 b 243 701 299 854 243 800 l 243 132 "},"γ":{"ha":708,"x_min":0,"x_max":0,"o":"m 285 -7 l 14 667 l 167 667 l 354 174 l 542 667 l 694 667 l 424 -7 l 424 -292 l 285 -292 "},"δ":{"ha":799,"x_min":0,"x_max":0,"o":"m 125 972 l 660 972 l 660 847 l 417 847 l 417 840 b 736 340 563 750 736 569 b 396 -14 736 132 590 -14 b 56 313 201 -14 56 132 b 396 639 56 493 201 639 b 457 632 428 639 446 636 l 472 625 b 246 799 401 708 317 764 b 125 847 206 819 165 835 m 194 313 b 396 118 194 201 278 118 b 597 313 514 118 597 201 b 396 507 597 424 514 507 b 194 313 278 507 194 424 "},"ε":{"ha":625,"x_min":0,"x_max":0,"o":"m 618 104 b 550 44 600 81 576 61 b 340 -14 504 15 435 -14 b 56 188 153 -14 56 83 b 121 314 56 250 88 288 b 188 347 140 328 163 339 b 132 378 167 354 149 365 b 76 493 104 400 76 438 b 340 681 76 589 167 681 b 522 638 419 681 482 658 b 583 596 546 625 567 611 l 493 506 b 450 531 481 515 465 524 b 340 556 424 543 385 556 b 222 479 257 556 222 522 b 340 410 222 444 257 410 l 438 410 l 438 285 l 340 285 b 201 201 242 285 201 244 b 340 111 201 153 242 111 b 478 153 400 111 446 132 b 528 194 496 165 513 179 "},"ζ":{"ha":660,"x_min":0,"x_max":0,"o":"m 444 -208 b 468 -60 444 -149 456 -97 b 493 0 475 -37 483 -18 b 465 -7 485 -3 475 -6 b 396 -14 444 -11 422 -14 b 63 285 179 -14 63 103 b 229 668 63 433 146 569 b 396 826 278 725 333 778 l 90 826 l 90 972 l 618 972 l 618 854 b 410 682 540 800 471 742 b 201 306 307 579 201 440 b 417 118 201 188 271 118 b 536 135 465 118 507 125 b 583 153 553 139 568 146 l 660 56 b 621 -25 644 31 632 4 b 583 -208 600 -74 583 -137 "},"η":{"ha":806,"x_min":0,"x_max":0,"o":"m 97 667 l 236 667 l 236 569 b 288 625 250 590 267 608 b 444 681 322 653 374 681 b 708 389 597 681 708 571 l 708 0 l 569 0 l 569 389 b 417 549 569 488 507 549 b 236 361 313 549 236 472 l 236 0 l 97 0 "},"θ":{"ha":875,"x_min":0,"x_max":0,"o":"m 229 424 b 438 118 244 208 333 118 b 646 424 542 118 631 208 m 438 -14 b 83 486 250 -14 83 153 b 438 986 83 819 250 986 b 792 486 625 986 792 819 b 438 -14 792 153 625 -14 m 646 549 b 438 854 631 764 542 854 b 229 549 333 854 244 764 "},"ι":{"ha":410,"x_min":0,"x_max":0,"o":"m 97 667 l 236 667 l 236 215 b 326 118 236 153 271 118 b 374 128 343 118 358 121 l 396 139 l 396 7 b 368 -4 388 3 378 0 b 299 -14 350 -10 326 -14 b 97 201 172 -14 97 63 "},"κ":{"ha":715,"x_min":0,"x_max":0,"o":"m 97 667 l 236 667 l 236 361 l 521 667 l 694 667 l 438 396 l 715 0 l 556 0 l 347 299 l 236 181 l 236 0 l 97 0 "},"λ":{"ha":722,"x_min":0,"x_max":0,"o":"m 306 667 l 278 736 b 146 854 238 832 203 854 b 99 847 128 854 111 851 b 76 840 92 844 83 842 l 76 972 b 106 979 86 974 96 976 b 181 986 124 983 149 986 b 417 778 292 986 363 918 l 708 0 l 556 0 l 375 486 l 167 0 l 14 0 "},"μ":{"ha":806,"x_min":0,"x_max":0,"o":"m 97 667 l 236 667 l 236 278 b 389 118 236 179 299 118 b 569 306 493 118 569 194 l 569 667 l 708 667 l 708 0 l 569 0 l 569 97 b 517 42 554 76 538 58 b 361 -14 482 14 432 -14 b 272 3 326 -14 294 -7 b 236 21 260 7 247 14 l 236 -292 l 97 -292 "},"ν":{"ha":708,"x_min":0,"x_max":0,"o":"m 14 667 l 167 667 l 354 174 l 542 667 l 694 667 l 431 0 l 278 0 "},"ξ":{"ha":708,"x_min":0,"x_max":0,"o":"m 479 -208 b 503 -60 479 -149 490 -97 b 528 0 510 -37 518 -18 b 501 -7 521 -3 511 -6 b 424 -14 483 -11 458 -14 b 69 271 194 -14 69 111 b 256 521 69 467 238 517 b 97 736 249 521 97 568 b 410 986 97 868 215 986 b 585 951 489 986 547 968 b 639 917 607 942 625 929 l 563 806 b 522 829 551 814 538 822 b 410 854 496 842 458 854 b 236 722 299 854 236 793 b 424 590 236 653 299 590 l 519 590 l 519 451 l 424 451 b 208 285 278 451 208 383 b 451 118 208 189 279 118 b 571 135 500 118 542 125 b 618 153 588 139 603 146 l 694 56 b 656 -25 679 31 667 4 b 618 -208 635 -74 618 -137 "},"ο":{"ha":806,"x_min":0,"x_max":0,"o":"m 56 333 b 403 681 56 528 208 681 b 750 333 597 681 750 528 b 403 -14 750 139 597 -14 b 56 333 208 -14 56 139 m 403 118 b 611 333 521 118 611 207 b 403 549 611 460 521 549 b 194 333 285 549 194 460 b 403 118 194 207 285 118 "},"π":{"ha":813,"x_min":0,"x_max":0,"o":"m 97 667 l 715 667 l 715 0 l 576 0 l 576 535 l 236 535 l 236 0 l 97 0 "},"ρ":{"ha":819,"x_min":0,"x_max":0,"o":"m 424 118 b 625 333 535 118 625 207 b 424 549 625 460 535 549 b 222 333 313 549 222 460 b 424 118 222 207 313 118 m 83 333 b 424 681 83 535 229 681 b 764 333 618 681 764 535 b 424 -14 764 132 618 -14 b 274 21 357 -14 307 3 b 222 56 254 31 238 43 l 222 -292 l 83 -292 "},"ς":{"ha":715,"x_min":0,"x_max":0,"o":"m 438 -208 b 465 -62 438 -149 450 -100 b 493 -4 474 -42 483 -22 b 468 -10 486 -6 478 -8 b 403 -14 453 -12 431 -14 b 56 333 208 -14 56 139 b 403 681 56 535 201 681 b 593 635 486 681 550 657 b 660 590 618 622 640 607 l 583 486 b 535 517 568 497 553 507 b 403 549 503 532 458 549 b 194 333 276 549 194 467 b 424 118 194 207 285 118 b 536 135 472 118 510 125 b 576 153 551 139 565 146 l 653 56 b 614 -25 638 31 625 4 b 576 -208 593 -74 576 -137 "},"σ":{"ha":854,"x_min":0,"x_max":0,"o":"m 840 667 l 840 535 l 674 535 b 711 475 688 517 700 497 b 750 326 732 438 750 386 b 403 -14 750 139 597 -14 b 56 326 208 -14 56 139 b 403 667 56 514 208 667 m 403 118 b 611 326 521 118 611 208 b 403 535 611 444 521 535 b 194 326 285 535 194 444 b 403 118 194 208 285 118 "},"τ":{"ha":653,"x_min":0,"x_max":0,"o":"m 257 535 l 28 535 l 28 667 l 625 667 l 625 535 l 396 535 l 396 208 b 479 118 396 149 424 118 b 533 128 500 118 518 122 l 556 139 l 556 7 l 526 -4 b 451 -14 508 -10 483 -14 b 257 194 325 -14 257 56 "},"υ":{"ha":806,"x_min":0,"x_max":0,"o":"m 90 667 l 229 667 l 229 285 b 403 118 229 186 297 118 b 576 285 508 118 576 186 l 576 667 l 715 667 l 715 285 b 403 -14 715 111 592 -14 b 90 285 214 -14 90 111 "},"φ":{"ha":1028,"x_min":0,"x_max":0,"o":"m 444 -21 b 56 326 215 -14 56 144 b 299 660 56 499 172 619 l 354 549 b 194 326 271 519 194 446 b 444 111 194 214 292 118 l 444 674 l 576 674 b 972 326 804 674 972 507 b 583 -21 972 144 813 -14 l 583 -292 l 444 -292 m 583 111 b 833 326 736 118 833 214 b 583 542 833 439 736 535 "},"χ":{"ha":694,"x_min":0,"x_max":0,"o":"m 264 347 l 35 667 l 194 667 l 347 451 l 500 667 l 660 667 l 431 347 l 681 0 l 521 0 l 347 243 l 174 0 l 14 0 "},"ψ":{"ha":1014,"x_min":0,"x_max":0,"o":"m 438 -14 b 90 368 221 1 90 131 l 90 667 l 229 667 l 229 368 b 438 118 229 207 311 125 l 438 667 l 576 667 l 576 118 b 785 368 703 125 785 207 l 785 667 l 924 667 l 924 368 b 576 -14 924 131 793 1 l 576 -292 l 438 -292 "},"ω":{"ha":1125,"x_min":0,"x_max":0,"o":"m 493 458 l 632 458 l 632 333 b 778 118 632 188 700 118 b 924 333 861 118 924 179 b 864 519 924 421 893 481 b 806 576 847 543 828 561 l 868 681 b 965 606 904 663 936 638 b 1063 333 1014 551 1063 467 b 785 -14 1063 111 936 -14 b 608 56 697 -14 642 21 b 563 125 588 76 572 99 b 515 56 550 99 535 76 b 340 -14 481 21 428 -14 b 63 333 189 -14 63 111 b 160 606 63 467 111 551 b 257 681 189 638 221 663 l 319 576 b 260 519 296 561 276 543 b 201 333 231 481 201 421 b 347 118 201 179 264 118 b 493 333 425 118 493 188 "},"ϊ":{"ha":424,"x_min":0,"x_max":0,"o":"m 104 667 l 243 667 l 243 215 b 333 118 243 153 278 118 b 381 128 350 118 365 121 l 403 139 l 403 7 b 375 -4 394 3 385 0 b 306 -14 357 -10 333 -14 b 104 201 179 -14 104 63 m -49 875 b 35 958 -49 924 -8 958 b 118 875 78 958 118 924 b 35 792 118 826 78 792 b -49 875 -8 792 -49 826 m 229 875 b 313 958 229 924 269 958 b 396 875 356 958 396 924 b 313 792 396 826 356 792 b 229 875 269 792 229 826 "},"ϋ":{"ha":806,"x_min":0,"x_max":0,"o":"m 90 667 l 229 667 l 229 285 b 403 118 229 186 297 118 b 576 285 508 118 576 186 l 576 667 l 715 667 l 715 285 b 403 -14 715 111 592 -14 b 90 285 214 -14 90 111 m 181 875 b 264 958 181 924 221 958 b 347 875 307 958 347 924 b 264 792 347 826 307 792 b 181 875 221 792 181 826 m 458 875 b 542 958 458 924 499 958 b 625 875 585 958 625 924 b 542 792 625 826 585 792 b 458 875 499 792 458 826 "},"ό":{"ha":806,"x_min":0,"x_max":0,"o":"m 56 333 b 403 681 56 528 208 681 b 750 333 597 681 750 528 b 403 -14 750 139 597 -14 b 56 333 208 -14 56 139 m 403 118 b 611 333 521 118 611 207 b 403 549 611 460 521 549 b 194 333 285 549 194 460 b 403 118 194 207 285 118 m 451 972 l 597 972 l 451 778 l 347 778 "},"ύ":{"ha":806,"x_min":0,"x_max":0,"o":"m 90 667 l 229 667 l 229 285 b 403 118 229 186 297 118 b 576 285 508 118 576 186 l 576 667 l 715 667 l 715 285 b 403 -14 715 111 592 -14 b 90 285 214 -14 90 111 m 451 972 l 597 972 l 451 778 l 347 778 "},"ώ":{"ha":1125,"x_min":0,"x_max":0,"o":"m 493 458 l 632 458 l 632 333 b 778 118 632 188 700 118 b 924 333 861 118 924 179 b 864 519 924 421 893 481 b 806 576 847 543 828 561 l 868 681 b 965 606 904 663 936 638 b 1063 333 1014 551 1063 467 b 785 -14 1063 111 936 -14 b 608 56 697 -14 642 21 b 563 125 588 76 572 99 b 515 56 550 99 535 76 b 340 -14 481 21 428 -14 b 63 333 189 -14 63 111 b 160 606 63 467 111 551 b 257 681 189 638 221 663 l 319 576 b 260 519 296 561 276 543 b 201 333 231 481 201 421 b 347 118 201 179 264 118 b 493 333 425 118 493 188 m 618 972 l 764 972 l 618 778 l 514 778 "},"Ѐ":{"ha":903,"x_min":0,"x_max":0,"o":"m 139 972 l 826 972 l 826 826 l 292 826 l 292 576 l 715 576 l 715 431 l 292 431 l 292 146 l 840 146 l 840 0 l 139 0 m 299 1292 l 444 1292 l 549 1097 l 444 1097 "},"Ё":{"ha":903,"x_min":0,"x_max":0,"o":"m 139 972 l 826 972 l 826 826 l 292 826 l 292 576 l 715 576 l 715 431 l 292 431 l 292 146 l 840 146 l 840 0 l 139 0 m 264 1181 b 347 1264 264 1229 304 1264 b 431 1181 390 1264 431 1229 b 347 1097 431 1132 390 1097 b 264 1181 304 1097 264 1132 m 542 1181 b 625 1264 542 1229 582 1264 b 708 1181 668 1264 708 1229 b 625 1097 708 1132 668 1097 b 542 1181 582 1097 542 1132 "},"Ђ":{"ha":1007,"x_min":0,"x_max":0,"o":"m 236 826 l 0 826 l 0 972 l 625 972 l 625 826 l 389 826 l 389 554 b 456 593 408 569 431 582 b 632 632 499 614 558 632 b 944 306 813 632 944 500 b 632 -21 944 111 813 -21 l 604 -21 l 604 125 b 785 306 715 125 785 194 b 604 486 785 417 715 486 b 447 440 538 486 485 463 b 389 396 425 428 406 413 l 389 0 l 236 0 "},"Ѓ":{"ha":792,"x_min":0,"x_max":0,"o":"m 139 972 l 764 972 l 764 826 l 292 826 l 292 0 l 139 0 m 507 1292 l 653 1292 l 507 1097 l 403 1097 "},"Є":{"ha":1035,"x_min":0,"x_max":0,"o":"m 715 563 l 715 424 l 236 424 b 590 125 263 257 396 125 b 818 201 690 125 767 163 b 896 278 849 224 875 249 l 993 181 b 890 83 964 144 931 113 b 590 -14 822 35 724 -14 b 76 486 299 -14 76 208 b 590 986 76 764 299 986 b 888 892 724 986 821 940 b 986 799 925 864 958 833 l 889 701 b 815 774 869 728 844 753 b 590 847 765 811 690 847 b 236 563 403 847 269 715 "},"Ѕ":{"ha":792,"x_min":0,"x_max":0,"o":"m 146 236 b 204 181 161 215 181 197 b 389 125 244 153 306 125 b 583 271 515 125 583 193 b 69 715 583 486 69 354 b 403 986 69 861 196 986 b 631 924 503 986 579 956 b 708 861 661 906 688 885 l 604 757 b 553 801 589 774 572 789 b 403 847 519 824 468 847 b 222 715 285 847 222 786 b 736 271 222 500 736 632 b 389 -14 736 118 604 -14 b 126 58 271 -14 183 21 b 42 132 93 79 65 104 "},"І":{"ha":431,"x_min":0,"x_max":0,"o":"m 139 972 l 292 972 l 292 0 l 139 0 "},"Ї":{"ha":431,"x_min":0,"x_max":0,"o":"m -7 1181 b 76 1264 -7 1229 33 1264 b 160 1181 119 1264 160 1229 b 76 1097 160 1132 119 1097 b -7 1181 33 1097 -7 1132 m 271 1181 b 354 1264 271 1229 311 1264 b 438 1181 397 1264 438 1229 b 354 1097 438 1132 397 1097 b 271 1181 311 1097 271 1132 m 139 972 l 292 972 l 292 0 l 139 0 "},"Ј":{"ha":694,"x_min":0,"x_max":0,"o":"m 97 194 b 138 160 108 182 122 169 b 257 125 164 142 203 125 b 417 299 356 125 417 188 l 417 972 l 569 972 l 569 299 b 257 -14 569 110 446 -14 b 64 42 168 -14 107 14 b 0 97 39 58 18 76 "},"Љ":{"ha":1500,"x_min":0,"x_max":0,"o":"m -7 146 b 15 139 0 143 7 140 b 69 132 31 135 49 132 b 243 681 160 132 243 215 l 243 972 l 889 972 l 889 625 l 1111 625 b 1438 313 1300 625 1438 486 b 1111 0 1438 139 1300 0 l 736 0 l 736 826 l 396 826 l 396 681 b 97 -14 396 111 271 -14 b 22 -4 65 -14 40 -10 l -7 7 m 1111 139 b 1285 313 1208 139 1285 215 b 1111 486 1285 410 1208 486 l 889 486 l 889 139 "},"Њ":{"ha":1507,"x_min":0,"x_max":0,"o":"m 139 972 l 292 972 l 292 625 l 743 625 l 743 972 l 896 972 l 896 625 l 1118 625 b 1444 313 1307 625 1444 486 b 1118 0 1444 139 1307 0 l 743 0 l 743 486 l 292 486 l 292 0 l 139 0 m 1118 139 b 1292 313 1215 139 1292 215 b 1118 486 1292 410 1215 486 l 896 486 l 896 139 "},"Ћ":{"ha":1028,"x_min":0,"x_max":0,"o":"m 236 826 l 0 826 l 0 972 l 625 972 l 625 826 l 389 826 l 389 554 b 456 593 408 569 431 582 b 632 632 499 614 558 632 b 931 319 806 632 931 508 l 931 0 l 778 0 l 778 319 b 604 486 778 418 710 486 b 447 440 538 486 485 463 b 389 396 425 428 406 413 l 389 0 l 236 0 "},"Ќ":{"ha":951,"x_min":0,"x_max":0,"o":"m 556 1292 l 701 1292 l 556 1097 l 451 1097 m 139 972 l 292 972 l 292 500 l 729 972 l 924 972 l 549 569 l 951 0 l 764 0 l 444 458 l 292 292 l 292 0 l 139 0 "},"Ѝ":{"ha":1104,"x_min":0,"x_max":0,"o":"m 139 972 l 292 972 l 292 257 l 826 972 l 965 972 l 965 0 l 813 0 l 813 715 l 278 0 l 139 0 m 354 1292 l 500 1292 l 604 1097 l 500 1097 "},"Ў":{"ha":868,"x_min":0,"x_max":0,"o":"m 97 146 b 121 139 104 143 111 140 b 181 132 138 135 157 132 b 361 257 276 132 324 181 l 382 299 l 14 972 l 174 972 l 458 451 l 701 972 l 861 972 l 500 215 b 201 -14 429 69 347 -14 b 126 -4 169 -14 144 -10 l 97 7 m 340 1292 b 438 1194 340 1236 382 1194 b 535 1292 493 1194 535 1236 l 639 1292 b 438 1097 639 1181 556 1097 b 236 1292 319 1097 236 1181 "},"Џ":{"ha":1056,"x_min":0,"x_max":0,"o":"m 139 972 l 292 972 l 292 146 l 764 146 l 764 972 l 917 972 l 917 0 l 604 0 l 604 -208 l 451 -208 l 451 0 l 139 0 "},"А":{"ha":972,"x_min":0,"x_max":0,"o":"m 403 972 l 569 972 l 958 0 l 799 0 l 701 250 l 271 250 l 174 0 l 14 0 m 646 389 l 486 792 l 326 389 "},"Б":{"ha":924,"x_min":0,"x_max":0,"o":"m 542 139 b 701 299 631 139 701 210 b 542 458 701 388 631 458 l 292 458 l 292 139 m 139 972 l 778 972 l 778 826 l 292 826 l 292 597 l 542 597 b 854 299 722 597 854 465 b 542 0 854 132 722 0 l 139 0 "},"В":{"ha":944,"x_min":0,"x_max":0,"o":"m 139 972 l 528 972 b 819 715 701 972 819 854 b 760 564 819 642 789 596 b 701 521 743 546 724 532 b 785 468 733 508 761 490 b 868 285 828 431 868 372 b 549 0 868 132 736 0 l 139 0 m 549 132 b 715 292 647 132 715 201 b 549 451 715 382 647 451 l 292 451 l 292 132 m 528 576 b 667 708 611 576 667 631 b 528 840 667 786 611 840 l 292 840 l 292 576 "},"Г":{"ha":792,"x_min":0,"x_max":0,"o":"m 139 972 l 764 972 l 764 826 l 292 826 l 292 0 l 139 0 "},"Д":{"ha":1007,"x_min":0,"x_max":0,"o":"m 0 146 l 56 146 b 139 267 88 176 115 217 b 222 681 182 351 222 485 l 222 972 l 854 972 l 854 146 l 972 146 l 972 -208 l 819 -208 l 819 0 l 153 0 l 153 -208 l 0 -208 m 701 146 l 701 826 l 375 826 l 375 681 b 299 267 375 485 336 351 b 222 146 275 217 250 176 "},"Е":{"ha":903,"x_min":0,"x_max":0,"o":"m 139 972 l 826 972 l 826 826 l 292 826 l 292 576 l 715 576 l 715 431 l 292 431 l 292 146 l 840 146 l 840 0 l 139 0 "},"Ж":{"ha":1361,"x_min":0,"x_max":0,"o":"m 403 569 l 28 972 l 222 972 l 604 563 l 604 972 l 757 972 l 757 563 l 1139 972 l 1333 972 l 958 569 l 1361 0 l 1174 0 l 854 458 l 757 354 l 757 0 l 604 0 l 604 354 l 507 458 l 188 0 l 0 0 "},"З":{"ha":826,"x_min":0,"x_max":0,"o":"m 132 243 b 196 183 150 219 171 200 b 389 125 239 154 300 125 b 604 285 528 125 604 201 b 389 438 604 361 528 438 l 264 438 l 264 583 l 389 583 b 569 717 506 583 569 646 b 389 847 569 785 507 847 b 219 794 315 847 258 821 b 160 743 196 779 176 761 l 56 847 b 142 917 79 874 108 896 b 389 986 199 951 279 986 b 722 729 606 986 722 868 b 646 561 722 647 683 594 b 569 514 622 542 597 526 b 663 464 604 501 635 485 b 757 278 711 426 757 368 b 389 -14 757 126 618 -14 b 117 63 267 -14 176 24 b 28 139 82 85 51 110 "},"И":{"ha":1104,"x_min":0,"x_max":0,"o":"m 139 972 l 292 972 l 292 257 l 826 972 l 965 972 l 965 0 l 813 0 l 813 715 l 278 0 l 139 0 "},"Й":{"ha":1104,"x_min":0,"x_max":0,"o":"m 139 972 l 292 972 l 292 257 l 826 972 l 965 972 l 965 0 l 813 0 l 813 715 l 278 0 l 139 0 m 451 1292 b 549 1194 451 1236 493 1194 b 646 1292 604 1194 646 1236 l 750 1292 b 549 1097 750 1181 667 1097 b 347 1292 431 1097 347 1181 "},"К":{"ha":951,"x_min":0,"x_max":0,"o":"m 139 972 l 292 972 l 292 500 l 729 972 l 924 972 l 549 569 l 951 0 l 764 0 l 444 458 l 292 292 l 292 0 l 139 0 "},"Л":{"ha":1042,"x_min":0,"x_max":0,"o":"m -7 146 b 15 139 0 143 7 140 b 69 132 31 135 49 132 b 243 681 160 132 243 215 l 243 972 l 903 972 l 903 0 l 750 0 l 750 826 l 396 826 l 396 681 b 97 -14 396 111 271 -14 b 22 -4 65 -14 40 -10 l -7 7 "},"М":{"ha":1292,"x_min":0,"x_max":0,"o":"m 139 972 l 278 972 l 646 500 l 1014 972 l 1153 972 l 1153 0 l 1000 0 l 1000 715 l 646 264 l 292 715 l 292 0 l 139 0 "},"Н":{"ha":1063,"x_min":0,"x_max":0,"o":"m 139 972 l 292 972 l 292 563 l 771 563 l 771 972 l 924 972 l 924 0 l 771 0 l 771 424 l 292 424 l 292 0 l 139 0 "},"О":{"ha":1181,"x_min":0,"x_max":0,"o":"m 229 486 b 590 125 229 285 389 125 b 951 486 792 125 951 285 b 590 847 951 688 792 847 b 229 486 389 847 229 688 m 76 486 b 590 986 76 764 299 986 b 1104 486 882 986 1104 764 b 590 -14 1104 208 882 -14 b 76 486 299 -14 76 208 "},"П":{"ha":1063,"x_min":0,"x_max":0,"o":"m 139 972 l 924 972 l 924 0 l 771 0 l 771 826 l 292 826 l 292 0 l 139 0 "},"Р":{"ha":917,"x_min":0,"x_max":0,"o":"m 139 972 l 528 972 b 854 660 717 972 854 833 b 528 347 854 486 717 347 l 292 347 l 292 0 l 139 0 m 528 486 b 701 660 625 486 701 563 b 528 833 701 757 625 833 l 292 833 l 292 486 "},"С":{"ha":1035,"x_min":0,"x_max":0,"o":"m 993 181 b 890 83 964 144 931 113 b 590 -14 822 35 724 -14 b 76 486 299 -14 76 208 b 590 986 76 764 299 986 b 888 892 724 986 821 940 b 986 799 925 864 958 833 l 889 701 b 815 774 869 728 844 753 b 590 847 765 811 690 847 b 229 486 389 847 229 688 b 590 125 229 285 389 125 b 818 201 690 125 767 163 b 896 278 849 224 875 249 "},"Т":{"ha":792,"x_min":0,"x_max":0,"o":"m 319 826 l 28 826 l 28 972 l 764 972 l 764 826 l 472 826 l 472 0 l 319 0 "},"У":{"ha":868,"x_min":0,"x_max":0,"o":"m 97 146 b 121 139 104 143 111 140 b 181 132 138 135 157 132 b 361 257 276 132 324 181 l 382 299 l 14 972 l 174 972 l 458 451 l 701 972 l 861 972 l 500 215 b 201 -14 429 69 347 -14 b 126 -4 169 -14 144 -10 l 97 7 "},"Ф":{"ha":1194,"x_min":0,"x_max":0,"o":"m 521 764 b 215 500 326 749 215 639 b 521 236 215 361 326 251 m 674 236 b 979 500 868 251 979 361 b 674 764 979 639 868 749 m 521 97 b 63 500 228 119 63 283 b 521 903 63 717 228 881 l 521 1000 l 674 1000 l 674 903 b 1132 500 967 881 1132 717 b 674 97 1132 283 967 119 l 674 -28 l 521 -28 "},"Х":{"ha":917,"x_min":0,"x_max":0,"o":"m 361 507 l 42 972 l 222 972 l 458 618 l 694 972 l 875 972 l 556 507 l 903 0 l 722 0 l 458 396 l 194 0 l 14 0 "},"Ц":{"ha":1063,"x_min":0,"x_max":0,"o":"m 139 972 l 292 972 l 292 146 l 757 146 l 757 972 l 910 972 l 910 146 l 1028 146 l 1028 -208 l 875 -208 l 875 0 l 139 0 "},"Ч":{"ha":1007,"x_min":0,"x_max":0,"o":"m 715 389 b 644 354 694 376 671 364 b 465 319 600 336 538 319 b 125 681 256 319 125 449 l 125 972 l 278 972 l 278 681 b 493 465 278 547 360 465 b 654 507 558 465 615 486 b 715 549 678 519 697 533 l 715 972 l 868 972 l 868 0 l 715 0 "},"Ш":{"ha":1444,"x_min":0,"x_max":0,"o":"m 139 972 l 292 972 l 292 146 l 646 146 l 646 972 l 799 972 l 799 146 l 1153 146 l 1153 972 l 1306 972 l 1306 0 l 139 0 "},"Щ":{"ha":1458,"x_min":0,"x_max":0,"o":"m 139 972 l 292 972 l 292 146 l 646 146 l 646 972 l 799 972 l 799 146 l 1153 146 l 1153 972 l 1306 972 l 1306 146 l 1424 146 l 1424 -208 l 1271 -208 l 1271 0 l 139 0 "},"Ъ":{"ha":1000,"x_min":0,"x_max":0,"o":"m 236 826 l 0 826 l 0 972 l 389 972 l 389 625 l 611 625 b 938 313 800 625 938 486 b 611 0 938 139 800 0 l 236 0 m 611 139 b 785 313 708 139 785 215 b 611 486 785 410 708 486 l 389 486 l 389 139 "},"Ы":{"ha":1271,"x_min":0,"x_max":0,"o":"m 979 972 l 1132 972 l 1132 0 l 979 0 m 139 972 l 292 972 l 292 625 l 514 625 b 840 313 703 625 840 486 b 514 0 840 139 703 0 l 139 0 m 514 139 b 688 313 611 139 688 215 b 514 486 688 410 611 486 l 292 486 l 292 139 "},"Ь":{"ha":917,"x_min":0,"x_max":0,"o":"m 139 972 l 292 972 l 292 625 l 528 625 b 854 313 717 625 854 486 b 528 0 854 139 717 0 l 139 0 m 528 139 b 701 313 625 139 701 215 b 528 486 701 410 625 486 l 292 486 l 292 139 "},"Э":{"ha":1028,"x_min":0,"x_max":0,"o":"m 132 278 b 210 201 153 249 179 224 b 438 125 261 163 336 125 b 792 424 633 125 763 257 l 313 424 l 313 563 l 792 563 b 438 847 758 715 625 847 b 213 774 336 847 263 811 b 139 701 183 753 158 728 l 42 799 b 140 892 68 833 101 864 b 438 986 206 940 304 986 b 951 486 729 986 951 764 b 438 -14 951 208 729 -14 b 138 83 304 -14 206 35 b 35 181 97 113 64 144 "},"Ю":{"ha":1493,"x_min":0,"x_max":0,"o":"m 139 972 l 292 972 l 292 563 l 451 563 b 931 986 474 785 674 986 b 1417 486 1201 986 1417 771 b 931 -14 1417 201 1201 -14 b 451 424 674 -14 474 188 l 292 424 l 292 0 l 139 0 m 931 125 b 1264 486 1113 125 1264 278 b 931 847 1264 694 1113 847 b 597 486 749 847 597 694 b 931 125 597 278 749 125 "},"Я":{"ha":951,"x_min":0,"x_max":0,"o":"m 276 389 b 183 447 242 403 210 422 b 90 667 135 490 90 557 b 410 972 90 839 222 972 l 813 972 l 813 0 l 660 0 l 660 361 l 431 361 l 229 0 l 56 0 m 660 500 l 660 833 l 410 833 b 243 667 311 833 243 765 b 410 500 243 568 311 500 "},"а":{"ha":722,"x_min":0,"x_max":0,"o":"m 486 97 b 433 42 472 76 454 58 b 271 -14 396 14 343 -14 b 49 181 138 -14 49 76 b 243 389 49 292 125 368 l 486 431 b 347 556 486 501 431 556 b 221 510 293 556 253 532 b 174 465 203 497 188 482 l 83 556 b 150 618 101 579 124 600 b 347 681 194 650 258 681 b 625 424 514 681 625 569 l 625 0 l 486 0 m 486 319 l 292 285 b 188 194 221 272 188 238 b 299 104 188 146 228 104 b 486 299 403 104 486 188 "},"б":{"ha":806,"x_min":0,"x_max":0,"o":"m 715 903 b 649 875 697 894 675 885 b 451 819 604 858 539 838 b 215 563 318 792 236 708 b 271 614 231 581 250 599 b 431 667 308 640 360 667 b 750 326 597 667 750 514 b 417 -14 750 139 599 -14 b 69 424 222 -14 69 139 b 403 944 69 757 221 911 b 579 993 475 960 536 978 b 646 1021 604 1003 626 1011 m 417 118 b 611 326 521 118 611 208 b 417 535 611 444 521 535 b 222 326 313 535 222 444 b 417 118 222 208 313 118 "},"в":{"ha":715,"x_min":0,"x_max":0,"o":"m 97 667 l 410 667 b 632 486 549 667 632 582 b 590 383 632 438 611 404 b 549 354 578 371 564 361 b 604 321 569 346 588 335 b 660 194 632 294 660 257 b 424 0 660 90 568 0 l 97 0 m 417 125 b 514 208 479 125 514 160 b 417 292 514 257 479 292 l 236 292 l 236 125 m 403 403 b 486 472 458 403 486 429 b 403 542 486 515 458 542 l 236 542 l 236 403 "},"г":{"ha":597,"x_min":0,"x_max":0,"o":"m 97 667 l 569 667 l 569 535 l 236 535 l 236 0 l 97 0 "},"д":{"ha":771,"x_min":0,"x_max":0,"o":"m 0 132 l 49 132 b 104 214 69 154 88 182 b 160 472 132 269 160 354 l 160 667 l 646 667 l 646 132 l 743 132 l 743 -167 l 604 -167 l 604 0 l 139 0 l 139 -167 l 0 -167 m 507 132 l 507 535 l 299 535 l 299 472 b 246 214 299 354 272 269 b 194 132 231 182 213 154 "},"е":{"ha":778,"x_min":0,"x_max":0,"o":"m 688 111 b 618 49 669 88 646 67 b 403 -14 569 17 501 -14 b 56 333 208 -14 56 139 b 396 681 56 528 208 681 b 722 354 585 681 722 543 b 718 304 722 333 719 317 l 715 285 l 201 285 b 410 118 217 194 297 118 b 551 163 469 118 518 140 b 604 208 571 175 589 190 m 576 403 b 396 556 556 493 494 556 b 201 403 290 556 229 493 "},"ж":{"ha":1028,"x_min":0,"x_max":0,"o":"m 278 396 l 21 667 l 194 667 l 444 396 l 444 667 l 583 667 l 583 396 l 833 667 l 1007 667 l 750 396 l 1028 0 l 868 0 l 660 299 l 583 215 l 583 0 l 444 0 l 444 215 l 368 299 l 160 0 l 0 0 "},"з":{"ha":611,"x_min":0,"x_max":0,"o":"m 111 194 b 160 153 125 179 142 165 b 292 111 192 132 236 111 b 410 201 369 111 410 153 b 292 285 410 244 369 285 l 201 285 l 201 410 l 285 410 b 389 479 356 410 389 444 b 285 556 389 522 356 556 b 168 526 236 556 196 542 b 125 499 151 518 138 508 l 35 589 b 97 635 53 606 74 621 b 285 681 140 657 201 681 b 535 493 444 681 535 589 b 479 378 535 438 507 400 b 424 347 463 365 444 354 b 489 314 447 339 469 328 b 556 188 522 288 556 250 b 292 -14 556 83 458 -14 b 89 44 201 -14 133 15 b 21 104 63 61 39 81 "},"и":{"ha":806,"x_min":0,"x_max":0,"o":"m 97 667 l 236 667 l 236 222 l 583 667 l 708 667 l 708 0 l 569 0 l 569 444 l 222 0 l 97 0 "},"й":{"ha":806,"x_min":0,"x_max":0,"o":"m 97 667 l 236 667 l 236 222 l 583 667 l 708 667 l 708 0 l 569 0 l 569 444 l 222 0 l 97 0 m 306 972 b 403 875 306 917 347 875 b 500 972 458 875 500 917 l 604 972 b 403 778 604 861 521 778 b 201 972 285 778 201 861 "},"к":{"ha":715,"x_min":0,"x_max":0,"o":"m 97 667 l 236 667 l 236 361 l 521 667 l 694 667 l 438 396 l 715 0 l 556 0 l 347 299 l 236 181 l 236 0 l 97 0 "},"л":{"ha":778,"x_min":0,"x_max":0,"o":"m -7 132 l 10 128 b 42 125 19 126 31 125 b 167 472 118 125 167 174 l 167 667 l 681 667 l 681 0 l 542 0 l 542 535 l 306 535 l 306 472 b 76 -14 306 83 208 -14 b 17 -7 53 -14 33 -11 b -7 0 7 -6 0 -3 "},"м":{"ha":903,"x_min":0,"x_max":0,"o":"m 97 667 l 215 667 l 451 375 l 688 667 l 806 667 l 806 0 l 667 0 l 667 444 l 451 181 l 236 444 l 236 0 l 97 0 "},"н":{"ha":799,"x_min":0,"x_max":0,"o":"m 97 667 l 236 667 l 236 403 l 563 403 l 563 667 l 701 667 l 701 0 l 563 0 l 563 278 l 236 278 l 236 0 l 97 0 "},"о":{"ha":806,"x_min":0,"x_max":0,"o":"m 56 333 b 403 681 56 528 208 681 b 750 333 597 681 750 528 b 403 -14 750 139 597 -14 b 56 333 208 -14 56 139 m 403 118 b 611 333 521 118 611 207 b 403 549 611 460 521 549 b 194 333 285 549 194 460 b 403 118 194 207 285 118 "},"п":{"ha":799,"x_min":0,"x_max":0,"o":"m 97 667 l 701 667 l 701 0 l 563 0 l 563 535 l 236 535 l 236 0 l 97 0 "},"р":{"ha":833,"x_min":0,"x_max":0,"o":"m 97 667 l 236 667 l 236 569 b 290 625 250 590 268 608 b 465 681 328 653 383 681 b 778 333 632 681 778 535 b 465 -14 778 132 632 -14 b 290 42 383 -14 328 14 b 236 97 268 58 250 76 l 236 -292 l 97 -292 m 438 118 b 639 333 549 118 639 207 b 438 549 639 460 549 549 b 236 333 326 549 236 460 b 438 118 236 207 326 118 "},"с":{"ha":722,"x_min":0,"x_max":0,"o":"m 688 125 b 615 56 667 99 643 76 b 403 -14 567 21 497 -14 b 56 333 208 -14 56 139 b 403 681 56 528 208 681 b 613 614 497 681 567 647 b 681 549 639 594 663 572 l 583 458 b 538 503 571 475 556 490 b 403 549 506 525 463 549 b 194 333 285 549 194 460 b 403 118 194 207 285 118 b 540 167 463 118 508 140 b 590 215 558 181 575 197 "},"т":{"ha":653,"x_min":0,"x_max":0,"o":"m 257 535 l 28 535 l 28 667 l 625 667 l 625 535 l 396 535 l 396 0 l 257 0 "},"у":{"ha":708,"x_min":0,"x_max":0,"o":"m 56 -139 b 79 -150 63 -143 69 -146 b 139 -160 94 -156 113 -160 b 257 -69 194 -160 235 -125 l 285 0 l 14 667 l 167 667 l 354 174 l 542 667 l 694 667 l 403 -76 b 160 -292 347 -217 271 -292 b 85 -282 128 -292 103 -287 l 56 -271 "},"ф":{"ha":1000,"x_min":0,"x_max":0,"o":"m 569 111 b 806 333 708 118 806 215 b 569 556 806 451 708 549 m 431 -21 b 56 333 201 1 56 144 b 431 688 56 522 201 665 l 431 972 l 569 972 l 569 688 b 944 333 799 665 944 522 b 569 -21 944 144 799 1 l 569 -292 l 431 -292 m 431 556 b 194 333 292 549 194 451 b 431 111 194 215 292 118 "},"х":{"ha":694,"x_min":0,"x_max":0,"o":"m 264 347 l 35 667 l 194 667 l 347 451 l 500 667 l 660 667 l 431 347 l 681 0 l 521 0 l 347 243 l 174 0 l 14 0 "},"ц":{"ha":813,"x_min":0,"x_max":0,"o":"m 97 667 l 236 667 l 236 132 l 549 132 l 549 667 l 688 667 l 688 132 l 785 132 l 785 -167 l 646 -167 l 646 0 l 97 0 "},"ч":{"ha":750,"x_min":0,"x_max":0,"o":"m 514 243 b 465 218 499 233 483 225 b 333 194 433 206 389 194 b 83 472 189 194 83 299 l 83 667 l 222 667 l 222 472 b 361 326 222 382 278 326 b 474 350 410 326 447 338 b 514 375 489 357 503 365 l 514 667 l 653 667 l 653 0 l 514 0 "},"ш":{"ha":1097,"x_min":0,"x_max":0,"o":"m 97 667 l 236 667 l 236 132 l 479 132 l 479 667 l 618 667 l 618 132 l 861 132 l 861 667 l 1000 667 l 1000 0 l 97 0 "},"щ":{"ha":1125,"x_min":0,"x_max":0,"o":"m 97 667 l 236 667 l 236 132 l 479 132 l 479 667 l 618 667 l 618 132 l 861 132 l 861 667 l 1000 667 l 1000 132 l 1097 132 l 1097 -167 l 958 -167 l 958 0 l 97 0 "},"ъ":{"ha":750,"x_min":0,"x_max":0,"o":"m 167 535 l 0 535 l 0 667 l 306 667 l 306 458 l 444 458 b 701 229 606 458 701 361 b 444 0 701 97 606 0 l 167 0 m 444 125 b 563 229 522 125 563 167 b 444 333 563 292 522 333 l 306 333 l 306 125 "},"ы":{"ha":965,"x_min":0,"x_max":0,"o":"m 729 667 l 868 667 l 868 0 l 729 0 m 375 125 b 493 229 453 125 493 167 b 375 333 493 292 453 333 l 236 333 l 236 125 m 97 667 l 236 667 l 236 458 l 375 458 b 632 229 536 458 632 361 b 375 0 632 97 536 0 l 97 0 "},"ь":{"ha":694,"x_min":0,"x_max":0,"o":"m 389 125 b 507 229 467 125 507 167 b 389 333 507 292 467 333 l 236 333 l 236 125 m 97 667 l 236 667 l 236 458 l 389 458 b 646 229 550 458 646 361 b 389 0 646 97 550 0 l 97 0 "},"э":{"ha":708,"x_min":0,"x_max":0,"o":"m 118 215 b 168 167 133 197 150 181 b 306 118 200 140 246 118 b 471 201 393 118 442 158 b 507 285 488 225 500 253 l 201 285 l 201 403 l 500 403 b 463 475 492 429 479 454 b 306 549 433 513 385 549 b 171 503 246 549 203 525 b 125 458 153 490 138 475 l 28 549 b 96 614 46 572 69 594 b 306 681 142 647 211 681 b 653 333 500 681 653 528 b 306 -14 653 139 500 -14 b 93 56 211 -14 142 21 b 21 125 65 76 42 99 "},"ю":{"ha":1097,"x_min":0,"x_max":0,"o":"m 97 667 l 236 667 l 236 403 l 368 403 b 701 681 394 563 514 681 b 1042 333 896 681 1042 535 b 701 -14 1042 132 896 -14 b 368 278 513 -14 390 111 l 236 278 l 236 0 l 97 0 m 701 118 b 903 333 819 118 903 200 b 701 549 903 467 819 549 b 500 333 583 549 500 467 b 701 118 500 200 583 118 "},"я":{"ha":722,"x_min":0,"x_max":0,"o":"m 201 243 b 135 286 176 253 154 268 b 69 444 101 318 69 367 b 326 667 69 569 165 667 l 625 667 l 625 0 l 486 0 l 486 222 l 340 222 l 208 0 l 49 0 m 486 347 l 486 542 l 326 542 b 208 444 249 542 208 500 b 326 347 208 389 249 347 "},"ѐ":{"ha":778,"x_min":0,"x_max":0,"o":"m 688 111 b 618 49 669 88 646 67 b 403 -14 569 17 501 -14 b 56 333 208 -14 56 139 b 396 681 56 528 208 681 b 722 354 585 681 722 543 b 718 304 722 333 719 317 l 715 285 l 201 285 b 410 118 217 194 297 118 b 551 163 469 118 518 140 b 604 208 571 175 589 190 m 576 403 b 396 556 556 493 494 556 b 201 403 290 556 229 493 m 194 972 l 340 972 l 444 778 l 340 778 "},"ё":{"ha":778,"x_min":0,"x_max":0,"o":"m 688 111 b 618 49 669 88 646 67 b 403 -14 569 17 501 -14 b 56 333 208 -14 56 139 b 396 681 56 528 208 681 b 722 354 585 681 722 543 b 718 304 722 333 719 317 l 715 285 l 201 285 b 410 118 217 194 297 118 b 551 163 469 118 518 140 b 604 208 571 175 589 190 m 576 403 b 396 556 556 493 494 556 b 201 403 290 556 229 493 m 174 875 b 257 958 174 924 214 958 b 340 875 300 958 340 924 b 257 792 340 826 300 792 b 174 875 214 792 174 826 m 451 875 b 535 958 451 924 492 958 b 618 875 578 958 618 924 b 535 792 618 826 578 792 b 451 875 492 792 451 826 "},"ђ":{"ha":813,"x_min":0,"x_max":0,"o":"m 118 736 l 0 736 l 0 868 l 118 868 l 118 972 l 257 972 l 257 868 l 438 868 l 438 736 l 257 736 l 257 535 b 308 590 271 556 288 574 b 465 646 343 618 394 646 b 743 313 617 646 743 519 b 417 -21 743 111 611 -21 l 417 111 b 604 313 528 111 604 186 b 438 514 604 438 528 514 b 257 326 333 514 257 438 l 257 0 l 118 0 "},"ѓ":{"ha":597,"x_min":0,"x_max":0,"o":"m 97 667 l 569 667 l 569 535 l 236 535 l 236 0 l 97 0 m 382 972 l 528 972 l 382 778 l 278 778 "},"є":{"ha":722,"x_min":0,"x_max":0,"o":"m 507 403 l 507 285 l 201 285 b 238 201 208 253 221 225 b 403 118 267 158 315 118 b 540 167 463 118 508 140 b 590 215 558 181 575 197 l 688 125 b 615 56 667 99 643 76 b 403 -14 567 21 497 -14 b 56 333 208 -14 56 139 b 403 681 56 528 208 681 b 613 614 497 681 567 647 b 681 549 639 594 663 572 l 583 458 b 538 503 571 475 556 490 b 403 549 506 525 463 549 b 246 475 321 549 275 513 b 208 403 229 454 217 429 "},"ѕ":{"ha":604,"x_min":0,"x_max":0,"o":"m 125 201 b 172 156 139 183 154 168 b 299 111 204 133 244 111 b 417 194 376 111 417 151 b 63 486 417 306 63 249 b 306 681 63 590 154 681 b 483 635 385 681 444 657 b 542 590 507 622 526 607 l 451 500 b 413 528 440 510 428 519 b 306 556 386 543 350 556 b 201 486 235 556 201 521 b 556 194 201 375 556 431 b 299 -14 556 83 460 -14 b 101 49 210 -14 146 17 b 35 111 75 67 53 88 "},"і":{"ha":347,"x_min":0,"x_max":0,"o":"m 104 667 l 243 667 l 243 0 l 104 0 m 90 875 b 174 958 90 924 131 958 b 257 875 217 958 257 924 b 174 792 257 826 217 792 b 90 875 131 792 90 826 "},"ї":{"ha":347,"x_min":0,"x_max":0,"o":"m -49 875 b 35 958 -49 924 -8 958 b 118 875 78 958 118 924 b 35 792 118 826 78 792 b -49 875 -8 792 -49 826 m 229 875 b 313 958 229 924 269 958 b 396 875 356 958 396 924 b 313 792 396 826 356 792 b 229 875 269 792 229 826 m 104 667 l 243 667 l 243 0 l 104 0 "},"ј":{"ha":347,"x_min":0,"x_max":0,"o":"m -69 -139 l -47 -150 b 7 -160 -32 -157 -14 -160 b 104 -56 72 -160 104 -125 l 104 667 l 243 667 l 243 -69 b 35 -292 243 -215 168 -292 b -40 -282 3 -292 -22 -287 l -69 -271 m 90 875 b 174 958 90 924 131 958 b 257 875 217 958 257 924 b 174 792 257 826 217 792 b 90 875 131 792 90 826 "},"љ":{"ha":1118,"x_min":0,"x_max":0,"o":"m -7 132 l 10 128 b 42 125 19 126 31 125 b 167 472 118 125 167 174 l 167 667 l 667 667 l 667 444 l 819 444 b 1069 222 972 444 1069 347 b 819 0 1069 97 972 0 l 528 0 l 528 535 l 306 535 l 306 472 b 76 -14 306 83 208 -14 b 17 -7 53 -14 33 -11 b -7 0 7 -6 0 -3 m 819 125 b 931 222 890 125 931 167 b 819 319 931 278 890 319 l 667 319 l 667 125 "},"њ":{"ha":1125,"x_min":0,"x_max":0,"o":"m 97 667 l 236 667 l 236 444 l 535 444 l 535 667 l 674 667 l 674 444 l 826 444 b 1076 222 979 444 1076 347 b 826 0 1076 97 979 0 l 535 0 l 535 319 l 236 319 l 236 0 l 97 0 m 826 125 b 938 222 897 125 938 167 b 826 319 938 278 897 319 l 674 319 l 674 125 "},"ћ":{"ha":826,"x_min":0,"x_max":0,"o":"m 118 736 l 0 736 l 0 868 l 118 868 l 118 972 l 257 972 l 257 868 l 438 868 l 438 736 l 257 736 l 257 535 b 308 590 271 556 288 574 b 465 646 343 618 394 646 b 729 354 618 646 729 536 l 729 0 l 590 0 l 590 354 b 438 514 590 453 528 514 b 257 326 333 514 257 438 l 257 0 l 118 0 "},"ќ":{"ha":715,"x_min":0,"x_max":0,"o":"m 97 667 l 236 667 l 236 361 l 521 667 l 694 667 l 438 396 l 715 0 l 556 0 l 347 299 l 236 181 l 236 0 l 97 0 m 438 972 l 583 972 l 438 778 l 333 778 "},"ѝ":{"ha":806,"x_min":0,"x_max":0,"o":"m 97 667 l 236 667 l 236 222 l 583 667 l 708 667 l 708 0 l 569 0 l 569 444 l 222 0 l 97 0 m 208 972 l 354 972 l 458 778 l 354 778 "},"ў":{"ha":708,"x_min":0,"x_max":0,"o":"m 56 -139 b 79 -150 63 -143 69 -146 b 139 -160 94 -156 113 -160 b 257 -69 194 -160 235 -125 l 285 0 l 14 667 l 167 667 l 354 174 l 542 667 l 694 667 l 403 -76 b 160 -292 347 -217 271 -292 b 85 -282 128 -292 103 -287 l 56 -271 m 257 972 b 354 875 257 917 299 875 b 451 972 410 875 451 917 l 556 972 b 354 778 556 861 472 778 b 153 972 236 778 153 861 "},"џ":{"ha":792,"x_min":0,"x_max":0,"o":"m 97 667 l 236 667 l 236 132 l 556 132 l 556 667 l 694 667 l 694 0 l 465 0 l 465 -167 l 326 -167 l 326 0 l 97 0 "},"Ѣ":{"ha":972,"x_min":0,"x_max":0,"o":"m 194 729 l 0 729 l 0 861 l 194 861 l 194 972 l 347 972 l 347 861 l 611 861 l 611 729 l 347 729 l 347 597 l 583 597 b 910 299 778 597 910 465 b 583 0 910 132 778 0 l 194 0 m 583 139 b 757 299 689 139 757 208 b 583 458 757 389 689 458 l 347 458 l 347 139 "},"ѣ":{"ha":764,"x_min":0,"x_max":0,"o":"m 167 563 l 0 563 l 0 688 l 167 688 l 167 972 l 306 972 l 306 688 l 514 688 l 514 563 l 306 563 l 306 458 l 458 458 b 715 229 619 458 715 361 b 458 0 715 97 619 0 l 167 0 m 458 125 b 576 229 536 125 576 167 b 458 333 576 292 536 333 l 306 333 l 306 125 "},"Ѫ":{"ha":1139,"x_min":0,"x_max":0,"o":"m 76 132 b 389 563 76 389 200 514 l 97 875 l 97 972 l 1042 972 l 1042 875 l 750 563 b 1063 132 939 514 1063 389 l 1063 0 l 910 0 l 910 132 b 646 431 910 321 807 424 l 646 0 l 493 0 l 493 431 b 229 132 332 424 229 321 l 229 0 l 76 0 m 806 833 l 333 833 l 569 576 "},"ѫ":{"ha":917,"x_min":0,"x_max":0,"o":"m 42 14 b 306 361 42 214 153 328 l 90 576 l 90 667 l 826 667 l 826 576 l 611 361 b 875 14 764 328 875 214 l 875 0 l 736 0 l 736 14 b 528 257 736 168 654 250 l 528 0 l 389 0 l 389 257 b 181 14 263 250 181 168 l 181 0 l 42 0 m 625 549 l 292 549 l 458 382 "},"Ѳ":{"ha":1181,"x_min":0,"x_max":0,"o":"m 76 486 b 590 986 76 764 299 986 b 1104 486 882 986 1104 764 b 590 -14 1104 208 882 -14 b 76 486 299 -14 76 208 m 236 410 b 590 125 263 265 404 125 b 951 438 785 125 922 264 b 899 417 936 429 918 422 b 764 396 865 406 819 396 b 417 451 624 396 528 451 b 285 431 361 451 317 440 b 236 410 267 424 250 417 m 229 535 b 281 556 244 542 261 549 b 417 576 314 565 361 576 b 764 521 554 576 653 521 b 896 542 819 521 864 531 b 944 563 914 547 929 554 b 590 847 915 707 779 847 b 229 535 397 847 256 708 "},"ѳ":{"ha":806,"x_min":0,"x_max":0,"o":"m 56 333 b 403 681 56 528 208 681 b 750 333 597 681 750 528 b 403 -14 750 139 597 -14 b 56 333 208 -14 56 139 m 201 271 b 403 118 224 194 290 118 b 604 278 514 118 590 194 b 572 264 594 272 583 268 b 500 250 551 257 528 250 b 306 292 417 250 383 292 b 232 281 278 292 253 286 m 201 389 b 232 403 211 394 221 399 b 306 417 253 410 278 417 b 500 375 388 417 424 375 b 572 385 528 375 551 379 b 604 396 583 389 594 392 b 403 549 582 472 515 549 b 201 389 290 549 217 472 "},"Ѵ":{"ha":979,"x_min":0,"x_max":0,"o":"m 21 972 l 181 972 l 479 194 l 681 764 b 917 986 736 924 800 986 b 986 975 944 986 968 981 b 1014 965 996 971 1006 968 l 979 826 l 965 829 b 931 833 956 831 946 833 b 833 743 882 833 856 806 l 563 0 l 396 0 "},"ѵ":{"ha":750,"x_min":0,"x_max":0,"o":"m 14 667 l 167 667 l 354 174 l 479 514 b 674 688 525 640 575 688 b 746 676 706 688 729 682 l 771 667 l 729 542 l 719 544 b 694 549 714 546 704 549 b 625 493 660 549 640 528 l 431 0 l 278 0 "},"Ҋ":{"ha":1104,"x_min":0,"x_max":0,"o":"m 139 972 l 292 972 l 292 257 l 826 972 l 965 972 l 965 146 l 1111 146 l 1111 125 l 965 -208 l 847 -208 l 917 0 l 813 0 l 813 715 l 278 0 l 139 0 m 451 1292 b 549 1194 451 1236 493 1194 b 646 1292 604 1194 646 1236 l 750 1292 b 549 1097 750 1181 667 1097 b 347 1292 431 1097 347 1181 "},"ҋ":{"ha":819,"x_min":0,"x_max":0,"o":"m 97 667 l 236 667 l 236 222 l 583 667 l 708 667 l 708 132 l 833 132 l 833 113 l 708 -167 l 604 -167 l 660 0 l 569 0 l 569 444 l 222 0 l 97 0 m 306 981 b 403 883 306 925 347 883 b 500 981 458 883 500 925 l 604 981 b 403 786 604 869 521 786 b 201 981 285 786 201 869 "},"Ҍ":{"ha":972,"x_min":0,"x_max":0,"o":"m 194 729 l 0 729 l 0 861 l 194 861 l 194 972 l 347 972 l 347 861 l 611 861 l 611 729 l 347 729 l 347 597 l 583 597 b 910 299 778 597 910 465 b 583 0 910 132 778 0 l 194 0 m 583 139 b 757 299 689 139 757 208 b 583 458 757 389 689 458 l 347 458 l 347 139 "},"ҍ":{"ha":764,"x_min":0,"x_max":0,"o":"m 167 563 l 0 563 l 0 688 l 167 688 l 167 972 l 306 972 l 306 688 l 514 688 l 514 563 l 306 563 l 306 458 l 458 458 b 715 229 619 458 715 361 b 458 0 715 97 619 0 l 167 0 m 458 125 b 576 229 536 125 576 167 b 458 333 576 292 536 333 l 306 333 l 306 125 "},"Ҏ":{"ha":917,"x_min":0,"x_max":0,"o":"m 139 972 l 528 972 b 854 660 717 972 854 833 b 785 464 854 569 819 507 b 715 403 764 440 742 419 l 792 292 l 681 215 l 590 354 l 572 350 b 528 347 561 349 544 347 l 292 347 l 292 0 l 139 0 m 500 486 l 444 569 l 556 646 l 639 521 b 669 558 650 531 660 543 b 701 660 685 582 701 617 b 528 833 701 757 625 833 l 292 833 l 292 486 "},"ҏ":{"ha":833,"x_min":0,"x_max":0,"o":"m 97 667 l 236 667 l 236 569 b 290 625 250 590 268 608 b 465 681 328 653 383 681 b 778 333 632 681 778 535 b 725 139 778 250 751 183 b 674 69 710 113 692 89 l 750 -42 l 653 -104 l 576 7 b 544 -4 567 3 556 0 b 465 -14 524 -10 497 -14 b 290 42 383 -14 328 14 b 236 97 268 58 250 76 l 236 -292 l 97 -292 m 417 236 l 514 299 l 590 188 b 614 229 599 200 607 214 b 639 333 626 256 639 290 b 438 549 639 460 549 549 b 236 333 326 549 236 460 b 438 118 236 207 326 118 b 478 121 454 118 468 119 l 493 125 "},"Ґ":{"ha":792,"x_min":0,"x_max":0,"o":"m 139 972 l 618 972 l 618 1167 l 764 1167 l 764 826 l 292 826 l 292 0 l 139 0 "},"ґ":{"ha":597,"x_min":0,"x_max":0,"o":"m 97 667 l 438 667 l 438 833 l 569 833 l 569 535 l 236 535 l 236 0 l 97 0 "},"Ғ":{"ha":813,"x_min":0,"x_max":0,"o":"m 160 410 l 28 410 l 28 556 l 160 556 l 160 972 l 785 972 l 785 826 l 313 826 l 313 556 l 576 556 l 576 410 l 313 410 l 313 0 l 160 0 "},"ғ":{"ha":604,"x_min":0,"x_max":0,"o":"m 104 250 l 0 250 l 0 375 l 104 375 l 104 667 l 576 667 l 576 535 l 243 535 l 243 375 l 431 375 l 431 250 l 243 250 l 243 0 l 104 0 "},"Ҕ":{"ha":924,"x_min":0,"x_max":0,"o":"m 139 972 l 764 972 l 764 826 l 292 826 l 292 493 b 350 524 307 504 326 514 b 514 556 388 539 443 556 b 868 188 729 556 868 417 b 486 -201 868 -49 714 -201 l 486 -56 b 715 188 625 -56 715 33 b 500 410 715 326 633 410 b 343 371 429 410 378 392 b 292 333 322 360 306 347 l 292 0 l 139 0 "},"ҕ":{"ha":708,"x_min":0,"x_max":0,"o":"m 354 -167 b 528 42 460 -167 528 -97 b 368 229 528 160 458 229 b 271 204 325 229 293 217 b 236 181 258 197 246 189 l 236 0 l 97 0 l 97 667 l 569 667 l 569 535 l 236 535 l 236 319 b 275 340 247 326 260 333 b 382 361 301 350 336 361 b 667 42 542 361 667 235 b 354 -299 667 -174 543 -299 "},"Җ":{"ha":1382,"x_min":0,"x_max":0,"o":"m 403 569 l 28 972 l 222 972 l 604 563 l 604 972 l 757 972 l 757 563 l 1139 972 l 1333 972 l 958 569 l 1264 139 l 1396 139 l 1396 -208 l 1243 -208 l 1243 0 l 1174 0 l 854 458 l 757 354 l 757 0 l 604 0 l 604 354 l 507 458 l 188 0 l 0 0 "},"җ":{"ha":1063,"x_min":0,"x_max":0,"o":"m 278 396 l 21 667 l 194 667 l 444 396 l 444 667 l 583 667 l 583 396 l 833 667 l 1007 667 l 750 396 l 938 132 l 1063 132 l 1063 -167 l 924 -167 l 924 0 l 868 0 l 660 299 l 583 215 l 583 0 l 444 0 l 444 215 l 368 299 l 160 0 l 0 0 "},"Ҙ":{"ha":826,"x_min":0,"x_max":0,"o":"m 313 -7 b 97 76 214 8 146 43 b 28 139 69 96 46 117 l 132 243 b 196 183 150 219 171 200 b 389 125 239 154 300 125 b 604 285 528 125 604 201 b 389 438 604 361 528 438 l 264 438 l 264 583 l 389 583 b 569 717 506 583 569 646 b 389 847 569 785 507 847 b 219 794 315 847 258 821 b 160 743 196 779 176 761 l 56 847 b 142 917 79 874 108 896 b 389 986 199 951 279 986 b 722 729 606 986 722 868 b 646 561 722 647 683 594 b 569 514 622 542 597 526 b 663 464 604 501 635 485 b 757 278 711 426 757 368 b 465 -7 757 132 639 15 l 465 -204 l 313 -204 "},"ҙ":{"ha":611,"x_min":0,"x_max":0,"o":"m 229 -7 b 72 57 158 3 107 31 b 21 104 51 72 35 88 l 111 194 b 160 153 125 179 142 165 b 292 111 192 132 236 111 b 410 201 369 111 410 153 b 292 285 410 244 369 285 l 201 285 l 201 410 l 285 410 b 389 479 356 410 389 444 b 285 556 389 522 356 556 b 168 526 236 556 196 542 b 125 499 151 518 138 508 l 35 589 b 97 635 53 606 74 621 b 285 681 140 657 201 681 b 535 493 444 681 535 589 b 424 347 535 386 433 350 b 556 188 431 343 556 310 b 368 -7 556 90 479 15 l 368 -167 l 229 -167 "},"Қ":{"ha":972,"x_min":0,"x_max":0,"o":"m 139 972 l 292 972 l 292 500 l 729 972 l 924 972 l 549 569 l 854 139 l 986 139 l 986 -208 l 833 -208 l 833 0 l 764 0 l 444 458 l 292 292 l 292 0 l 139 0 "},"қ":{"ha":750,"x_min":0,"x_max":0,"o":"m 97 667 l 236 667 l 236 361 l 521 667 l 694 667 l 438 396 l 625 132 l 750 132 l 750 -167 l 611 -167 l 611 0 l 556 0 l 347 299 l 236 181 l 236 0 l 97 0 "},"Ҝ":{"ha":979,"x_min":0,"x_max":0,"o":"m 139 972 l 292 972 l 292 563 l 354 563 l 354 743 l 479 743 l 479 563 l 521 563 l 785 972 l 958 972 l 646 493 l 993 0 l 819 0 l 521 424 l 479 424 l 479 243 l 354 243 l 354 424 l 292 424 l 292 0 l 139 0 "},"ҝ":{"ha":778,"x_min":0,"x_max":0,"o":"m 97 667 l 236 667 l 236 396 l 285 396 l 285 535 l 396 535 l 396 396 l 417 396 l 583 667 l 736 667 l 535 340 l 764 0 l 604 0 l 424 271 l 396 271 l 396 139 l 285 139 l 285 271 l 236 271 l 236 0 l 97 0 "},"Ҟ":{"ha":979,"x_min":0,"x_max":0,"o":"m 167 750 l 0 750 l 0 875 l 167 875 l 167 972 l 319 972 l 319 875 l 486 875 l 486 750 l 319 750 l 319 500 l 757 972 l 951 972 l 576 569 l 979 0 l 792 0 l 472 458 l 319 292 l 319 0 l 167 0 "},"ҟ":{"ha":736,"x_min":0,"x_max":0,"o":"m 118 743 l 0 743 l 0 868 l 118 868 l 118 972 l 257 972 l 257 868 l 438 868 l 438 743 l 257 743 l 257 361 l 542 667 l 715 667 l 458 396 l 736 0 l 576 0 l 368 299 l 257 181 l 257 0 l 118 0 "},"Ҡ":{"ha":1049,"x_min":0,"x_max":0,"o":"m 236 826 l 0 826 l 0 972 l 389 972 l 389 500 l 826 972 l 1021 972 l 646 569 l 1049 0 l 861 0 l 542 458 l 389 292 l 389 0 l 236 0 "},"ҡ":{"ha":757,"x_min":0,"x_max":0,"o":"m 139 535 l 0 535 l 0 667 l 278 667 l 278 361 l 563 667 l 736 667 l 479 396 l 757 0 l 597 0 l 389 299 l 278 181 l 278 0 l 139 0 "},"Ң":{"ha":1076,"x_min":0,"x_max":0,"o":"m 139 972 l 292 972 l 292 563 l 771 563 l 771 972 l 924 972 l 924 146 l 1042 146 l 1042 -208 l 889 -208 l 889 0 l 771 0 l 771 424 l 292 424 l 292 0 l 139 0 "},"ң":{"ha":826,"x_min":0,"x_max":0,"o":"m 97 667 l 236 667 l 236 403 l 563 403 l 563 667 l 701 667 l 701 132 l 799 132 l 799 -167 l 660 -167 l 660 0 l 563 0 l 563 278 l 236 278 l 236 0 l 97 0 "},"Ҥ":{"ha":1375,"x_min":0,"x_max":0,"o":"m 139 972 l 292 972 l 292 563 l 750 563 l 750 972 l 1347 972 l 1347 826 l 903 826 l 903 0 l 750 0 l 750 424 l 292 424 l 292 0 l 139 0 "},"ҥ":{"ha":1021,"x_min":0,"x_max":0,"o":"m 97 667 l 236 667 l 236 403 l 549 403 l 549 667 l 993 667 l 993 535 l 688 535 l 688 0 l 549 0 l 549 278 l 236 278 l 236 0 l 97 0 "},"Ҧ":{"ha":1549,"x_min":0,"x_max":0,"o":"m 139 972 l 917 972 l 917 493 b 975 524 932 504 951 514 b 1139 556 1013 539 1068 556 b 1493 188 1354 556 1493 417 b 1111 -201 1493 -49 1339 -201 l 1111 -56 b 1340 188 1250 -56 1340 33 b 1125 410 1340 326 1258 410 b 968 371 1054 410 1003 392 b 917 333 947 360 931 347 l 917 0 l 764 0 l 764 826 l 292 826 l 292 0 l 139 0 "},"ҧ":{"ha":1167,"x_min":0,"x_max":0,"o":"m 97 667 l 694 667 l 694 319 b 733 340 706 326 718 333 b 840 361 760 350 794 361 b 1125 42 1000 361 1125 235 b 813 -299 1125 -174 1001 -299 l 813 -167 b 986 42 918 -167 986 -97 b 826 229 986 160 917 229 b 729 204 783 229 751 217 b 694 181 717 197 704 189 l 694 0 l 556 0 l 556 535 l 236 535 l 236 0 l 97 0 "},"Ҩ":{"ha":1201,"x_min":0,"x_max":0,"o":"m 1188 63 b 1132 24 1172 47 1154 35 b 951 -14 1094 3 1035 -14 b 814 3 892 -14 846 -7 b 764 21 796 7 779 14 b 707 3 747 14 728 7 b 563 -14 669 -7 622 -14 b 69 486 278 -14 69 193 b 507 993 69 782 268 975 l 507 861 b 222 486 358 846 222 711 b 556 118 222 279 382 118 b 593 121 572 118 583 119 l 604 125 b 517 222 571 151 542 183 b 431 528 474 288 431 389 b 764 924 431 771 582 924 b 1097 528 946 924 1097 771 b 1003 222 1097 389 1051 288 b 910 125 975 183 944 151 l 921 121 b 958 118 931 119 940 118 b 1079 146 1014 118 1053 131 b 1118 174 1094 154 1108 164 m 764 174 b 854 251 797 193 828 219 b 944 528 899 307 944 394 b 764 785 944 700 860 785 b 583 528 668 785 583 700 b 674 251 583 394 628 307 b 764 174 700 219 729 193 "},"ҩ":{"ha":917,"x_min":0,"x_max":0,"o":"m 938 76 b 885 31 922 58 906 43 b 729 -14 850 8 800 -14 b 604 0 674 -14 632 -7 b 563 14 588 4 574 8 b 522 0 551 8 538 4 b 410 -14 496 -7 458 -14 b 56 340 208 -14 56 139 b 354 688 56 529 201 672 l 354 569 b 194 340 276 554 194 472 b 424 97 194 194 285 104 b 375 164 406 115 389 138 b 326 361 349 208 326 272 b 563 625 326 521 429 625 b 799 361 696 625 799 521 b 750 164 799 272 774 208 b 701 97 735 138 719 115 b 822 135 757 101 796 118 b 861 167 838 144 851 156 m 563 132 b 611 186 581 147 596 165 b 660 354 635 224 660 276 b 563 500 660 453 611 500 b 465 354 514 500 465 453 b 514 186 465 276 488 224 b 563 132 528 165 544 147 "},"Ҫ":{"ha":1035,"x_min":0,"x_max":0,"o":"m 493 -7 b 76 486 271 26 76 224 b 590 986 76 764 299 986 b 888 892 724 986 821 940 b 986 799 925 864 958 833 l 889 701 b 815 774 869 728 844 753 b 590 847 765 811 690 847 b 229 486 389 847 229 688 b 590 125 229 285 389 125 b 818 201 690 125 767 163 b 896 278 849 224 875 249 l 993 181 b 906 93 969 149 940 119 b 646 -14 846 47 761 1 l 646 -208 l 493 -208 "},"ҫ":{"ha":722,"x_min":0,"x_max":0,"o":"m 326 -7 b 56 333 181 26 56 154 b 403 681 56 528 208 681 b 613 614 497 681 567 647 b 681 549 639 594 663 572 l 583 458 b 538 503 571 475 556 490 b 403 549 506 525 463 549 b 194 333 285 549 194 460 b 403 118 194 207 285 118 b 540 167 463 118 508 140 b 590 215 558 181 575 197 l 688 125 b 631 69 672 104 653 86 b 465 -7 593 40 538 8 l 465 -167 l 326 -167 "},"Ҭ":{"ha":792,"x_min":0,"x_max":0,"o":"m 438 0 l 319 0 l 319 826 l 28 826 l 28 972 l 764 972 l 764 826 l 472 826 l 472 146 l 590 146 l 590 -208 l 438 -208 "},"ҭ":{"ha":653,"x_min":0,"x_max":0,"o":"m 354 0 l 257 0 l 257 535 l 28 535 l 28 667 l 625 667 l 625 535 l 396 535 l 396 132 l 493 132 l 493 -167 l 354 -167 "},"Ү":{"ha":903,"x_min":0,"x_max":0,"o":"m 375 347 l 7 972 l 181 972 l 451 500 l 722 972 l 896 972 l 528 347 l 528 0 l 375 0 "},"ү":{"ha":708,"x_min":0,"x_max":0,"o":"m 285 -7 l 14 667 l 167 667 l 354 174 l 542 667 l 694 667 l 424 -7 l 424 -292 l 285 -292 "},"Ұ":{"ha":903,"x_min":0,"x_max":0,"o":"m 375 243 l 153 243 l 153 382 l 354 382 l 7 972 l 181 972 l 451 500 l 722 972 l 896 972 l 549 382 l 750 382 l 750 243 l 528 243 l 528 0 l 375 0 "},"ұ":{"ha":708,"x_min":0,"x_max":0,"o":"m 285 -125 l 132 -125 l 132 0 l 285 0 l 14 667 l 167 667 l 354 174 l 542 667 l 694 667 l 424 0 l 576 0 l 576 -125 l 424 -125 l 424 -292 l 285 -292 "},"Ҳ":{"ha":924,"x_min":0,"x_max":0,"o":"m 361 507 l 42 972 l 222 972 l 458 618 l 694 972 l 875 972 l 556 507 l 806 139 l 938 139 l 938 -208 l 785 -208 l 785 0 l 722 0 l 458 396 l 194 0 l 14 0 "},"ҳ":{"ha":715,"x_min":0,"x_max":0,"o":"m 264 347 l 35 667 l 194 667 l 347 451 l 500 667 l 660 667 l 431 347 l 590 132 l 715 132 l 715 -167 l 576 -167 l 576 0 l 521 0 l 347 243 l 174 0 l 14 0 "},"Ҵ":{"ha":1243,"x_min":0,"x_max":0,"o":"m 319 826 l 28 826 l 28 972 l 729 972 l 729 826 l 472 826 l 472 146 l 938 146 l 938 972 l 1090 972 l 1090 146 l 1208 146 l 1208 -208 l 1056 -208 l 1056 0 l 319 0 "},"ҵ":{"ha":979,"x_min":0,"x_max":0,"o":"m 257 535 l 28 535 l 28 667 l 576 667 l 576 535 l 396 535 l 396 132 l 708 132 l 708 667 l 847 667 l 847 132 l 944 132 l 944 -167 l 806 -167 l 806 0 l 257 0 "},"Ҷ":{"ha":1021,"x_min":0,"x_max":0,"o":"m 833 0 l 715 0 l 715 389 b 644 354 694 376 671 364 b 465 319 600 336 538 319 b 125 681 256 319 125 449 l 125 972 l 278 972 l 278 681 b 493 465 278 547 360 465 b 654 507 558 465 615 486 b 715 549 678 519 697 533 l 715 972 l 868 972 l 868 146 l 986 146 l 986 -208 l 833 -208 "},"ҷ":{"ha":778,"x_min":0,"x_max":0,"o":"m 611 0 l 514 0 l 514 243 b 465 218 499 233 483 225 b 333 194 433 206 389 194 b 83 472 189 194 83 299 l 83 667 l 222 667 l 222 472 b 361 326 222 382 278 326 b 474 350 410 326 447 338 b 514 375 489 357 503 365 l 514 667 l 653 667 l 653 132 l 750 132 l 750 -167 l 611 -167 "},"Ҹ":{"ha":1007,"x_min":0,"x_max":0,"o":"m 438 319 b 125 681 249 335 125 458 l 125 972 l 278 972 l 278 681 b 438 472 278 554 347 488 l 438 646 l 569 646 l 569 472 b 676 518 614 482 650 501 b 715 549 692 528 704 539 l 715 972 l 868 972 l 868 0 l 715 0 l 715 389 b 676 365 704 381 692 372 b 569 326 650 353 614 336 l 569 174 l 438 174 "},"ҹ":{"ha":750,"x_min":0,"x_max":0,"o":"m 326 194 b 83 472 188 194 83 299 l 83 667 l 222 667 l 222 472 b 326 326 222 389 271 342 l 326 451 l 438 451 l 438 340 b 494 363 461 347 481 356 l 514 375 l 514 667 l 653 667 l 653 0 l 514 0 l 514 243 l 494 231 b 438 208 481 224 461 215 l 438 97 l 326 97 "},"Һ":{"ha":993,"x_min":0,"x_max":0,"o":"m 139 972 l 292 972 l 292 583 b 363 618 313 596 336 608 b 542 653 407 635 468 653 b 882 292 751 653 882 524 l 882 0 l 729 0 l 729 292 b 514 507 729 425 647 507 b 353 465 447 507 392 486 b 292 424 329 453 310 439 l 292 0 l 139 0 "},"һ":{"ha":813,"x_min":0,"x_max":0,"o":"m 104 972 l 243 972 l 243 569 b 294 625 257 590 274 608 b 451 681 329 653 381 681 b 715 389 604 681 715 571 l 715 0 l 576 0 l 576 389 b 424 549 576 488 514 549 b 243 361 319 549 243 472 l 243 0 l 104 0 "},"Ҽ":{"ha":1257,"x_min":0,"x_max":0,"o":"m 229 451 b 0 632 75 451 0 526 b 7 683 0 653 3 669 b 14 701 8 690 11 696 l 139 701 l 135 689 b 132 660 133 679 132 669 b 229 583 132 611 158 583 l 250 583 b 722 986 290 813 465 986 b 1201 486 993 986 1201 779 l 1201 451 l 396 451 b 736 125 411 263 547 125 b 958 188 835 125 908 156 b 1035 250 988 206 1014 226 l 1132 153 b 1031 69 1103 121 1069 93 b 736 -14 964 26 864 -14 b 243 451 457 -14 258 188 m 1035 583 b 722 847 1019 715 890 847 b 410 583 554 847 425 715 "},"ҽ":{"ha":903,"x_min":0,"x_max":0,"o":"m 104 486 l 104 465 b 181 403 104 422 125 403 l 188 403 b 521 681 221 556 347 681 b 847 354 710 681 847 543 b 843 304 847 333 844 317 l 840 285 l 326 285 b 535 118 342 194 422 118 b 676 163 594 118 643 140 b 729 208 696 175 714 190 l 813 111 b 743 49 794 88 771 67 b 528 -14 694 17 626 -14 b 181 285 342 -14 207 118 b 0 438 63 285 0 347 b 3 472 0 453 1 463 l 7 486 m 701 403 b 521 556 681 493 619 556 b 326 403 415 556 354 493 "},"Ҿ":{"ha":1257,"x_min":0,"x_max":0,"o":"m 653 -7 b 243 451 436 19 258 201 l 229 451 b 0 632 75 451 0 526 b 7 683 0 653 3 669 b 14 701 8 690 11 696 l 139 701 l 135 689 b 132 660 133 679 132 669 b 229 583 132 611 158 583 l 250 583 b 722 986 290 813 465 986 b 1201 486 993 986 1201 779 l 1201 451 l 396 451 b 736 125 411 263 547 125 b 958 188 835 125 908 156 b 1035 250 988 206 1014 226 l 1132 153 b 1050 81 1108 126 1082 103 b 806 -7 996 43 913 3 l 806 -208 l 653 -208 m 1035 583 b 722 847 1019 715 890 847 b 410 583 554 847 425 715 "},"ҿ":{"ha":903,"x_min":0,"x_max":0,"o":"m 444 -7 b 181 285 311 28 208 131 b 0 438 63 285 0 347 b 3 472 0 453 1 463 l 7 486 l 104 486 l 104 465 b 181 403 104 422 125 403 l 188 403 b 521 681 221 556 347 681 b 847 354 710 681 847 543 b 843 304 847 333 844 317 l 840 285 l 326 285 b 535 118 342 194 422 118 b 676 163 594 118 643 140 b 729 208 696 175 714 190 l 813 111 b 756 57 797 92 778 74 b 583 -7 717 29 661 0 l 583 -167 l 444 -167 m 701 403 b 521 556 681 493 619 556 b 326 403 415 556 354 493 "},"Ӏ":{"ha":431,"x_min":0,"x_max":0,"o":"m 139 972 l 292 972 l 292 0 l 139 0 "},"Ӂ":{"ha":1361,"x_min":0,"x_max":0,"o":"m 403 569 l 28 972 l 222 972 l 604 563 l 604 972 l 757 972 l 757 563 l 1139 972 l 1333 972 l 958 569 l 1361 0 l 1174 0 l 854 458 l 757 354 l 757 0 l 604 0 l 604 354 l 507 458 l 188 0 l 0 0 m 583 1292 b 681 1194 583 1236 625 1194 b 778 1292 736 1194 778 1236 l 882 1292 b 681 1097 882 1181 799 1097 b 479 1292 563 1097 479 1181 "},"ӂ":{"ha":1028,"x_min":0,"x_max":0,"o":"m 278 396 l 21 667 l 194 667 l 444 396 l 444 667 l 583 667 l 583 396 l 833 667 l 1007 667 l 750 396 l 1028 0 l 868 0 l 660 299 l 583 215 l 583 0 l 444 0 l 444 215 l 368 299 l 160 0 l 0 0 m 417 972 b 514 875 417 917 458 875 b 611 972 569 875 611 917 l 715 972 b 514 778 715 861 632 778 b 313 972 396 778 313 861 "},"Ӄ":{"ha":993,"x_min":0,"x_max":0,"o":"m 139 972 l 292 972 l 292 500 l 728 972 l 924 972 l 542 563 l 569 563 b 938 153 799 563 938 424 b 542 -299 938 -132 769 -299 l 542 -153 b 778 153 675 -153 778 -49 b 563 424 778 335 689 424 b 292 278 431 424 363 356 l 292 0 l 139 0 "},"ӄ":{"ha":750,"x_min":0,"x_max":0,"o":"m 396 -167 b 569 42 501 -167 569 -97 b 396 250 569 181 501 250 b 279 215 347 250 307 232 b 236 181 263 206 249 193 l 236 0 l 97 0 l 97 667 l 236 667 l 236 361 l 521 667 l 694 667 l 424 382 b 708 42 597 367 708 258 b 396 -299 708 -182 592 -299 "},"Ӆ":{"ha":1042,"x_min":0,"x_max":0,"o":"m -7 146 b 15 139 0 143 7 140 b 69 132 31 135 49 132 b 243 681 160 132 243 215 l 243 972 l 903 972 l 903 146 l 1049 146 l 1049 125 l 903 -208 l 785 -208 l 854 0 l 750 0 l 750 826 l 396 826 l 396 681 b 97 -14 396 111 271 -14 b 22 -4 65 -14 40 -10 l -7 7 "},"ӆ":{"ha":792,"x_min":0,"x_max":0,"o":"m -7 132 l 10 128 b 42 125 19 126 31 125 b 167 472 118 125 167 174 l 167 667 l 681 667 l 681 132 l 806 132 l 806 113 l 681 -167 l 576 -167 l 632 0 l 542 0 l 542 535 l 306 535 l 306 472 b 76 -14 306 83 208 -14 b 17 -7 53 -14 33 -11 b -7 0 7 -6 0 -3 "},"Ӈ":{"ha":1063,"x_min":0,"x_max":0,"o":"m 139 972 l 292 972 l 292 563 l 771 563 l 771 972 l 924 972 l 924 -69 b 722 -299 924 -224 849 -299 b 638 -289 688 -299 658 -294 b 604 -278 625 -285 614 -282 l 604 -139 l 626 -150 b 681 -160 642 -157 660 -160 b 771 -56 736 -160 771 -126 l 771 424 l 292 424 l 292 0 l 139 0 "},"ӈ":{"ha":799,"x_min":0,"x_max":0,"o":"m 97 667 l 236 667 l 236 403 l 563 403 l 563 667 l 701 667 l 701 -85 b 507 -299 701 -224 625 -299 b 438 -289 478 -299 454 -294 b 410 -278 428 -285 418 -282 l 410 -146 b 429 -153 415 -149 422 -151 b 479 -160 443 -157 460 -160 b 563 -69 535 -160 563 -129 l 563 278 l 236 278 l 236 0 l 97 0 "},"Ӊ":{"ha":1063,"x_min":0,"x_max":0,"o":"m 139 972 l 292 972 l 292 563 l 771 563 l 771 972 l 924 972 l 924 146 l 1069 146 l 1069 125 l 924 -208 l 806 -208 l 875 0 l 771 0 l 771 424 l 292 424 l 292 0 l 139 0 "},"ӊ":{"ha":813,"x_min":0,"x_max":0,"o":"m 97 667 l 236 667 l 236 403 l 563 403 l 563 667 l 701 667 l 701 132 l 826 132 l 826 113 l 701 -167 l 597 -167 l 653 0 l 563 0 l 563 278 l 236 278 l 236 0 l 97 0 "},"Ӌ":{"ha":1007,"x_min":0,"x_max":0,"o":"m 597 146 l 715 146 l 715 389 b 644 354 694 376 671 364 b 465 319 600 336 538 319 b 125 681 256 319 125 449 l 125 972 l 278 972 l 278 681 b 493 465 278 547 360 465 b 654 507 558 465 615 486 b 715 549 678 519 697 533 l 715 972 l 868 972 l 868 0 l 750 0 l 750 -208 l 597 -208 "},"ӌ":{"ha":750,"x_min":0,"x_max":0,"o":"m 417 132 l 514 132 l 514 243 b 465 218 499 233 483 225 b 333 194 433 206 389 194 b 83 472 189 194 83 299 l 83 667 l 222 667 l 222 472 b 361 326 222 382 278 326 b 474 350 410 326 447 338 b 514 375 489 357 503 365 l 514 667 l 653 667 l 653 0 l 556 0 l 556 -167 l 417 -167 "},"Ӎ":{"ha":1292,"x_min":0,"x_max":0,"o":"m 139 972 l 278 972 l 646 500 l 1014 972 l 1153 972 l 1153 146 l 1299 146 l 1299 125 l 1153 -208 l 1035 -208 l 1104 0 l 1000 0 l 1000 715 l 646 264 l 292 715 l 292 0 l 139 0 "},"ӎ":{"ha":917,"x_min":0,"x_max":0,"o":"m 97 667 l 215 667 l 451 375 l 688 667 l 806 667 l 806 132 l 931 132 l 931 113 l 806 -167 l 701 -167 l 757 0 l 667 0 l 667 444 l 451 181 l 236 444 l 236 0 l 97 0 "},"ӏ":{"ha":347,"x_min":0,"x_max":0,"o":"m 104 972 l 243 972 l 243 0 l 104 0 "},"Ӑ":{"ha":972,"x_min":0,"x_max":0,"o":"m 403 972 l 569 972 l 958 0 l 799 0 l 701 250 l 271 250 l 174 0 l 14 0 m 646 389 l 486 792 l 326 389 m 389 1292 b 486 1194 389 1236 431 1194 b 583 1292 542 1194 583 1236 l 688 1292 b 486 1097 688 1181 604 1097 b 285 1292 368 1097 285 1181 "},"ӑ":{"ha":722,"x_min":0,"x_max":0,"o":"m 486 97 b 433 42 472 76 454 58 b 271 -14 396 14 343 -14 b 49 181 138 -14 49 76 b 243 389 49 292 125 368 l 486 431 b 347 556 486 501 431 556 b 221 510 293 556 253 532 b 174 465 203 497 188 482 l 83 556 b 150 618 101 579 124 600 b 347 681 194 650 258 681 b 625 424 514 681 625 569 l 625 0 l 486 0 m 486 319 l 292 285 b 188 194 221 272 188 238 b 299 104 188 146 228 104 b 486 299 403 104 486 188 m 271 972 b 368 875 271 917 313 875 b 465 972 424 875 465 917 l 569 972 b 368 778 569 861 486 778 b 167 972 250 778 167 861 "},"Ӓ":{"ha":972,"x_min":0,"x_max":0,"o":"m 403 972 l 569 972 l 958 0 l 799 0 l 701 250 l 271 250 l 174 0 l 14 0 m 646 389 l 486 792 l 326 389 m 264 1181 b 347 1264 264 1229 304 1264 b 431 1181 390 1264 431 1229 b 347 1097 431 1132 390 1097 b 264 1181 304 1097 264 1132 m 542 1181 b 625 1264 542 1229 582 1264 b 708 1181 668 1264 708 1229 b 625 1097 708 1132 668 1097 b 542 1181 582 1097 542 1132 "},"ӓ":{"ha":722,"x_min":0,"x_max":0,"o":"m 486 97 b 433 42 472 76 454 58 b 271 -14 396 14 343 -14 b 49 181 138 -14 49 76 b 243 389 49 292 125 368 l 486 431 b 347 556 486 501 431 556 b 221 510 293 556 253 532 b 174 465 203 497 188 482 l 83 556 b 150 618 101 579 124 600 b 347 681 194 650 258 681 b 625 424 514 681 625 569 l 625 0 l 486 0 m 486 319 l 292 285 b 188 194 221 272 188 238 b 299 104 188 146 228 104 b 486 299 403 104 486 188 m 146 875 b 229 958 146 924 186 958 b 313 875 272 958 313 924 b 229 792 313 826 272 792 b 146 875 186 792 146 826 m 424 875 b 507 958 424 924 464 958 b 590 875 550 958 590 924 b 507 792 590 826 550 792 b 424 875 464 792 424 826 "},"Ӗ":{"ha":903,"x_min":0,"x_max":0,"o":"m 139 972 l 826 972 l 826 826 l 292 826 l 292 576 l 715 576 l 715 431 l 292 431 l 292 146 l 840 146 l 840 0 l 139 0 m 396 1292 b 493 1194 396 1236 438 1194 b 590 1292 549 1194 590 1236 l 694 1292 b 493 1097 694 1181 611 1097 b 292 1292 375 1097 292 1181 "},"ӗ":{"ha":778,"x_min":0,"x_max":0,"o":"m 688 111 b 618 49 669 88 646 67 b 403 -14 569 17 501 -14 b 56 333 208 -14 56 139 b 396 681 56 528 208 681 b 722 354 585 681 722 543 b 718 304 722 333 719 317 l 715 285 l 201 285 b 410 118 217 194 297 118 b 551 163 469 118 518 140 b 604 208 571 175 589 190 m 576 403 b 396 556 556 493 494 556 b 201 403 290 556 229 493 m 299 972 b 396 875 299 917 340 875 b 493 972 451 875 493 917 l 597 972 b 396 778 597 861 514 778 b 194 972 278 778 194 861 "},"Ә":{"ha":1104,"x_min":0,"x_max":0,"o":"m 69 521 l 875 521 b 535 847 860 710 724 847 b 313 785 436 847 363 817 b 236 722 283 767 257 746 l 139 819 b 240 903 168 851 201 879 b 535 986 307 946 406 986 b 1028 486 819 986 1028 779 b 549 -14 1028 193 819 -14 b 69 486 278 -14 69 193 m 236 389 b 549 125 251 257 381 125 b 861 389 717 125 846 257 "},"ә":{"ha":778,"x_min":0,"x_max":0,"o":"m 576 382 b 368 549 561 472 481 549 b 226 503 308 549 260 525 b 174 458 207 490 189 475 l 90 556 b 160 618 108 579 132 600 b 375 681 208 650 276 681 b 722 333 569 681 722 528 b 382 -14 722 139 569 -14 b 56 313 193 -14 56 124 b 58 363 56 333 57 350 l 63 382 m 201 264 b 382 111 222 174 283 111 b 576 264 488 111 549 174 "},"Ӛ":{"ha":1104,"x_min":0,"x_max":0,"o":"m 69 521 l 875 521 b 535 847 860 710 724 847 b 313 785 436 847 363 817 b 236 722 283 767 257 746 l 139 819 b 240 903 168 851 201 879 b 535 986 307 946 406 986 b 1028 486 819 986 1028 779 b 549 -14 1028 193 819 -14 b 69 486 278 -14 69 193 m 236 389 b 549 125 251 257 381 125 b 861 389 717 125 846 257 m 340 1181 b 424 1264 340 1229 381 1264 b 507 1181 467 1264 507 1229 b 424 1097 507 1132 467 1097 b 340 1181 381 1097 340 1132 m 618 1181 b 701 1264 618 1229 658 1264 b 785 1181 744 1264 785 1229 b 701 1097 785 1132 744 1097 b 618 1181 658 1097 618 1132 "},"ӛ":{"ha":778,"x_min":0,"x_max":0,"o":"m 576 382 b 368 549 561 472 481 549 b 226 503 308 549 260 525 b 174 458 207 490 189 475 l 90 556 b 160 618 108 579 132 600 b 375 681 208 650 276 681 b 722 333 569 681 722 528 b 382 -14 722 139 569 -14 b 56 313 193 -14 56 124 b 58 363 56 333 57 350 l 63 382 m 201 264 b 382 111 222 174 283 111 b 576 264 488 111 549 174 m 167 875 b 250 958 167 924 207 958 b 333 875 293 958 333 924 b 250 792 333 826 293 792 b 167 875 207 792 167 826 m 444 875 b 528 958 444 924 485 958 b 611 875 571 958 611 924 b 528 792 611 826 571 792 b 444 875 485 792 444 826 "},"Ӝ":{"ha":1361,"x_min":0,"x_max":0,"o":"m 403 569 l 28 972 l 222 972 l 604 563 l 604 972 l 757 972 l 757 563 l 1139 972 l 1333 972 l 958 569 l 1361 0 l 1174 0 l 854 458 l 757 354 l 757 0 l 604 0 l 604 354 l 507 458 l 188 0 l 0 0 m 458 1181 b 542 1264 458 1229 499 1264 b 625 1181 585 1264 625 1229 b 542 1097 625 1132 585 1097 b 458 1181 499 1097 458 1132 m 736 1181 b 819 1264 736 1229 776 1264 b 903 1181 863 1264 903 1229 b 819 1097 903 1132 863 1097 b 736 1181 776 1097 736 1132 "},"ӝ":{"ha":1028,"x_min":0,"x_max":0,"o":"m 278 396 l 21 667 l 194 667 l 444 396 l 444 667 l 583 667 l 583 396 l 833 667 l 1007 667 l 750 396 l 1028 0 l 868 0 l 660 299 l 583 215 l 583 0 l 444 0 l 444 215 l 368 299 l 160 0 l 0 0 m 292 875 b 375 958 292 924 332 958 b 458 875 418 958 458 924 b 375 792 458 826 418 792 b 292 875 332 792 292 826 m 569 875 b 653 958 569 924 610 958 b 736 875 696 958 736 924 b 653 792 736 826 696 792 b 569 875 610 792 569 826 "},"Ӟ":{"ha":826,"x_min":0,"x_max":0,"o":"m 132 243 b 196 183 150 219 171 200 b 389 125 239 154 300 125 b 604 285 528 125 604 201 b 389 438 604 361 528 438 l 264 438 l 264 583 l 389 583 b 569 717 506 583 569 646 b 389 847 569 785 507 847 b 219 794 315 847 258 821 b 160 743 196 779 176 761 l 56 847 b 142 917 79 874 108 896 b 389 986 199 951 279 986 b 722 729 606 986 722 868 b 646 561 722 647 683 594 b 569 514 622 542 597 526 b 663 464 604 501 635 485 b 757 278 711 426 757 368 b 389 -14 757 126 618 -14 b 117 63 267 -14 176 24 b 28 139 82 85 51 110 m 181 1181 b 264 1264 181 1229 221 1264 b 347 1181 307 1264 347 1229 b 264 1097 347 1132 307 1097 b 181 1181 221 1097 181 1132 m 458 1181 b 542 1264 458 1229 499 1264 b 625 1181 585 1264 625 1229 b 542 1097 625 1132 585 1097 b 458 1181 499 1097 458 1132 "},"ӟ":{"ha":611,"x_min":0,"x_max":0,"o":"m 111 194 b 160 153 125 179 142 165 b 292 111 192 132 236 111 b 410 201 369 111 410 153 b 292 285 410 244 369 285 l 201 285 l 201 410 l 285 410 b 389 479 356 410 389 444 b 285 556 389 522 356 556 b 168 526 236 556 196 542 b 125 499 151 518 138 508 l 35 589 b 97 635 53 606 74 621 b 285 681 140 657 201 681 b 535 493 444 681 535 589 b 479 378 535 438 507 400 b 424 347 463 365 444 354 b 489 314 447 339 469 328 b 556 188 522 288 556 250 b 292 -14 556 83 458 -14 b 89 44 201 -14 133 15 b 21 104 63 61 39 81 m 83 875 b 167 958 83 924 124 958 b 250 875 210 958 250 924 b 167 792 250 826 210 792 b 83 875 124 792 83 826 m 361 875 b 444 958 361 924 401 958 b 528 875 488 958 528 924 b 444 792 528 826 488 792 b 361 875 401 792 361 826 "},"Ӡ":{"ha":819,"x_min":0,"x_max":0,"o":"m 132 243 b 196 183 150 219 171 200 b 389 125 239 154 300 125 b 604 292 528 125 604 201 b 389 458 604 382 528 458 l 215 458 l 215 563 l 521 826 l 83 826 l 83 972 l 722 972 l 722 826 l 444 590 b 764 292 632 583 764 453 b 389 -14 764 125 625 -14 b 117 63 267 -14 176 24 b 28 139 82 85 51 110 "},"ӡ":{"ha":681,"x_min":0,"x_max":0,"o":"m 97 -69 b 150 -115 113 -87 131 -103 b 292 -160 183 -137 232 -160 b 486 0 418 -160 486 -90 b 292 160 486 90 418 160 l 160 160 l 160 264 l 417 535 l 49 535 l 49 667 l 590 667 l 590 542 l 354 292 b 632 0 528 264 632 161 b 299 -292 632 -167 506 -292 b 79 -229 200 -292 128 -261 b 7 -167 50 -211 26 -190 "},"Ӣ":{"ha":1104,"x_min":0,"x_max":0,"o":"m 139 972 l 292 972 l 292 257 l 826 972 l 965 972 l 965 0 l 813 0 l 813 715 l 278 0 l 139 0 m 340 1243 l 757 1243 l 757 1146 l 340 1146 "},"ӣ":{"ha":806,"x_min":0,"x_max":0,"o":"m 97 667 l 236 667 l 236 222 l 583 667 l 708 667 l 708 0 l 569 0 l 569 444 l 222 0 l 97 0 m 194 938 l 611 938 l 611 840 l 194 840 "},"Ӥ":{"ha":1104,"x_min":0,"x_max":0,"o":"m 139 972 l 292 972 l 292 257 l 826 972 l 965 972 l 965 0 l 813 0 l 813 715 l 278 0 l 139 0 m 326 1181 b 410 1264 326 1229 367 1264 b 493 1181 453 1264 493 1229 b 410 1097 493 1132 453 1097 b 326 1181 367 1097 326 1132 m 604 1181 b 688 1264 604 1229 644 1264 b 771 1181 731 1264 771 1229 b 688 1097 771 1132 731 1097 b 604 1181 644 1097 604 1132 "},"ӥ":{"ha":806,"x_min":0,"x_max":0,"o":"m 97 667 l 236 667 l 236 222 l 583 667 l 708 667 l 708 0 l 569 0 l 569 444 l 222 0 l 97 0 m 181 875 b 264 958 181 924 221 958 b 347 875 307 958 347 924 b 264 792 347 826 307 792 b 181 875 221 792 181 826 m 458 875 b 542 958 458 924 499 958 b 625 875 585 958 625 924 b 542 792 625 826 585 792 b 458 875 499 792 458 826 "},"Ӧ":{"ha":1181,"x_min":0,"x_max":0,"o":"m 229 486 b 590 125 229 285 389 125 b 951 486 792 125 951 285 b 590 847 951 688 792 847 b 229 486 389 847 229 688 m 76 486 b 590 986 76 764 299 986 b 1104 486 882 986 1104 764 b 590 -14 1104 208 882 -14 b 76 486 299 -14 76 208 m 368 1188 b 451 1271 368 1236 408 1271 b 535 1188 494 1271 535 1236 b 451 1104 535 1139 494 1104 b 368 1188 408 1104 368 1139 m 646 1188 b 729 1271 646 1236 686 1271 b 813 1188 772 1271 813 1236 b 729 1104 813 1139 772 1104 b 646 1188 686 1104 646 1139 "},"ӧ":{"ha":806,"x_min":0,"x_max":0,"o":"m 56 333 b 403 681 56 528 208 681 b 750 333 597 681 750 528 b 403 -14 750 139 597 -14 b 56 333 208 -14 56 139 m 403 118 b 611 333 521 118 611 207 b 403 549 611 460 521 549 b 194 333 285 549 194 460 b 403 118 194 207 285 118 m 181 875 b 264 958 181 924 221 958 b 347 875 307 958 347 924 b 264 792 347 826 307 792 b 181 875 221 792 181 826 m 458 875 b 542 958 458 924 499 958 b 625 875 585 958 625 924 b 542 792 625 826 585 792 b 458 875 499 792 458 826 "},"Ө":{"ha":1181,"x_min":0,"x_max":0,"o":"m 944 556 b 590 847 915 707 779 847 b 236 556 404 847 263 707 m 76 486 b 590 986 76 764 299 986 b 1104 486 882 986 1104 764 b 590 -14 1104 208 882 -14 b 76 486 299 -14 76 208 m 236 417 b 590 125 263 265 404 125 b 944 417 779 125 915 265 "},"ө":{"ha":806,"x_min":0,"x_max":0,"o":"m 201 271 b 403 118 224 194 290 118 b 604 271 515 118 582 194 m 56 333 b 403 681 56 528 208 681 b 750 333 597 681 750 528 b 403 -14 750 139 597 -14 b 56 333 208 -14 56 139 m 604 396 b 403 549 582 472 515 549 b 201 396 290 549 224 472 "},"Ӫ":{"ha":1181,"x_min":0,"x_max":0,"o":"m 944 556 b 590 847 915 707 779 847 b 236 556 404 847 263 707 m 76 486 b 590 986 76 764 299 986 b 1104 486 882 986 1104 764 b 590 -14 1104 208 882 -14 b 76 486 299 -14 76 208 m 236 417 b 590 125 263 265 404 125 b 944 417 779 125 915 265 m 368 1181 b 451 1264 368 1229 408 1264 b 535 1181 494 1264 535 1229 b 451 1097 535 1132 494 1097 b 368 1181 408 1097 368 1132 m 646 1181 b 729 1264 646 1229 686 1264 b 813 1181 772 1264 813 1229 b 729 1097 813 1132 772 1097 b 646 1181 686 1097 646 1132 "},"ӫ":{"ha":806,"x_min":0,"x_max":0,"o":"m 201 271 b 403 118 224 194 290 118 b 604 271 515 118 582 194 m 56 333 b 403 681 56 528 208 681 b 750 333 597 681 750 528 b 403 -14 750 139 597 -14 b 56 333 208 -14 56 139 m 604 396 b 403 549 582 472 515 549 b 201 396 290 549 224 472 m 181 875 b 264 958 181 924 221 958 b 347 875 307 958 347 924 b 264 792 347 826 307 792 b 181 875 221 792 181 826 m 458 875 b 542 958 458 924 499 958 b 625 875 585 958 625 924 b 542 792 625 826 585 792 b 458 875 499 792 458 826 "},"Ӭ":{"ha":1028,"x_min":0,"x_max":0,"o":"m 132 278 b 210 201 153 249 179 224 b 438 125 261 163 336 125 b 792 424 633 125 763 257 l 313 424 l 313 563 l 792 563 b 438 847 758 715 625 847 b 213 774 336 847 263 811 b 139 701 183 753 158 728 l 42 799 b 140 892 68 833 101 864 b 438 986 206 940 304 986 b 951 486 729 986 951 764 b 438 -14 951 208 729 -14 b 138 83 304 -14 206 35 b 35 181 97 113 64 144 m 271 1181 b 354 1264 271 1229 311 1264 b 438 1181 397 1264 438 1229 b 354 1097 438 1132 397 1097 b 271 1181 311 1097 271 1132 m 549 1181 b 632 1264 549 1229 589 1264 b 715 1181 675 1264 715 1229 b 632 1097 715 1132 675 1097 b 549 1181 589 1097 549 1132 "},"ӭ":{"ha":708,"x_min":0,"x_max":0,"o":"m 118 215 b 168 167 133 197 150 181 b 306 118 200 140 246 118 b 471 201 393 118 442 158 b 507 285 488 225 500 253 l 201 285 l 201 403 l 500 403 b 463 475 492 429 479 454 b 306 549 433 513 385 549 b 171 503 246 549 203 525 b 125 458 153 490 138 475 l 28 549 b 96 614 46 572 69 594 b 306 681 142 647 211 681 b 653 333 500 681 653 528 b 306 -14 653 139 500 -14 b 93 56 211 -14 142 21 b 21 125 65 76 42 99 m 111 875 b 194 958 111 924 151 958 b 278 875 238 958 278 924 b 194 792 278 826 238 792 b 111 875 151 792 111 826 m 389 875 b 472 958 389 924 429 958 b 556 875 515 958 556 924 b 472 792 556 826 515 792 b 389 875 429 792 389 826 "},"Ӯ":{"ha":868,"x_min":0,"x_max":0,"o":"m 97 146 b 121 139 104 143 111 140 b 181 132 138 135 157 132 b 361 257 276 132 324 181 l 382 299 l 14 972 l 174 972 l 458 451 l 701 972 l 861 972 l 500 215 b 201 -14 429 69 347 -14 b 126 -4 169 -14 144 -10 l 97 7 m 229 1243 l 646 1243 l 646 1146 l 229 1146 "},"ӯ":{"ha":708,"x_min":0,"x_max":0,"o":"m 56 -139 b 79 -150 63 -143 69 -146 b 139 -160 94 -156 113 -160 b 257 -69 194 -160 235 -125 l 285 0 l 14 667 l 167 667 l 354 174 l 542 667 l 694 667 l 403 -76 b 160 -292 347 -217 271 -292 b 85 -282 128 -292 103 -287 l 56 -271 m 146 938 l 563 938 l 563 840 l 146 840 "},"Ӱ":{"ha":868,"x_min":0,"x_max":0,"o":"m 97 146 b 121 139 104 143 111 140 b 181 132 138 135 157 132 b 361 257 276 132 324 181 l 382 299 l 14 972 l 174 972 l 458 451 l 701 972 l 861 972 l 500 215 b 201 -14 429 69 347 -14 b 126 -4 169 -14 144 -10 l 97 7 m 215 1181 b 299 1264 215 1229 256 1264 b 382 1181 342 1264 382 1229 b 299 1097 382 1132 342 1097 b 215 1181 256 1097 215 1132 m 493 1181 b 576 1264 493 1229 533 1264 b 660 1181 619 1264 660 1229 b 576 1097 660 1132 619 1097 b 493 1181 533 1097 493 1132 "},"ӱ":{"ha":708,"x_min":0,"x_max":0,"o":"m 56 -139 b 79 -150 63 -143 69 -146 b 139 -160 94 -156 113 -160 b 257 -69 194 -160 235 -125 l 285 0 l 14 667 l 167 667 l 354 174 l 542 667 l 694 667 l 403 -76 b 160 -292 347 -217 271 -292 b 85 -282 128 -292 103 -287 l 56 -271 m 132 875 b 215 958 132 924 172 958 b 299 875 258 958 299 924 b 215 792 299 826 258 792 b 132 875 172 792 132 826 m 410 875 b 493 958 410 924 450 958 b 576 875 536 958 576 924 b 493 792 576 826 536 792 b 410 875 450 792 410 826 "},"Ӳ":{"ha":868,"x_min":0,"x_max":0,"o":"m 97 146 b 121 139 104 143 111 140 b 181 132 138 135 157 132 b 361 257 276 132 324 181 l 382 299 l 14 972 l 174 972 l 458 451 l 701 972 l 861 972 l 500 215 b 201 -14 429 69 347 -14 b 126 -4 169 -14 144 -10 l 97 7 m 368 1292 l 514 1292 l 368 1097 l 264 1097 m 611 1292 l 757 1292 l 611 1097 l 507 1097 "},"ӳ":{"ha":708,"x_min":0,"x_max":0,"o":"m 56 -139 b 79 -150 63 -143 69 -146 b 139 -160 94 -156 113 -160 b 257 -69 194 -160 235 -125 l 285 0 l 14 667 l 167 667 l 354 174 l 542 667 l 694 667 l 403 -76 b 160 -292 347 -217 271 -292 b 85 -282 128 -292 103 -287 l 56 -271 m 285 972 l 431 972 l 285 778 l 181 778 m 528 972 l 674 972 l 528 778 l 424 778 "},"Ӵ":{"ha":1007,"x_min":0,"x_max":0,"o":"m 715 389 b 644 354 694 376 671 364 b 465 319 600 336 538 319 b 125 681 256 319 125 449 l 125 972 l 278 972 l 278 681 b 493 465 278 547 360 465 b 654 507 558 465 615 486 b 715 549 678 519 697 533 l 715 972 l 868 972 l 868 0 l 715 0 m 278 1181 b 361 1264 278 1229 318 1264 b 444 1181 404 1264 444 1229 b 361 1097 444 1132 404 1097 b 278 1181 318 1097 278 1132 m 556 1181 b 639 1264 556 1229 596 1264 b 722 1181 682 1264 722 1229 b 639 1097 722 1132 682 1097 b 556 1181 596 1097 556 1132 "},"ӵ":{"ha":750,"x_min":0,"x_max":0,"o":"m 514 243 b 465 218 499 233 483 225 b 333 194 433 206 389 194 b 83 472 189 194 83 299 l 83 667 l 222 667 l 222 472 b 361 326 222 382 278 326 b 474 350 410 326 447 338 b 514 375 489 357 503 365 l 514 667 l 653 667 l 653 0 l 514 0 m 146 875 b 229 958 146 924 186 958 b 313 875 272 958 313 924 b 229 792 313 826 272 792 b 146 875 186 792 146 826 m 424 875 b 507 958 424 924 464 958 b 590 875 550 958 590 924 b 507 792 590 826 550 792 b 424 875 464 792 424 826 "},"Ӷ":{"ha":792,"x_min":0,"x_max":0,"o":"m 257 0 l 139 0 l 139 972 l 764 972 l 764 826 l 292 826 l 292 146 l 410 146 l 410 -208 l 257 -208 "},"ӷ":{"ha":597,"x_min":0,"x_max":0,"o":"m 194 0 l 97 0 l 97 667 l 569 667 l 569 535 l 236 535 l 236 132 l 333 132 l 333 -167 l 194 -167 "},"Ӹ":{"ha":1271,"x_min":0,"x_max":0,"o":"m 979 972 l 1132 972 l 1132 0 l 979 0 m 139 972 l 292 972 l 292 625 l 514 625 b 840 313 703 625 840 486 b 514 0 840 139 703 0 l 139 0 m 514 139 b 688 313 611 139 688 215 b 514 486 688 410 611 486 l 292 486 l 292 139 m 417 1181 b 500 1264 417 1229 457 1264 b 583 1181 543 1264 583 1229 b 500 1097 583 1132 543 1097 b 417 1181 457 1097 417 1132 m 694 1181 b 778 1264 694 1229 735 1264 b 861 1181 821 1264 861 1229 b 778 1097 861 1132 821 1097 b 694 1181 735 1097 694 1132 "},"ӹ":{"ha":965,"x_min":0,"x_max":0,"o":"m 729 667 l 868 667 l 868 0 l 729 0 m 375 125 b 493 229 453 125 493 167 b 375 333 493 292 453 333 l 236 333 l 236 125 m 97 667 l 236 667 l 236 458 l 375 458 b 632 229 536 458 632 361 b 375 0 632 97 536 0 l 97 0 m 257 875 b 340 958 257 924 297 958 b 424 875 383 958 424 924 b 340 792 424 826 383 792 b 257 875 297 792 257 826 m 535 875 b 618 958 535 924 575 958 b 701 875 661 958 701 924 b 618 792 701 826 661 792 b 535 875 575 792 535 826 "},"Ӻ":{"ha":813,"x_min":0,"x_max":0,"o":"m 167 -160 l 181 -164 b 215 -167 190 -165 200 -167 b 278 -97 257 -167 278 -143 l 278 0 l 160 0 l 160 410 l 28 410 l 28 556 l 160 556 l 160 972 l 785 972 l 785 826 l 313 826 l 313 556 l 576 556 l 576 410 l 313 410 l 313 146 l 431 146 l 431 -111 b 257 -306 431 -237 363 -306 b 190 -296 231 -306 208 -303 b 167 -285 181 -292 174 -289 "},"ӻ":{"ha":604,"x_min":0,"x_max":0,"o":"m 104 -167 l 114 -171 b 146 -174 124 -172 133 -174 b 201 -111 183 -174 201 -153 l 201 0 l 104 0 l 104 250 l 0 250 l 0 375 l 104 375 l 104 667 l 576 667 l 576 535 l 243 535 l 243 375 l 431 375 l 431 250 l 243 250 l 243 132 l 340 132 l 340 -111 b 188 -299 340 -237 278 -299 b 125 -293 160 -299 140 -297 b 104 -286 117 -292 110 -289 "},"Ӽ":{"ha":917,"x_min":0,"x_max":0,"o":"m 361 507 l 42 972 l 222 972 l 458 618 l 694 972 l 875 972 l 556 507 l 799 153 b 903 -90 836 96 903 22 b 701 -299 903 -224 828 -299 b 617 -285 667 -299 638 -292 b 583 -271 604 -281 593 -276 l 583 -139 b 607 -150 590 -143 597 -146 b 667 -160 622 -156 640 -160 b 750 -83 715 -160 750 -126 b 674 76 750 -21 714 14 l 458 396 l 194 0 l 14 0 "},"ӽ":{"ha":694,"x_min":0,"x_max":0,"o":"m 264 347 l 35 667 l 194 667 l 347 451 l 500 667 l 660 667 l 431 347 l 611 90 b 688 -104 646 42 688 -14 b 493 -299 688 -222 611 -299 b 424 -287 465 -299 440 -293 b 396 -276 414 -283 404 -281 l 396 -146 b 415 -153 401 -149 408 -151 b 465 -160 429 -157 446 -160 b 549 -83 521 -160 549 -135 b 479 56 549 -42 535 -22 l 347 243 l 174 0 l 14 0 "},"Ӿ":{"ha":917,"x_min":0,"x_max":0,"o":"m 319 438 l 125 438 l 125 576 l 319 576 l 42 972 l 222 972 l 458 618 l 694 972 l 875 972 l 597 576 l 792 576 l 792 438 l 597 438 l 903 0 l 722 0 l 458 396 l 194 0 l 14 0 "},"ӿ":{"ha":694,"x_min":0,"x_max":0,"o":"m 222 285 l 104 285 l 104 410 l 222 410 l 35 667 l 194 667 l 347 451 l 500 667 l 660 667 l 472 410 l 590 410 l 590 285 l 472 285 l 681 0 l 521 0 l 347 243 l 174 0 l 14 0 "},"Ԑ":{"ha":799,"x_min":0,"x_max":0,"o":"m 792 132 b 707 58 768 104 740 79 b 451 -14 650 21 567 -14 b 69 278 208 -14 69 126 b 163 464 69 368 114 426 b 257 514 190 485 222 501 b 181 561 228 526 203 542 b 104 729 142 594 104 647 b 451 986 104 868 224 986 b 668 933 546 986 618 960 b 743 882 697 918 722 900 l 639 778 b 589 813 624 790 607 803 b 451 847 557 829 511 847 b 257 717 319 847 257 785 b 451 583 257 646 318 583 l 569 583 l 569 438 l 451 438 b 222 285 300 438 222 361 b 451 125 222 201 300 125 b 629 181 531 125 590 153 b 688 236 653 197 672 215 "},"ԑ":{"ha":590,"x_min":0,"x_max":0,"o":"m 583 104 b 519 44 565 81 544 61 b 326 -14 476 15 414 -14 b 56 188 153 -14 56 83 b 121 314 56 250 88 288 b 188 347 140 328 163 339 b 132 378 167 354 149 365 b 76 493 104 400 76 438 b 326 681 76 589 167 681 b 499 642 404 681 460 663 b 556 603 521 631 540 618 l 465 513 l 426 533 b 326 556 400 544 369 556 b 222 479 258 556 222 522 b 326 410 222 444 256 410 l 410 410 l 410 285 l 326 285 b 201 201 243 285 201 244 b 326 111 201 153 243 111 b 449 153 378 111 419 132 b 493 194 465 165 481 179 "},"Ԓ":{"ha":1042,"x_min":0,"x_max":0,"o":"m -7 146 b 15 139 0 143 7 140 b 69 132 31 135 49 132 b 243 681 160 132 243 215 l 243 972 l 903 972 l 903 -69 b 701 -299 903 -224 828 -299 b 617 -289 667 -299 638 -294 b 583 -278 604 -285 593 -282 l 583 -139 l 606 -150 b 660 -160 621 -157 639 -160 b 750 -56 715 -160 750 -126 l 750 826 l 396 826 l 396 681 b 97 -14 396 111 271 -14 b 22 -4 65 -14 40 -10 l -7 7 "},"ԓ":{"ha":778,"x_min":0,"x_max":0,"o":"m -7 132 l 10 128 b 42 125 19 126 31 125 b 167 472 118 125 167 174 l 167 667 l 681 667 l 681 -85 b 486 -299 681 -224 604 -299 b 417 -289 457 -299 433 -294 b 389 -278 407 -285 397 -282 l 389 -146 b 408 -153 394 -149 401 -151 b 458 -160 422 -157 439 -160 b 542 -69 514 -160 542 -129 l 542 535 l 306 535 l 306 472 b 76 -14 306 83 208 -14 b 17 -7 53 -14 33 -11 b -7 0 7 -6 0 -3 "},"Ẁ":{"ha":1458,"x_min":0,"x_max":0,"o":"m 28 972 l 188 972 l 424 243 l 653 972 l 806 972 l 1035 243 l 1271 972 l 1431 972 l 1111 0 l 958 0 l 729 729 l 500 0 l 347 0 m 528 1292 l 674 1292 l 778 1097 l 674 1097 "}}}
